<?xml version="1.0" encoding="utf-8" standalone="no"?>
<!DOCTYPE svg PUBLIC "-//W3C//DTD SVG 1.1//EN"
  "http://www.w3.org/Graphics/SVG/1.1/DTD/svg11.dtd">
<svg xmlns:xlink="http://www.w3.org/1999/xlink" width="460.8pt" height="345.6pt" viewBox="0 0 460.8 345.6" xmlns="http://www.w3.org/2000/svg" version="1.1">
 <metadata>
  <rdf:RDF xmlns:dc="http://purl.org/dc/elements/1.1/" xmlns:cc="http://creativecommons.org/ns#" xmlns:rdf="http://www.w3.org/1999/02/22-rdf-syntax-ns#">
   <cc:Work>
    <dc:type rdf:resource="http://purl.org/dc/dcmitype/StillImage"/>
    <dc:date>2023-06-29T16:43:08.420409</dc:date>
    <dc:format>image/svg+xml</dc:format>
    <dc:creator>
     <cc:Agent>
      <dc:title>Matplotlib v3.7.1, https://matplotlib.org/</dc:title>
     </cc:Agent>
    </dc:creator>
   </cc:Work>
  </rdf:RDF>
 </metadata>
 <defs>
  <style type="text/css">*{stroke-linejoin: round; stroke-linecap: butt}</style>
 </defs>
 <g id="figure_1">
  <g id="patch_1">
   <path d="M 0 345.6 
L 460.8 345.6 
L 460.8 0 
L 0 0 
z
" style="fill: #ffffff"/>
  </g>
  <g id="axes_1">
   <g id="patch_2">
    <path d="M 57.6 307.584 
L 414.72 307.584 
L 414.72 41.472 
L 57.6 41.472 
z
" style="fill: #eaeaf2"/>
   </g>
   <g id="matplotlib.axis_1">
    <g id="xtick_1">
     <g id="line2d_1">
      <path d="M 109.94558 307.584 
L 109.94558 41.472 
" clip-path="url(#p553518328a)" style="fill: none; stroke: #ffffff; stroke-width: 0.8; stroke-linecap: round"/>
     </g>
     <g id="line2d_2"/>
     <g id="text_1">
      <!-- $\mathdefault{400}$ -->
      <g style="fill: #262626" transform="translate(102.473577 318.002498) scale(0.1 -0.1)">
       <defs>
        <path id="CMR17-34" d="M 2150 4147 
C 2150 4281 2144 4288 2029 4288 
L 128 1254 
L 128 1088 
L 1779 1088 
L 1779 460 
C 1779 230 1766 166 1318 166 
L 1197 166 
L 1197 0 
C 1402 12 1747 12 1965 12 
C 2182 12 2528 12 2733 0 
L 2733 166 
L 2611 166 
C 2163 166 2150 230 2150 460 
L 2150 1088 
L 2803 1088 
L 2803 1254 
L 2150 1254 
L 2150 4147 
z
M 1798 3723 
L 1798 1254 
L 256 1254 
L 1798 3723 
z
" transform="scale(0.015625)"/>
        <path id="CMR17-30" d="M 2688 2038 
C 2688 2430 2682 3099 2413 3613 
C 2176 4063 1798 4224 1466 4224 
C 1158 4224 768 4082 525 3620 
C 269 3137 243 2539 243 2038 
C 243 1671 250 1112 448 623 
C 723 -39 1216 -128 1466 -128 
C 1760 -128 2208 -7 2470 604 
C 2662 1048 2688 1568 2688 2038 
z
M 1466 -26 
C 1056 -26 813 328 723 816 
C 653 1196 653 1749 653 2109 
C 653 2604 653 3015 736 3407 
C 858 3954 1216 4121 1466 4121 
C 1728 4121 2067 3947 2189 3420 
C 2272 3054 2278 2623 2278 2109 
C 2278 1691 2278 1176 2202 797 
C 2067 96 1690 -26 1466 -26 
z
" transform="scale(0.015625)"/>
       </defs>
       <use xlink:href="#CMR17-34" transform="scale(0.996264)"/>
       <use xlink:href="#CMR17-30" transform="translate(45.690477 0) scale(0.996264)"/>
       <use xlink:href="#CMR17-30" transform="translate(91.380954 0) scale(0.996264)"/>
      </g>
     </g>
    </g>
    <g id="xtick_2">
     <g id="line2d_3">
      <path d="M 182.171285 307.584 
L 182.171285 41.472 
" clip-path="url(#p553518328a)" style="fill: none; stroke: #ffffff; stroke-width: 0.8; stroke-linecap: round"/>
     </g>
     <g id="line2d_4"/>
     <g id="text_2">
      <!-- $\mathdefault{500}$ -->
      <g style="fill: #262626" transform="translate(174.699282 318.002498) scale(0.1 -0.1)">
       <defs>
        <path id="CMR17-35" d="M 730 3750 
C 794 3724 1056 3641 1325 3641 
C 1920 3641 2246 3961 2432 4140 
C 2432 4191 2432 4224 2394 4224 
C 2387 4224 2374 4224 2323 4198 
C 2099 4102 1837 4032 1517 4032 
C 1325 4032 1037 4055 723 4191 
C 653 4224 640 4224 634 4224 
C 602 4224 595 4217 595 4090 
L 595 2231 
C 595 2113 595 2080 659 2080 
C 691 2080 704 2093 736 2139 
C 941 2435 1222 2560 1542 2560 
C 1766 2560 2246 2415 2246 1293 
C 2246 1087 2246 716 2054 422 
C 1894 159 1645 25 1370 25 
C 947 25 518 319 403 812 
C 429 806 480 793 506 793 
C 589 793 749 838 749 1036 
C 749 1209 627 1280 506 1280 
C 358 1280 262 1190 262 1011 
C 262 454 704 -128 1382 -128 
C 2042 -128 2669 441 2669 1267 
C 2669 2054 2170 2662 1549 2662 
C 1222 2662 947 2540 730 2304 
L 730 3750 
z
" transform="scale(0.015625)"/>
       </defs>
       <use xlink:href="#CMR17-35" transform="scale(0.996264)"/>
       <use xlink:href="#CMR17-30" transform="translate(45.690477 0) scale(0.996264)"/>
       <use xlink:href="#CMR17-30" transform="translate(91.380954 0) scale(0.996264)"/>
      </g>
     </g>
    </g>
    <g id="xtick_3">
     <g id="line2d_5">
      <path d="M 254.396991 307.584 
L 254.396991 41.472 
" clip-path="url(#p553518328a)" style="fill: none; stroke: #ffffff; stroke-width: 0.8; stroke-linecap: round"/>
     </g>
     <g id="line2d_6"/>
     <g id="text_3">
      <!-- $\mathdefault{600}$ -->
      <g style="fill: #262626" transform="translate(246.924988 318.002498) scale(0.1 -0.1)">
       <defs>
        <path id="CMR17-36" d="M 678 2198 
C 678 3712 1395 4076 1811 4076 
C 1946 4076 2272 4049 2400 3782 
C 2298 3782 2106 3782 2106 3558 
C 2106 3385 2246 3328 2336 3328 
C 2394 3328 2566 3353 2566 3571 
C 2566 3987 2246 4224 1805 4224 
C 1043 4224 243 3411 243 2011 
C 243 257 966 -128 1478 -128 
C 2099 -128 2688 431 2688 1295 
C 2688 2101 2170 2688 1517 2688 
C 1126 2688 838 2430 678 1979 
L 678 2198 
z
M 1478 25 
C 691 25 691 1212 691 1450 
C 691 1914 909 2585 1504 2585 
C 1613 2585 1926 2585 2138 2140 
C 2253 1889 2253 1624 2253 1302 
C 2253 954 2253 696 2118 438 
C 1978 173 1773 25 1478 25 
z
" transform="scale(0.015625)"/>
       </defs>
       <use xlink:href="#CMR17-36" transform="scale(0.996264)"/>
       <use xlink:href="#CMR17-30" transform="translate(45.690477 0) scale(0.996264)"/>
       <use xlink:href="#CMR17-30" transform="translate(91.380954 0) scale(0.996264)"/>
      </g>
     </g>
    </g>
    <g id="xtick_4">
     <g id="line2d_7">
      <path d="M 326.622696 307.584 
L 326.622696 41.472 
" clip-path="url(#p553518328a)" style="fill: none; stroke: #ffffff; stroke-width: 0.8; stroke-linecap: round"/>
     </g>
     <g id="line2d_8"/>
     <g id="text_4">
      <!-- $\mathdefault{700}$ -->
      <g style="fill: #262626" transform="translate(319.150693 318.002498) scale(0.1 -0.1)">
       <defs>
        <path id="CMR17-37" d="M 2886 3955 
L 2886 4096 
L 1382 4096 
C 634 4096 621 4166 595 4288 
L 480 4288 
L 294 3104 
L 410 3104 
C 429 3226 474 3552 550 3673 
C 589 3724 1062 3724 1171 3724 
L 2579 3724 
L 1869 2670 
C 1395 1961 1069 1003 1069 166 
C 1069 89 1069 -128 1299 -128 
C 1530 -128 1530 89 1530 172 
L 1530 466 
C 1530 1514 1709 2204 2003 2644 
L 2886 3955 
z
" transform="scale(0.015625)"/>
       </defs>
       <use xlink:href="#CMR17-37" transform="scale(0.996264)"/>
       <use xlink:href="#CMR17-30" transform="translate(45.690477 0) scale(0.996264)"/>
       <use xlink:href="#CMR17-30" transform="translate(91.380954 0) scale(0.996264)"/>
      </g>
     </g>
    </g>
    <g id="xtick_5">
     <g id="line2d_9">
      <path d="M 398.848401 307.584 
L 398.848401 41.472 
" clip-path="url(#p553518328a)" style="fill: none; stroke: #ffffff; stroke-width: 0.8; stroke-linecap: round"/>
     </g>
     <g id="line2d_10"/>
     <g id="text_5">
      <!-- $\mathdefault{800}$ -->
      <g style="fill: #262626" transform="translate(391.376398 318.002498) scale(0.1 -0.1)">
       <defs>
        <path id="CMR17-38" d="M 1741 2289 
C 2144 2494 2554 2803 2554 3298 
C 2554 3884 1990 4224 1472 4224 
C 890 4224 378 3800 378 3215 
C 378 3054 416 2777 666 2533 
C 730 2469 998 2276 1171 2154 
C 883 2006 211 1652 211 945 
C 211 282 838 -128 1459 -128 
C 2144 -128 2720 366 2720 1022 
C 2720 1607 2330 1877 2074 2051 
L 1741 2289 
z
M 902 2855 
C 851 2887 595 3086 595 3388 
C 595 3781 998 4076 1459 4076 
C 1965 4076 2336 3716 2336 3298 
C 2336 2700 1670 2359 1638 2359 
C 1632 2359 1626 2359 1574 2398 
L 902 2855 
z
M 2080 1536 
C 2176 1466 2483 1253 2483 861 
C 2483 385 2010 25 1472 25 
C 890 25 448 443 448 951 
C 448 1459 838 1884 1280 2083 
L 2080 1536 
z
" transform="scale(0.015625)"/>
       </defs>
       <use xlink:href="#CMR17-38" transform="scale(0.996264)"/>
       <use xlink:href="#CMR17-30" transform="translate(45.690477 0) scale(0.996264)"/>
       <use xlink:href="#CMR17-30" transform="translate(91.380954 0) scale(0.996264)"/>
      </g>
     </g>
    </g>
    <g id="text_6">
     <!-- $\lambda $ [nm] -->
     <g style="fill: #262626" transform="translate(221.90785 331.411657) scale(0.1 -0.1)">
      <defs>
       <path id="CMMI12-15" d="M 1978 3963 
C 1818 4416 1312 4416 1229 4416 
C 1190 4416 1120 4416 1120 4351 
C 1120 4300 1158 4294 1190 4287 
C 1286 4275 1363 4262 1466 4078 
C 1530 3957 2189 2055 2189 2042 
C 2189 2036 2182 2029 2131 1978 
L 467 305 
C 390 229 339 178 339 95 
C 339 6 416 -71 518 -71 
C 544 -71 614 -58 653 -20 
C 755 76 1670 1190 2253 1877 
C 2419 1380 2624 795 2822 261 
C 2854 165 2886 76 2976 -7 
C 3040 -64 3053 -64 3232 -64 
L 3354 -64 
C 3379 -64 3424 -64 3424 -13 
C 3424 12 3418 19 3392 44 
C 3334 114 3290 229 3264 305 
L 1978 3963 
z
" transform="scale(0.015625)"/>
       <path id="CMR17-5b" d="M 1504 -1600 
L 1504 -1376 
L 902 -1376 
L 902 4575 
L 1504 4575 
L 1504 4800 
L 678 4800 
L 678 -1600 
L 1504 -1600 
z
" transform="scale(0.015625)"/>
       <path id="CMR17-6e" d="M 2656 1954 
C 2656 2282 2592 2816 1837 2816 
C 1331 2816 1069 2424 973 2166 
L 966 2166 
L 966 2816 
L 211 2745 
L 211 2578 
C 589 2578 646 2540 646 2231 
L 646 443 
C 646 198 621 166 211 166 
L 211 0 
C 365 12 646 12 813 12 
C 979 12 1267 12 1421 0 
L 1421 166 
C 1011 166 986 192 986 443 
L 986 1678 
C 986 2269 1344 2713 1792 2713 
C 2266 2713 2317 2289 2317 1980 
L 2317 443 
C 2317 198 2291 166 1882 166 
L 1882 0 
C 2035 12 2317 12 2483 12 
C 2650 12 2938 12 3091 0 
L 3091 166 
C 2682 166 2656 192 2656 443 
L 2656 1954 
z
" transform="scale(0.015625)"/>
       <path id="CMR17-6d" d="M 4326 1954 
C 4326 2276 4269 2816 3507 2816 
C 3072 2816 2771 2520 2656 2173 
L 2650 2173 
C 2573 2700 2195 2816 1837 2816 
C 1331 2816 1069 2424 973 2166 
L 966 2166 
L 966 2816 
L 211 2745 
L 211 2578 
C 589 2578 646 2540 646 2231 
L 646 443 
C 646 198 621 166 211 166 
L 211 0 
C 365 12 646 12 813 12 
C 979 12 1267 12 1421 0 
L 1421 166 
C 1011 166 986 192 986 443 
L 986 1678 
C 986 2269 1344 2713 1792 2713 
C 2266 2713 2317 2289 2317 1980 
L 2317 443 
C 2317 198 2291 166 1882 166 
L 1882 0 
C 2035 12 2317 12 2483 12 
C 2650 12 2938 12 3091 0 
L 3091 166 
C 2682 166 2656 192 2656 443 
L 2656 1678 
C 2656 2269 3014 2713 3462 2713 
C 3936 2713 3987 2289 3987 1980 
L 3987 443 
C 3987 198 3962 166 3552 166 
L 3552 0 
C 3706 12 3987 12 4154 12 
C 4320 12 4608 12 4762 0 
L 4762 166 
C 4352 166 4326 192 4326 443 
L 4326 1954 
z
" transform="scale(0.015625)"/>
       <path id="CMR17-5d" d="M 915 4800 
L 90 4800 
L 90 4575 
L 691 4575 
L 691 -1376 
L 90 -1376 
L 90 -1600 
L 915 -1600 
L 915 4800 
z
" transform="scale(0.015625)"/>
      </defs>
      <use xlink:href="#CMMI12-15" transform="scale(0.996264)"/>
      <use xlink:href="#CMR17-5b" transform="translate(86.980038 0) scale(0.996264)"/>
      <use xlink:href="#CMR17-6e" transform="translate(111.851097 0) scale(0.996264)"/>
      <use xlink:href="#CMR17-6d" transform="translate(162.746466 0) scale(0.996264)"/>
      <use xlink:href="#CMR17-5d" transform="translate(239.666056 0) scale(0.996264)"/>
     </g>
    </g>
   </g>
   <g id="matplotlib.axis_2">
    <g id="ytick_1">
     <g id="line2d_11">
      <path d="M 57.6 305.396156 
L 414.72 305.396156 
" clip-path="url(#p553518328a)" style="fill: none; stroke: #ffffff; stroke-width: 0.8; stroke-linecap: round"/>
     </g>
     <g id="line2d_12"/>
     <g id="text_7">
      <!-- $\mathdefault{0.01}$ -->
      <g style="fill: #262626" transform="translate(36.388586 308.855405) scale(0.1 -0.1)">
       <defs>
        <path id="CMMI12-3a" d="M 1178 307 
C 1178 492 1024 620 870 620 
C 685 620 557 467 557 313 
C 557 128 710 0 864 0 
C 1050 0 1178 153 1178 307 
z
" transform="scale(0.015625)"/>
        <path id="CMR17-31" d="M 1702 4083 
C 1702 4217 1696 4224 1606 4224 
C 1357 3927 979 3833 621 3820 
C 602 3820 570 3820 563 3808 
C 557 3795 557 3782 557 3648 
C 755 3648 1088 3686 1344 3839 
L 1344 467 
C 1344 243 1331 166 781 166 
L 589 166 
L 589 0 
C 896 6 1216 12 1523 12 
C 1830 12 2150 6 2458 0 
L 2458 166 
L 2266 166 
C 1715 166 1702 236 1702 467 
L 1702 4083 
z
" transform="scale(0.015625)"/>
       </defs>
       <use xlink:href="#CMR17-30" transform="scale(0.996264)"/>
       <use xlink:href="#CMMI12-3a" transform="translate(45.690477 0) scale(0.996264)"/>
       <use xlink:href="#CMR17-30" transform="translate(72.787654 0) scale(0.996264)"/>
       <use xlink:href="#CMR17-31" transform="translate(118.478131 0) scale(0.996264)"/>
      </g>
     </g>
    </g>
    <g id="ytick_2">
     <g id="line2d_13">
      <path d="M 57.6 262.49128 
L 414.72 262.49128 
" clip-path="url(#p553518328a)" style="fill: none; stroke: #ffffff; stroke-width: 0.8; stroke-linecap: round"/>
     </g>
     <g id="line2d_14"/>
     <g id="text_8">
      <!-- $\mathdefault{0.02}$ -->
      <g style="fill: #262626" transform="translate(36.388586 265.95053) scale(0.1 -0.1)">
       <defs>
        <path id="CMR17-32" d="M 2669 990 
L 2554 990 
C 2490 537 2438 460 2413 422 
C 2381 371 1920 371 1830 371 
L 602 371 
C 832 620 1280 1073 1824 1596 
C 2214 1966 2669 2400 2669 3033 
C 2669 3788 2067 4224 1395 4224 
C 691 4224 262 3603 262 3027 
C 262 2777 448 2745 525 2745 
C 589 2745 781 2783 781 3007 
C 781 3206 614 3264 525 3264 
C 486 3264 448 3257 422 3244 
C 544 3788 915 4057 1306 4057 
C 1862 4057 2227 3616 2227 3033 
C 2227 2477 1901 1998 1536 1583 
L 262 147 
L 262 0 
L 2515 0 
L 2669 990 
z
" transform="scale(0.015625)"/>
       </defs>
       <use xlink:href="#CMR17-30" transform="scale(0.996264)"/>
       <use xlink:href="#CMMI12-3a" transform="translate(45.690477 0) scale(0.996264)"/>
       <use xlink:href="#CMR17-30" transform="translate(72.787654 0) scale(0.996264)"/>
       <use xlink:href="#CMR17-32" transform="translate(118.478131 0) scale(0.996264)"/>
      </g>
     </g>
    </g>
    <g id="ytick_3">
     <g id="line2d_15">
      <path d="M 57.6 219.586405 
L 414.72 219.586405 
" clip-path="url(#p553518328a)" style="fill: none; stroke: #ffffff; stroke-width: 0.8; stroke-linecap: round"/>
     </g>
     <g id="line2d_16"/>
     <g id="text_9">
      <!-- $\mathdefault{0.03}$ -->
      <g style="fill: #262626" transform="translate(36.388586 223.045654) scale(0.1 -0.1)">
       <defs>
        <path id="CMR17-33" d="M 1414 2176 
C 1984 2176 2234 1673 2234 1094 
C 2234 322 1824 25 1453 25 
C 1114 25 563 193 390 691 
C 422 678 454 678 486 678 
C 640 678 755 780 755 947 
C 755 1132 614 1216 486 1216 
C 378 1216 211 1164 211 927 
C 211 335 787 -128 1466 -128 
C 2176 -128 2720 432 2720 1087 
C 2720 1718 2208 2176 1600 2246 
C 2086 2347 2554 2776 2554 3353 
C 2554 3856 2048 4224 1472 4224 
C 890 4224 378 3862 378 3347 
C 378 3123 544 3084 627 3084 
C 762 3084 877 3167 877 3334 
C 877 3500 762 3584 627 3584 
C 602 3584 570 3584 544 3571 
C 730 3999 1235 4076 1459 4076 
C 1683 4076 2106 3966 2106 3347 
C 2106 3167 2080 2851 1862 2574 
C 1670 2329 1453 2316 1242 2297 
C 1210 2297 1062 2284 1037 2284 
C 992 2278 966 2272 966 2227 
C 966 2182 973 2176 1101 2176 
L 1414 2176 
z
" transform="scale(0.015625)"/>
       </defs>
       <use xlink:href="#CMR17-30" transform="scale(0.996264)"/>
       <use xlink:href="#CMMI12-3a" transform="translate(45.690477 0) scale(0.996264)"/>
       <use xlink:href="#CMR17-30" transform="translate(72.787654 0) scale(0.996264)"/>
       <use xlink:href="#CMR17-33" transform="translate(118.478131 0) scale(0.996264)"/>
      </g>
     </g>
    </g>
    <g id="ytick_4">
     <g id="line2d_17">
      <path d="M 57.6 176.681529 
L 414.72 176.681529 
" clip-path="url(#p553518328a)" style="fill: none; stroke: #ffffff; stroke-width: 0.8; stroke-linecap: round"/>
     </g>
     <g id="line2d_18"/>
     <g id="text_10">
      <!-- $\mathdefault{0.04}$ -->
      <g style="fill: #262626" transform="translate(36.388586 180.140778) scale(0.1 -0.1)">
       <use xlink:href="#CMR17-30" transform="scale(0.996264)"/>
       <use xlink:href="#CMMI12-3a" transform="translate(45.690477 0) scale(0.996264)"/>
       <use xlink:href="#CMR17-30" transform="translate(72.787654 0) scale(0.996264)"/>
       <use xlink:href="#CMR17-34" transform="translate(118.478131 0) scale(0.996264)"/>
      </g>
     </g>
    </g>
    <g id="ytick_5">
     <g id="line2d_19">
      <path d="M 57.6 133.776653 
L 414.72 133.776653 
" clip-path="url(#p553518328a)" style="fill: none; stroke: #ffffff; stroke-width: 0.8; stroke-linecap: round"/>
     </g>
     <g id="line2d_20"/>
     <g id="text_11">
      <!-- $\mathdefault{0.05}$ -->
      <g style="fill: #262626" transform="translate(36.388586 137.235902) scale(0.1 -0.1)">
       <use xlink:href="#CMR17-30" transform="scale(0.996264)"/>
       <use xlink:href="#CMMI12-3a" transform="translate(45.690477 0) scale(0.996264)"/>
       <use xlink:href="#CMR17-30" transform="translate(72.787654 0) scale(0.996264)"/>
       <use xlink:href="#CMR17-35" transform="translate(118.478131 0) scale(0.996264)"/>
      </g>
     </g>
    </g>
    <g id="ytick_6">
     <g id="line2d_21">
      <path d="M 57.6 90.871777 
L 414.72 90.871777 
" clip-path="url(#p553518328a)" style="fill: none; stroke: #ffffff; stroke-width: 0.8; stroke-linecap: round"/>
     </g>
     <g id="line2d_22"/>
     <g id="text_12">
      <!-- $\mathdefault{0.06}$ -->
      <g style="fill: #262626" transform="translate(36.388586 94.331026) scale(0.1 -0.1)">
       <use xlink:href="#CMR17-30" transform="scale(0.996264)"/>
       <use xlink:href="#CMMI12-3a" transform="translate(45.690477 0) scale(0.996264)"/>
       <use xlink:href="#CMR17-30" transform="translate(72.787654 0) scale(0.996264)"/>
       <use xlink:href="#CMR17-36" transform="translate(118.478131 0) scale(0.996264)"/>
      </g>
     </g>
    </g>
    <g id="ytick_7">
     <g id="line2d_23">
      <path d="M 57.6 47.966901 
L 414.72 47.966901 
" clip-path="url(#p553518328a)" style="fill: none; stroke: #ffffff; stroke-width: 0.8; stroke-linecap: round"/>
     </g>
     <g id="line2d_24"/>
     <g id="text_13">
      <!-- $\mathdefault{0.07}$ -->
      <g style="fill: #262626" transform="translate(36.388586 51.426151) scale(0.1 -0.1)">
       <use xlink:href="#CMR17-30" transform="scale(0.996264)"/>
       <use xlink:href="#CMMI12-3a" transform="translate(45.690477 0) scale(0.996264)"/>
       <use xlink:href="#CMR17-30" transform="translate(72.787654 0) scale(0.996264)"/>
       <use xlink:href="#CMR17-37" transform="translate(118.478131 0) scale(0.996264)"/>
      </g>
     </g>
    </g>
    <g id="text_14">
     <!-- Absorbance -->
     <g style="fill: #262626" transform="translate(30.451407 199.891269) rotate(-90) scale(0.1 -0.1)">
      <defs>
       <path id="CMR17-41" d="M 2323 4441 
C 2291 4524 2278 4544 2214 4544 
C 2150 4544 2138 4524 2106 4441 
L 749 580 
C 627 236 371 166 147 166 
L 147 0 
C 262 12 518 12 640 12 
C 800 12 1056 12 1210 0 
L 1210 166 
C 909 179 864 382 864 459 
C 864 516 877 548 890 586 
L 1229 1536 
L 2906 1536 
L 3290 453 
C 3322 376 3322 363 3322 338 
C 3322 166 3046 166 2925 166 
L 2925 0 
C 3110 12 3443 12 3642 12 
C 3808 12 4128 12 4282 0 
L 4282 166 
C 3942 166 3827 166 3744 402 
L 2323 4441 
z
M 2067 3924 
L 2848 1702 
L 1286 1702 
L 2067 3924 
z
" transform="scale(0.015625)"/>
       <path id="CMR17-62" d="M 960 4416 
L 198 4345 
L 198 4179 
C 576 4179 634 4141 634 3843 
L 634 -13 
L 749 -13 
L 934 445 
C 1120 141 1395 -64 1766 -64 
C 2406 -64 3053 503 3053 1382 
C 3053 2209 2477 2816 1830 2816 
C 1434 2816 1152 2603 960 2351 
L 960 4416 
z
M 973 2022 
C 973 2138 973 2157 1062 2293 
C 1312 2681 1670 2713 1792 2713 
C 1984 2713 2643 2610 2643 1388 
C 2643 109 1888 38 1734 38 
C 1536 38 1248 115 1043 490 
C 973 613 973 626 973 742 
L 973 2022 
z
" transform="scale(0.015625)"/>
       <path id="CMR17-73" d="M 1978 2688 
C 1978 2803 1971 2809 1933 2809 
C 1907 2809 1901 2803 1824 2707 
C 1805 2681 1747 2617 1728 2592 
C 1523 2809 1235 2816 1126 2816 
C 416 2816 160 2444 160 2073 
C 160 1497 813 1363 998 1324 
C 1402 1241 1542 1216 1677 1100 
C 1760 1024 1901 883 1901 652 
C 1901 384 1747 38 1158 38 
C 602 38 403 460 288 1024 
C 269 1113 269 1120 218 1120 
C 166 1120 160 1113 160 985 
L 160 64 
C 160 -52 166 -58 205 -58 
C 237 -58 243 -52 275 0 
C 314 57 410 211 448 275 
C 576 102 800 -64 1158 -64 
C 1792 -64 2131 281 2131 780 
C 2131 1107 1958 1280 1875 1356 
C 1683 1555 1459 1600 1190 1651 
C 838 1728 390 1817 390 2208 
C 390 2374 480 2726 1126 2726 
C 1811 2726 1850 2086 1862 1881 
C 1869 1849 1901 1843 1920 1843 
C 1978 1843 1978 1862 1978 1971 
L 1978 2688 
z
" transform="scale(0.015625)"/>
       <path id="CMR17-6f" d="M 2758 1356 
C 2758 2176 2163 2816 1466 2816 
C 768 2816 173 2176 173 1356 
C 173 550 768 -64 1466 -64 
C 2163 -64 2758 550 2758 1356 
z
M 1466 51 
C 1165 51 909 230 762 480 
C 602 768 582 1126 582 1408 
C 582 1676 595 2009 762 2297 
C 890 2508 1139 2713 1466 2713 
C 1754 2713 1997 2553 2150 2329 
C 2349 2028 2349 1606 2349 1408 
C 2349 1158 2336 774 2163 467 
C 1984 172 1709 51 1466 51 
z
" transform="scale(0.015625)"/>
       <path id="CMR17-72" d="M 960 1517 
C 960 2134 1222 2713 1702 2713 
C 1747 2713 1792 2707 1837 2687 
C 1837 2687 1696 2642 1696 2475 
C 1696 2321 1818 2257 1914 2257 
C 1990 2257 2131 2302 2131 2482 
C 2131 2687 1926 2816 1709 2816 
C 1222 2816 1011 2340 947 2115 
L 941 2115 
L 941 2816 
L 198 2745 
L 198 2578 
C 576 2578 634 2540 634 2231 
L 634 443 
C 634 198 608 166 198 166 
L 198 0 
C 352 12 646 12 813 12 
C 998 12 1325 12 1498 0 
L 1498 166 
C 1037 166 960 166 960 455 
L 960 1517 
z
" transform="scale(0.015625)"/>
       <path id="CMR17-61" d="M 2304 1656 
C 2304 2048 2304 2275 2035 2534 
C 1798 2751 1523 2816 1306 2816 
C 800 2816 435 2408 435 1977 
C 435 1740 627 1728 666 1728 
C 749 1728 896 1779 896 1958 
C 896 2118 774 2188 666 2188 
C 640 2188 608 2182 589 2176 
C 723 2594 1069 2713 1293 2713 
C 1613 2713 1965 2421 1965 1875 
L 1965 1632 
C 1587 1619 1133 1568 774 1373 
C 371 1147 256 822 256 576 
C 256 77 832 -64 1171 -64 
C 1523 -64 1850 135 1990 505 
C 2003 219 2182 -39 2464 -39 
C 2598 -39 2938 51 2938 563 
L 2938 926 
L 2822 926 
L 2822 557 
C 2822 161 2650 109 2566 109 
C 2304 109 2304 446 2304 732 
L 2304 1656 
z
M 1965 887 
C 1965 323 1568 38 1216 38 
C 896 38 646 278 646 576 
C 646 771 730 1114 1101 1322 
C 1408 1497 1760 1523 1965 1536 
L 1965 887 
z
" transform="scale(0.015625)"/>
       <path id="CMR17-63" d="M 2234 2240 
C 2112 2240 1933 2240 1933 2015 
C 1933 1836 2080 1785 2163 1785 
C 2208 1785 2394 1804 2394 2028 
C 2394 2476 1958 2816 1466 2816 
C 787 2816 211 2201 211 1379 
C 211 521 813 -64 1466 -64 
C 2259 -64 2458 676 2458 747 
C 2458 773 2451 792 2406 792 
C 2362 792 2355 786 2330 702 
C 2163 180 1798 51 1523 51 
C 1114 51 621 431 621 1385 
C 621 2358 1094 2700 1472 2700 
C 1722 2700 2093 2582 2234 2240 
z
" transform="scale(0.015625)"/>
       <path id="CMR17-65" d="M 2438 1503 
C 2464 1529 2464 1542 2464 1606 
C 2464 2251 2118 2816 1389 2816 
C 710 2816 173 2175 173 1394 
C 173 554 781 -64 1459 -64 
C 2176 -64 2458 619 2458 755 
C 2458 800 2419 800 2406 800 
C 2362 800 2355 787 2330 709 
C 2189 270 1837 51 1504 51 
C 1229 51 954 206 781 490 
C 582 819 582 1200 582 1503 
L 2438 1503 
z
M 589 1600 
C 634 2511 1126 2713 1382 2713 
C 1818 2713 2112 2308 2118 1600 
L 589 1600 
z
" transform="scale(0.015625)"/>
      </defs>
      <use xlink:href="#CMR17-41" transform="scale(0.996264)"/>
      <use xlink:href="#CMR17-62" transform="translate(69.07243 0) scale(0.996264)"/>
      <use xlink:href="#CMR17-73" transform="translate(119.9678 0) scale(0.996264)"/>
      <use xlink:href="#CMR17-6f" transform="translate(155.769137 0) scale(0.996264)"/>
      <use xlink:href="#CMR17-72" transform="translate(201.459614 0) scale(0.996264)"/>
      <use xlink:href="#CMR17-62" transform="translate(236.740382 0) scale(0.996264)"/>
      <use xlink:href="#CMR17-61" transform="translate(287.635752 0) scale(0.996264)"/>
      <use xlink:href="#CMR17-6e" transform="translate(333.326229 0) scale(0.996264)"/>
      <use xlink:href="#CMR17-63" transform="translate(384.221599 0) scale(0.996264)"/>
      <use xlink:href="#CMR17-65" transform="translate(424.707259 0) scale(0.996264)"/>
     </g>
    </g>
   </g>
   <g id="line2d_25">
    <path d="M 398.487273 289.142569 
L 398.126144 282.303515 
L 397.765016 295.488 
L 397.042759 276.105559 
L 396.68163 290.856092 
L 396.320502 286.486239 
L 395.959373 290.217106 
L 395.598245 289.675496 
L 395.237116 283.120568 
L 394.875987 283.431741 
L 394.514859 291.114388 
L 394.15373 284.081061 
L 393.792602 290.473085 
L 393.431473 289.469749 
L 393.070345 286.344235 
L 392.709216 289.564182 
L 392.348088 280.042883 
L 391.986959 277.674918 
L 391.625831 287.237942 
L 391.264702 276.810047 
L 390.903574 284.956506 
L 390.542445 285.354239 
L 390.181317 278.838519 
L 389.820188 279.460356 
L 389.45906 286.040406 
L 389.097931 272.19677 
L 388.736803 280.409851 
L 388.375674 283.915605 
L 388.014545 272.490643 
L 387.653417 284.750368 
L 387.292288 276.772713 
L 386.93116 275.741894 
L 386.570031 281.296153 
L 386.208903 275.050684 
L 385.847774 274.160888 
L 385.486646 284.206699 
L 385.125517 275.572194 
L 384.764389 274.905029 
L 384.40326 279.871348 
L 384.042132 270.134462 
L 383.681003 277.04402 
L 383.319875 278.926245 
L 382.958746 271.50339 
L 382.597618 276.524213 
L 382.236489 278.208406 
L 381.875361 271.507175 
L 381.514232 277.369679 
L 381.153103 270.867818 
L 380.430846 274.121504 
L 380.069718 270.398966 
L 379.708589 280.214424 
L 379.347461 267.359495 
L 378.986332 267.04208 
L 378.625204 273.831819 
L 377.902947 268.667384 
L 377.541818 274.553938 
L 377.18069 262.130961 
L 376.819561 268.937157 
L 376.458433 267.818999 
L 376.097304 264.296745 
L 375.736176 271.123871 
L 375.375047 262.393552 
L 375.013918 268.38806 
L 374.65279 265.116488 
L 374.291661 263.15438 
L 373.930533 271.231019 
L 373.569404 258.884005 
L 373.208276 265.403466 
L 372.847147 262.530196 
L 372.486019 263.331279 
L 372.12489 269.211795 
L 371.763762 260.008718 
L 371.402633 264.023629 
L 371.041505 259.679189 
L 370.680376 260.706782 
L 370.319248 264.618014 
L 369.958119 259.969118 
L 369.596991 259.699265 
L 369.235862 261.552031 
L 368.874734 256.921665 
L 368.152476 262.446479 
L 367.791348 258.396583 
L 367.430219 256.671533 
L 367.069091 256.023668 
L 366.707962 261.380103 
L 366.346834 258.792193 
L 365.985705 258.891537 
L 365.624577 260.463649 
L 365.263448 253.293921 
L 364.90232 260.014372 
L 364.541191 248.279493 
L 364.180063 254.953644 
L 363.818934 255.240187 
L 363.457806 257.056401 
L 363.096677 254.616394 
L 362.735549 253.508442 
L 362.37442 254.897066 
L 362.013292 252.54089 
L 361.652163 253.471047 
L 361.291034 250.519307 
L 360.929906 248.912343 
L 360.568777 249.928717 
L 360.207649 252.130645 
L 359.84652 252.718315 
L 359.485392 252.381674 
L 359.124263 244.679557 
L 358.763135 244.307816 
L 358.402006 252.938485 
L 358.040878 244.440223 
L 357.679749 250.572102 
L 357.318621 245.973637 
L 356.957492 250.588192 
L 356.596364 245.007714 
L 356.235235 241.37272 
L 355.874107 246.189619 
L 355.512978 241.939081 
L 355.15185 244.05715 
L 354.790721 241.523213 
L 354.429592 240.235791 
L 354.068464 241.884327 
L 353.707335 237.216328 
L 353.346207 237.620139 
L 352.985078 240.154622 
L 352.262821 241.897826 
L 351.901693 239.821385 
L 351.540564 236.131373 
L 351.179436 234.478735 
L 350.818307 242.708817 
L 350.457179 242.915321 
L 350.09605 231.681734 
L 349.373793 237.492838 
L 349.012665 232.443122 
L 348.651536 237.073778 
L 348.290408 227.47655 
L 347.929279 235.135626 
L 347.56815 229.939174 
L 347.207022 235.797159 
L 346.845893 226.069369 
L 346.484765 230.971649 
L 346.123636 233.167714 
L 345.762508 223.341209 
L 345.401379 231.893261 
L 345.040251 222.229157 
L 344.679122 234.307612 
L 344.317994 224.14268 
L 343.956865 231.323058 
L 343.595737 226.838298 
L 343.234608 223.821116 
L 342.87348 228.716472 
L 342.512351 225.368336 
L 342.151223 234.22052 
L 341.790094 217.951262 
L 341.428966 228.82299 
L 341.067837 221.769398 
L 340.706708 224.71525 
L 340.34558 221.502474 
L 339.984451 222.85294 
L 339.623323 221.952036 
L 339.262194 217.081811 
L 338.901066 218.952734 
L 338.178809 213.853272 
L 337.81768 213.457314 
L 337.456552 209.853781 
L 337.095423 213.688564 
L 336.734295 210.221658 
L 336.373166 214.417901 
L 336.012038 207.761809 
L 335.650909 204.901324 
L 334.928652 215.081851 
L 334.567524 206.477619 
L 334.206395 207.034094 
L 333.845266 208.728455 
L 333.123009 203.516996 
L 332.761881 204.576183 
L 332.400752 204.521695 
L 332.039624 202.63241 
L 331.678495 204.337063 
L 331.317367 201.141145 
L 330.956238 204.928942 
L 330.59511 201.955598 
L 330.233981 203.110104 
L 329.872853 202.269458 
L 329.511724 200.655375 
L 329.150596 204.722361 
L 328.789467 200.407933 
L 328.428339 199.345666 
L 328.06721 201.010587 
L 327.706082 198.934896 
L 327.344953 200.444837 
L 326.983824 198.112478 
L 326.622696 194.605683 
L 326.261567 197.012574 
L 325.900439 198.04594 
L 325.53931 193.077711 
L 325.178182 195.68997 
L 324.817053 192.389922 
L 324.455925 192.469901 
L 324.094796 193.886141 
L 323.733668 188.770724 
L 323.372539 192.094936 
L 323.011411 187.832927 
L 322.650282 189.271995 
L 322.289154 188.697168 
L 321.928025 187.689878 
L 321.566897 187.346163 
L 321.205768 186.805022 
L 320.844639 182.833807 
L 320.483511 184.920043 
L 320.122382 183.347258 
L 319.761254 184.878056 
L 319.400125 180.710815 
L 319.038997 184.627961 
L 318.677868 177.694773 
L 318.31674 177.285617 
L 317.955611 182.394136 
L 317.594483 178.66462 
L 317.233354 178.146529 
L 316.872226 179.865103 
L 316.511097 177.55205 
L 316.149969 172.9952 
L 315.78884 177.186568 
L 315.427712 174.286566 
L 315.066583 173.961164 
L 314.705455 172.753481 
L 314.344326 175.827736 
L 313.983197 170.041699 
L 313.622069 171.460974 
L 313.26094 175.172328 
L 312.899812 166.47933 
L 312.538683 168.438633 
L 312.177555 169.596568 
L 311.816426 167.168371 
L 311.094169 165.272794 
L 310.733041 164.080971 
L 310.371912 164.661342 
L 310.010784 164.838681 
L 309.649655 164.870243 
L 309.288527 159.83272 
L 308.927398 159.535797 
L 308.56627 164.045293 
L 308.205141 155.519705 
L 307.844013 162.716167 
L 307.482884 157.423821 
L 307.121755 158.711085 
L 306.760627 155.332603 
L 306.399498 156.558477 
L 305.677241 154.339233 
L 305.316113 154.608575 
L 304.954984 150.023923 
L 304.232727 148.462365 
L 303.871599 152.449365 
L 303.51047 146.679181 
L 303.149342 149.411266 
L 302.788213 147.011901 
L 302.427085 147.74904 
L 302.065956 147.793231 
L 301.704828 146.653072 
L 301.343699 142.057558 
L 300.621442 146.10682 
L 299.899185 141.889891 
L 299.538056 138.002689 
L 299.176928 143.744449 
L 298.815799 137.191091 
L 298.454671 140.452019 
L 298.093542 136.112686 
L 297.732414 142.716087 
L 297.371285 134.932751 
L 297.010157 138.292369 
L 296.649028 137.661543 
L 296.2879 137.976886 
L 295.926771 134.156057 
L 295.565643 135.202737 
L 295.204514 135.667191 
L 294.843386 130.1444 
L 294.482257 133.297345 
L 294.121129 126.820568 
L 293.76 130.216815 
L 293.398871 126.79065 
L 293.037743 131.970476 
L 292.676614 124.174465 
L 292.315486 129.260113 
L 291.954357 128.303506 
L 291.593229 126.246135 
L 291.2321 127.172547 
L 290.870972 125.83116 
L 290.509843 120.198983 
L 290.148715 121.936614 
L 289.787586 127.702012 
L 289.426458 117.642425 
L 289.065329 121.549615 
L 288.704201 119.270753 
L 288.343072 121.689448 
L 286.898558 113.024 
L 286.537429 119.393946 
L 286.176301 113.426173 
L 285.815172 116.162756 
L 285.454044 111.922388 
L 285.092915 116.224641 
L 284.731787 107.346943 
L 284.370658 113.699312 
L 283.648401 110.104626 
L 283.287273 109.412945 
L 282.926144 107.508673 
L 282.565016 107.039138 
L 282.203887 104.590258 
L 281.842759 112.374054 
L 281.48163 103.469697 
L 281.120502 108.672944 
L 280.759373 103.369491 
L 280.398245 107.587637 
L 280.037116 103.696389 
L 279.675987 105.901713 
L 279.314859 103.730541 
L 278.95373 103.030093 
L 278.592602 106.470617 
L 278.231473 101.121264 
L 277.870345 104.34811 
L 277.509216 97.285271 
L 277.148088 104.462442 
L 276.786959 99.780837 
L 276.425831 101.523406 
L 276.064702 98.364484 
L 275.703574 101.604157 
L 275.342445 102.477272 
L 274.981317 97.975259 
L 274.620188 100.81762 
L 274.25906 98.108743 
L 273.897931 102.855402 
L 273.536803 95.485861 
L 273.175674 97.773327 
L 272.814545 96.353774 
L 272.453417 98.647804 
L 271.73116 92.04703 
L 271.370031 90.834901 
L 271.008903 92.407999 
L 270.647774 91.818521 
L 270.286646 89.155902 
L 269.925517 88.610934 
L 269.564389 90.014125 
L 269.20326 89.057221 
L 268.842132 88.581726 
L 268.481003 85.877726 
L 268.119875 85.049281 
L 267.758746 85.58008 
L 267.397618 79.726959 
L 267.036489 82.283441 
L 266.675361 80.626601 
L 266.314232 82.927636 
L 265.953103 82.145778 
L 265.591975 76.633462 
L 265.230846 81.287023 
L 264.869718 80.272368 
L 264.508589 81.011033 
L 264.147461 79.629193 
L 263.786332 79.188199 
L 263.425204 81.09774 
L 263.064075 82.103509 
L 262.702947 81.166601 
L 262.341818 75.682294 
L 261.98069 76.732035 
L 261.619561 76.567922 
L 261.258433 81.320806 
L 260.897304 75.411628 
L 260.536176 76.89181 
L 260.175047 74.325463 
L 259.813918 80.478508 
L 259.45279 77.781786 
L 259.091661 72.921865 
L 258.730533 72.658497 
L 258.369404 75.93986 
L 258.008276 76.795475 
L 256.92489 71.352976 
L 256.563762 77.349171 
L 256.202633 70.639577 
L 255.841505 73.50449 
L 255.480376 69.407801 
L 255.119248 78.342667 
L 254.758119 72.656915 
L 254.396991 72.421393 
L 254.035862 73.119707 
L 253.674734 72.671421 
L 253.313605 73.395352 
L 252.952476 70.021464 
L 252.591348 70.970966 
L 252.230219 71.566852 
L 251.869091 73.501445 
L 251.507962 72.652088 
L 251.146834 72.113881 
L 250.785705 68.508969 
L 250.063448 75.474654 
L 249.70232 68.115613 
L 249.341191 72.224225 
L 248.980063 73.690482 
L 248.618934 70.407448 
L 248.257806 72.326858 
L 247.896677 72.2065 
L 247.535549 69.437239 
L 247.17442 73.37484 
L 246.813292 74.312107 
L 246.452163 68.727844 
L 245.729906 74.504433 
L 245.368777 70.105428 
L 245.007649 71.664976 
L 244.64652 70.087598 
L 243.924263 71.673912 
L 243.563135 72.143409 
L 243.202006 66.16617 
L 242.840878 70.562228 
L 242.479749 70.627491 
L 242.118621 73.374328 
L 241.757492 70.633381 
L 241.396364 69.851574 
L 241.035235 71.554401 
L 240.674107 72.373175 
L 240.312978 75.921202 
L 239.95185 68.346617 
L 239.590721 73.638184 
L 239.229592 71.400247 
L 238.868464 75.123819 
L 238.507335 71.806693 
L 238.146207 72.826694 
L 237.785078 76.147348 
L 237.42395 73.58747 
L 237.062821 79.435629 
L 236.701693 72.455503 
L 236.340564 77.204933 
L 235.979436 73.386278 
L 235.618307 77.609232 
L 235.257179 76.726187 
L 234.89605 78.448235 
L 234.534922 76.034466 
L 234.173793 77.416229 
L 233.812665 77.912654 
L 233.451536 74.816249 
L 233.090408 79.145102 
L 232.729279 79.882571 
L 232.36815 79.088564 
L 232.007022 74.498237 
L 231.645893 82.351503 
L 231.284765 78.432446 
L 230.923636 79.673235 
L 230.562508 81.87628 
L 230.201379 82.410355 
L 229.840251 82.282163 
L 229.479122 78.887981 
L 229.117994 82.307766 
L 228.756865 84.42327 
L 228.395737 83.516754 
L 228.034608 82.290321 
L 227.67348 83.952726 
L 227.312351 86.459634 
L 226.951223 80.396397 
L 226.590094 85.910286 
L 226.228966 82.897327 
L 225.867837 86.242095 
L 225.506708 85.847526 
L 225.14558 86.080201 
L 224.784451 84.298957 
L 224.423323 86.069948 
L 224.062194 90.28563 
L 223.701066 88.597019 
L 223.339937 90.013632 
L 222.978809 86.105545 
L 222.61768 93.777506 
L 222.256552 89.473786 
L 221.895423 90.388839 
L 221.534295 88.206613 
L 221.173166 93.479939 
L 220.812038 94.558881 
L 220.450909 92.907541 
L 220.089781 93.165191 
L 219.728652 96.866987 
L 219.367524 96.839018 
L 219.006395 96.477069 
L 218.645266 97.591577 
L 218.284138 95.729063 
L 217.923009 98.061604 
L 217.561881 98.986643 
L 217.200752 97.231146 
L 216.478495 101.443906 
L 216.117367 98.737672 
L 215.756238 99.518587 
L 215.39511 103.284146 
L 215.033981 102.752216 
L 214.672853 104.090233 
L 214.311724 104.698211 
L 213.950596 101.687992 
L 213.228339 105.430663 
L 212.86721 107.370458 
L 212.506082 104.54063 
L 212.144953 105.822934 
L 211.783824 108.294172 
L 211.422696 108.710098 
L 211.061567 107.731956 
L 210.700439 108.50682 
L 210.33931 113.475939 
L 209.978182 110.47148 
L 209.617053 115.342134 
L 209.255925 111.255464 
L 208.894796 114.410649 
L 208.533668 112.117183 
L 208.172539 114.825779 
L 207.811411 114.323792 
L 207.450282 115.610511 
L 207.089154 118.090321 
L 206.728025 116.075472 
L 206.366897 119.51528 
L 206.005768 117.266629 
L 205.644639 120.415953 
L 205.283511 118.748711 
L 204.922382 122.625398 
L 204.561254 117.545702 
L 204.200125 122.453 
L 203.838997 122.829279 
L 203.477868 125.968687 
L 203.11674 124.186422 
L 202.755611 124.121804 
L 202.394483 127.114749 
L 202.033354 126.532322 
L 201.672226 132.203929 
L 201.311097 124.17741 
L 200.949969 130.775583 
L 200.58884 128.220018 
L 200.227712 131.47945 
L 199.866583 130.014749 
L 199.505455 131.030107 
L 199.144326 134.875457 
L 198.783197 134.028831 
L 198.422069 134.108287 
L 198.06094 132.480887 
L 197.699812 134.730915 
L 197.338683 133.223553 
L 196.977555 141.235814 
L 196.616426 134.147993 
L 195.894169 142.565989 
L 195.533041 141.925325 
L 195.171912 140.941802 
L 194.810784 139.168457 
L 194.449655 146.665971 
L 194.088527 144.228807 
L 193.727398 149.452973 
L 193.36627 141.228931 
L 193.005141 146.87361 
L 192.644013 146.244351 
L 192.282884 147.288325 
L 191.921755 146.681455 
L 191.560627 147.581656 
L 191.199498 149.917095 
L 190.83837 150.70302 
L 190.477241 152.677186 
L 190.116113 148.683 
L 189.754984 154.396824 
L 189.393856 153.469005 
L 189.032727 155.540942 
L 188.671599 150.261689 
L 187.949342 159.791724 
L 187.588213 157.027774 
L 187.227085 158.418378 
L 186.865956 157.618537 
L 186.504828 160.699953 
L 186.143699 157.89323 
L 185.782571 162.892815 
L 185.421442 156.232585 
L 185.060313 161.264306 
L 184.699185 160.406367 
L 184.338056 163.000945 
L 183.976928 159.875039 
L 183.615799 160.345185 
L 183.254671 164.896294 
L 182.893542 160.813546 
L 182.532414 164.143024 
L 182.171285 162.523424 
L 181.810157 163.743513 
L 181.449028 164.456298 
L 181.0879 167.334813 
L 180.726771 164.833902 
L 180.365643 167.849942 
L 180.004514 168.488044 
L 179.282257 168.575305 
L 178.921129 166.611719 
L 178.56 171.764583 
L 178.198871 170.833106 
L 177.837743 168.877498 
L 177.476614 168.434933 
L 177.115486 168.975722 
L 176.754357 168.732789 
L 176.393229 174.322382 
L 176.0321 170.990913 
L 175.670972 169.316891 
L 175.309843 175.994801 
L 174.948715 173.136592 
L 174.587586 174.850085 
L 174.226458 169.328355 
L 173.865329 172.042343 
L 173.504201 171.442415 
L 173.143072 177.67634 
L 172.781944 176.005355 
L 172.420815 174.952743 
L 172.059687 177.842213 
L 171.698558 177.849091 
L 171.337429 175.293492 
L 170.976301 178.480135 
L 170.615172 178.404716 
L 170.254044 178.570249 
L 169.892915 178.060228 
L 169.531787 175.593676 
L 169.170658 176.252965 
L 168.448401 182.873681 
L 168.087273 176.472164 
L 167.726144 179.263228 
L 167.365016 178.182218 
L 167.003887 179.974213 
L 166.642759 182.467195 
L 166.28163 182.358002 
L 165.920502 180.997127 
L 165.559373 181.548338 
L 165.198245 184.300601 
L 164.837116 179.281188 
L 164.475987 183.990618 
L 164.114859 180.227021 
L 163.75373 187.758492 
L 163.392602 181.681152 
L 163.031473 186.330362 
L 162.670345 184.562551 
L 162.309216 186.763951 
L 161.948088 183.010358 
L 161.586959 187.780108 
L 161.225831 187.225267 
L 160.864702 187.325885 
L 160.503574 188.798752 
L 160.142445 184.214686 
L 159.781317 183.815629 
L 159.420188 183.000567 
L 159.05906 189.115533 
L 158.697931 183.437325 
L 158.336803 188.175971 
L 157.975674 187.64599 
L 157.614545 186.794028 
L 157.253417 187.528509 
L 156.892288 184.609845 
L 156.53116 189.421202 
L 156.170031 185.585951 
L 155.808903 189.451593 
L 155.447774 185.384214 
L 155.086646 190.061217 
L 154.725517 185.883723 
L 154.364389 190.411446 
L 154.00326 188.71681 
L 153.642132 189.345065 
L 153.281003 191.062852 
L 152.919875 190.872695 
L 152.558746 185.959537 
L 152.197618 187.153635 
L 151.836489 187.154906 
L 151.475361 183.603818 
L 151.114232 189.325341 
L 150.753103 182.585311 
L 150.391975 188.10383 
L 150.030846 184.880307 
L 149.669718 187.73908 
L 149.308589 178.041677 
L 148.947461 180.482845 
L 148.586332 183.730173 
L 148.225204 182.858794 
L 147.864075 185.299116 
L 147.502947 180.541308 
L 147.141818 184.04355 
L 146.78069 181.273565 
L 146.419561 183.146234 
L 145.697304 179.320083 
L 145.336176 179.923241 
L 144.975047 175.637813 
L 144.613918 179.374953 
L 144.25279 177.989503 
L 143.891661 181.740015 
L 143.530533 179.808852 
L 143.169404 188.082341 
L 142.808276 175.702514 
L 142.447147 182.988582 
L 142.086019 180.917973 
L 141.72489 182.373204 
L 141.363762 176.953857 
L 141.002633 181.19336 
L 140.641505 178.291657 
L 140.280376 182.337314 
L 139.919248 187.669123 
L 139.558119 176.007965 
L 139.196991 182.157076 
L 138.835862 178.009672 
L 138.474734 184.390416 
L 138.113605 177.767116 
L 137.752476 185.103071 
L 137.391348 182.88676 
L 136.669091 181.253496 
L 136.307962 178.872633 
L 135.946834 180.457679 
L 135.585705 180.744068 
L 135.224577 182.214036 
L 134.863448 177.583082 
L 134.50232 180.288575 
L 134.141191 180.350055 
L 133.780063 179.871475 
L 133.418934 182.332281 
L 133.057806 185.984217 
L 132.696677 182.921541 
L 132.335549 182.696963 
L 131.97442 185.697771 
L 131.613292 179.458827 
L 131.252163 185.512389 
L 130.891034 182.325316 
L 130.529906 186.363962 
L 130.168777 181.037314 
L 129.807649 186.77991 
L 129.44652 182.422553 
L 129.085392 179.972949 
L 128.724263 185.163692 
L 128.002006 180.867716 
L 127.640878 184.297135 
L 127.279749 180.691378 
L 126.918621 179.243342 
L 126.557492 178.924875 
L 126.196364 184.585885 
L 125.835235 176.970463 
L 125.474107 180.515559 
L 125.112978 180.395542 
L 124.75185 185.159031 
L 124.390721 180.998785 
L 123.668464 179.443429 
L 123.307335 182.095371 
L 122.946207 181.134283 
L 122.585078 177.012279 
L 122.22395 185.298721 
L 121.862821 180.207355 
L 121.501693 183.128577 
L 121.140564 181.345593 
L 120.779436 183.342932 
L 120.418307 180.283287 
L 120.057179 180.061639 
L 119.69605 179.359559 
L 119.334922 176.162413 
L 118.973793 182.017451 
L 118.612665 173.875636 
L 118.251536 180.075075 
L 117.890408 176.236739 
L 117.529279 183.23687 
L 117.16815 176.501368 
L 116.807022 182.757897 
L 116.445893 177.454282 
L 116.084765 185.074374 
L 115.723636 175.083406 
L 115.362508 177.148277 
L 115.001379 174.545333 
L 114.640251 181.201731 
L 114.279122 177.72445 
L 113.917994 175.485563 
L 113.556865 176.265485 
L 113.195737 171.810588 
L 112.834608 176.77406 
L 112.47348 179.491232 
L 112.112351 173.622412 
L 111.751223 175.25461 
L 111.390094 177.911496 
L 111.028966 181.606409 
L 110.667837 174.145751 
L 110.306708 173.027872 
L 109.94558 177.427603 
L 109.584451 179.626392 
L 108.862194 175.925812 
L 108.501066 169.398933 
L 108.139937 176.466863 
L 107.778809 175.584061 
L 107.41768 172.884296 
L 107.056552 174.579411 
L 106.695423 181.531127 
L 106.334295 177.522053 
L 105.973166 176.685389 
L 105.612038 171.407603 
L 105.250909 171.652146 
L 104.889781 176.232783 
L 104.528652 178.400403 
L 104.167524 175.207982 
L 103.806395 168.309759 
L 103.445266 170.814435 
L 103.084138 166.239623 
L 102.723009 176.464275 
L 102.361881 167.878919 
L 102.000752 176.812924 
L 101.639624 172.872552 
L 101.278495 173.821111 
L 100.917367 172.947386 
L 100.556238 163.614696 
L 100.19511 166.390354 
L 99.833981 170.472006 
L 99.472853 171.844496 
L 99.111724 167.498886 
L 98.750596 169.45924 
L 98.389467 158.109015 
L 98.028339 174.50032 
L 97.66721 169.238383 
L 97.306082 170.560416 
L 96.944953 175.918794 
L 96.583824 165.485578 
L 96.222696 167.005503 
L 95.861567 166.134672 
L 95.500439 159.419015 
L 95.13931 168.934378 
L 94.778182 170.512868 
L 94.417053 165.28662 
L 94.055925 167.770293 
L 93.694796 167.278008 
L 93.333668 170.050079 
L 92.611411 160.131641 
L 92.250282 170.532521 
L 91.889154 162.155432 
L 91.528025 166.675795 
L 91.166897 159.904649 
L 90.805768 164.58595 
L 90.444639 166.89962 
L 90.083511 159.128058 
L 89.722382 163.493498 
L 89.361254 153.273151 
L 89.000125 165.94053 
L 88.638997 164.391819 
L 88.277868 168.912685 
L 87.91674 165.15699 
L 87.555611 167.882741 
L 87.194483 160.168747 
L 86.833354 156.764092 
L 86.472226 161.159034 
L 86.111097 163.014572 
L 85.749969 163.844307 
L 85.38884 161.350873 
L 85.027712 161.281069 
L 84.666583 163.303832 
L 84.305455 159.78957 
L 83.944326 159.415844 
L 83.583197 163.176517 
L 83.222069 160.138421 
L 82.86094 159.789929 
L 82.499812 162.688813 
L 82.138683 157.625211 
L 81.416426 163.543265 
L 81.055298 159.627525 
L 80.694169 169.645925 
L 80.333041 157.055017 
L 79.971912 165.898547 
L 79.610784 167.472209 
L 78.888527 159.649116 
L 78.527398 157.913629 
L 78.16627 171.430318 
L 77.805141 148.882364 
L 77.444013 158.394652 
L 77.082884 161.930666 
L 76.721755 158.561918 
L 75.999498 162.058776 
L 75.63837 154.166313 
L 75.277241 154.168506 
L 74.916113 157.546197 
L 74.554984 158.599064 
L 74.193856 149.352588 
L 73.832727 157.422749 
L 73.832727 157.422749 
" clip-path="url(#p553518328a)" style="fill: none; stroke: #1f77b4; stroke-width: 1.5; stroke-linecap: round"/>
   </g>
   <g id="line2d_26">
    <path d="M 398.487273 192.659318 
L 398.126144 186.335367 
L 397.765016 187.696786 
L 397.403887 194.449466 
L 397.042759 189.375562 
L 396.68163 192.483363 
L 396.320502 186.445997 
L 395.598245 193.585602 
L 395.237116 187.218778 
L 394.875987 188.413179 
L 394.514859 192.845046 
L 394.15373 191.260186 
L 393.792602 190.527845 
L 393.431473 194.41454 
L 393.070345 183.86946 
L 392.709216 191.36016 
L 392.348088 190.783969 
L 391.986959 191.558475 
L 391.625831 191.033614 
L 390.903574 186.224803 
L 390.542445 192.133121 
L 390.181317 187.07118 
L 389.820188 192.211635 
L 389.45906 186.812118 
L 389.097931 187.32842 
L 388.736803 186.99581 
L 388.375674 189.569543 
L 388.014545 186.738955 
L 387.653417 190.706585 
L 387.292288 190.647178 
L 386.93116 185.747478 
L 386.570031 195.901061 
L 386.208903 184.462296 
L 385.847774 191.349135 
L 385.486646 187.196473 
L 385.125517 190.754165 
L 384.764389 180.612 
L 384.40326 188.425435 
L 384.042132 183.710946 
L 383.681003 190.018071 
L 383.319875 186.463235 
L 382.958746 189.143001 
L 382.597618 193.082509 
L 382.236489 184.557102 
L 381.875361 186.022886 
L 381.514232 190.178921 
L 381.153103 186.389946 
L 380.430846 188.588026 
L 380.069718 183.199345 
L 379.708589 187.745285 
L 379.347461 187.634452 
L 378.986332 188.530801 
L 378.625204 187.598155 
L 378.264075 182.889854 
L 377.902947 185.986385 
L 377.541818 191.145211 
L 377.18069 180.486485 
L 376.458433 188.569977 
L 376.097304 186.700277 
L 375.736176 187.980796 
L 375.375047 185.181378 
L 375.013918 192.311344 
L 374.65279 188.401549 
L 374.291661 185.803625 
L 373.930533 191.364414 
L 373.569404 186.590238 
L 373.208276 191.968968 
L 372.847147 184.487409 
L 372.486019 182.636909 
L 372.12489 188.380639 
L 371.763762 188.933771 
L 371.402633 188.620932 
L 371.041505 183.26289 
L 370.319248 192.320964 
L 369.958119 185.109066 
L 369.596991 185.402041 
L 369.235862 191.654276 
L 368.874734 187.522003 
L 368.513605 194.770505 
L 368.152476 186.31602 
L 367.791348 184.72537 
L 367.430219 186.863341 
L 367.069091 182.566735 
L 366.707962 190.33405 
L 366.346834 187.978451 
L 365.985705 184.598187 
L 365.624577 186.991535 
L 365.263448 186.973362 
L 364.90232 184.909616 
L 364.541191 185.731352 
L 364.180063 183.196123 
L 363.818934 193.535948 
L 363.457806 184.307277 
L 362.735549 185.768489 
L 362.37442 189.507472 
L 362.013292 187.22741 
L 361.652163 183.671289 
L 361.291034 186.880596 
L 360.929906 185.148515 
L 360.568777 185.384692 
L 359.84652 187.428081 
L 359.485392 185.769007 
L 359.124263 190.889871 
L 358.763135 186.2426 
L 358.402006 190.287792 
L 358.040878 186.151464 
L 357.679749 185.842004 
L 357.318621 187.426457 
L 356.957492 185.405012 
L 356.596364 185.878478 
L 356.235235 187.76911 
L 355.874107 184.751161 
L 355.512978 189.094555 
L 355.15185 186.551775 
L 354.790721 188.858844 
L 354.429592 178.913715 
L 354.068464 189.258916 
L 353.707335 191.436472 
L 353.346207 183.573533 
L 352.985078 184.919321 
L 352.62395 183.625581 
L 352.262821 186.713577 
L 351.540564 185.843685 
L 351.179436 184.358261 
L 350.818307 188.235644 
L 350.457179 183.907792 
L 350.09605 189.33172 
L 349.734922 181.019573 
L 349.373793 184.995346 
L 349.012665 185.645838 
L 348.651536 182.797128 
L 348.290408 182.529825 
L 347.929279 188.059884 
L 347.56815 180.804349 
L 347.207022 186.708731 
L 346.845893 185.541857 
L 346.484765 181.378991 
L 346.123636 187.136169 
L 345.762508 181.550949 
L 345.401379 185.278107 
L 345.040251 180.980745 
L 344.679122 187.238781 
L 344.317994 183.061383 
L 343.956865 183.440661 
L 343.234608 185.656991 
L 342.87348 185.360017 
L 342.512351 182.813538 
L 342.151223 187.397024 
L 341.790094 181.977228 
L 341.428966 185.97799 
L 341.067837 186.412997 
L 340.706708 183.218646 
L 340.34558 182.469258 
L 339.984451 183.356109 
L 339.623323 188.39246 
L 339.262194 188.988489 
L 338.901066 180.158723 
L 338.539937 187.463107 
L 338.178809 182.271092 
L 337.81768 184.770061 
L 337.456552 183.650075 
L 337.095423 183.353005 
L 336.734295 185.995004 
L 336.373166 184.259493 
L 336.012038 185.519066 
L 335.650909 185.269276 
L 335.289781 183.83321 
L 334.928652 179.914249 
L 334.567524 185.066853 
L 334.206395 178.322919 
L 333.845266 184.360835 
L 333.484138 179.643106 
L 333.123009 190.573434 
L 332.761881 181.86189 
L 332.400752 184.29459 
L 332.039624 184.942306 
L 331.678495 184.995346 
L 331.317367 185.717716 
L 330.956238 180.330569 
L 330.59511 187.544008 
L 330.233981 179.933523 
L 329.872853 182.142018 
L 329.511724 178.714449 
L 329.150596 184.723778 
L 328.789467 182.247991 
L 328.428339 180.678655 
L 328.06721 183.910687 
L 327.706082 184.561558 
L 327.344953 182.557445 
L 326.983824 182.030882 
L 326.622696 180.559347 
L 326.261567 176.92019 
L 325.900439 183.565135 
L 325.53931 182.557445 
L 325.178182 182.770027 
L 324.817053 182.285002 
L 324.455925 183.241187 
L 324.094796 181.311152 
L 323.733668 178.071983 
L 323.372539 181.993804 
L 323.011411 181.763692 
L 322.650282 180.746384 
L 322.289154 181.850861 
L 321.928025 181.335983 
L 321.566897 179.895972 
L 321.205768 181.099772 
L 320.844639 180.442869 
L 320.483511 178.950914 
L 320.122382 179.101965 
L 319.400125 182.552817 
L 319.038997 179.310493 
L 318.677868 182.862289 
L 318.31674 180.615502 
L 317.955611 183.307442 
L 317.594483 182.566688 
L 316.872226 179.253881 
L 316.511097 183.252117 
L 316.149969 179.423603 
L 315.78884 179.917511 
L 315.427712 178.137584 
L 315.066583 182.673181 
L 314.344326 177.152562 
L 313.983197 180.2668 
L 313.622069 180.57807 
L 313.26094 179.471523 
L 312.899812 179.6138 
L 312.538683 180.769914 
L 312.177555 178.023585 
L 311.816426 179.906729 
L 311.094169 177.473667 
L 310.733041 179.6138 
L 310.371912 183.687323 
L 310.010784 179.973957 
L 309.649655 175.070015 
L 309.288527 179.414949 
L 308.927398 179.906729 
L 308.56627 184.174889 
L 308.205141 177.492753 
L 307.844013 177.018656 
L 307.482884 174.416098 
L 307.121755 183.812979 
L 306.760627 177.634352 
L 306.399498 176.896454 
L 306.03837 178.127277 
L 305.677241 178.449044 
L 305.316113 177.263428 
L 304.954984 180.570893 
L 304.593856 181.093261 
L 304.232727 176.640202 
L 303.871599 180.060113 
L 303.51047 179.643106 
L 303.149342 178.449044 
L 302.788213 174.677534 
L 302.427085 182.742782 
L 302.065956 177.500713 
L 301.704828 178.733235 
L 301.343699 177.198382 
L 300.982571 181.093261 
L 300.621442 173.74958 
L 300.260313 176.903713 
L 299.899185 175.973121 
L 299.538056 176.069493 
L 299.176928 177.405128 
L 298.815799 179.766804 
L 298.454671 175.395468 
L 298.093542 178.078859 
L 297.732414 179.397574 
L 297.371285 175.517097 
L 297.010157 174.662758 
L 296.649028 176.255693 
L 296.2879 179.473198 
L 295.926771 175.16302 
L 295.565643 175.876641 
L 295.204514 173.80821 
L 294.843386 173.90584 
L 294.482257 177.156105 
L 293.398871 172.995401 
L 293.037743 177.002499 
L 292.676614 174.886122 
L 292.315486 176.056502 
L 291.954357 174.988273 
L 291.593229 176.18502 
L 291.2321 174.015 
L 290.870972 173.593039 
L 290.509843 173.596436 
L 290.148715 174.268919 
L 289.787586 176.107754 
L 289.426458 175.547798 
L 289.065329 172.48094 
L 288.343072 173.681832 
L 287.981944 171.943385 
L 287.620815 174.19908 
L 287.259687 171.743789 
L 286.898558 174.7595 
L 286.537429 174.822863 
L 286.176301 171.065913 
L 285.454044 172.741986 
L 285.092915 171.426685 
L 284.731787 171.486459 
L 284.370658 170.946464 
L 284.00953 171.446614 
L 283.648401 171.40758 
L 283.287273 172.910057 
L 282.926144 170.325428 
L 282.565016 171.047175 
L 282.203887 171.127706 
L 281.842759 168.537834 
L 281.48163 168.459169 
L 281.120502 170.30439 
L 280.759373 171.188325 
L 280.398245 168.975647 
L 280.037116 170.143143 
L 279.675987 171.732412 
L 279.314859 170.001813 
L 278.95373 171.915142 
L 278.592602 171.270426 
L 278.231473 169.840017 
L 277.870345 169.435754 
L 277.509216 170.927779 
L 277.148088 168.690724 
L 276.786959 170.343796 
L 276.425831 169.699403 
L 276.064702 171.068047 
L 275.703574 171.390858 
L 275.342445 170.585726 
L 274.981317 170.485443 
L 274.620188 167.162606 
L 274.25906 169.185826 
L 273.897931 165.692564 
L 273.175674 166.846786 
L 272.814545 169.118217 
L 272.453417 165.727787 
L 272.092288 166.195575 
L 271.73116 163.554669 
L 271.370031 168.618062 
L 271.008903 164.514367 
L 270.286646 167.880557 
L 269.925517 160.968428 
L 269.564389 164.570482 
L 269.20326 161.514215 
L 268.842132 163.669606 
L 268.481003 161.42203 
L 268.119875 164.733059 
L 267.758746 162.170947 
L 267.397618 163.00024 
L 267.036489 162.447592 
L 266.675361 158.06229 
L 266.314232 160.476966 
L 265.953103 160.49765 
L 265.591975 164.173902 
L 265.230846 158.680572 
L 264.869718 162.233264 
L 264.508589 159.140402 
L 264.147461 157.865313 
L 263.786332 158.603939 
L 263.425204 158.687577 
L 263.064075 157.259131 
L 262.702947 160.672028 
L 262.341818 155.142902 
L 261.98069 158.276447 
L 261.619561 156.657897 
L 261.258433 156.937561 
L 260.897304 156.657897 
L 260.536176 156.974539 
L 260.175047 155.813579 
L 259.813918 159.119554 
L 259.45279 153.322437 
L 259.091661 154.207685 
L 258.730533 154.42647 
L 258.369404 152.152368 
L 258.008276 154.381171 
L 257.647147 150.311305 
L 257.286019 153.494434 
L 256.92489 151.546357 
L 256.563762 151.048302 
L 256.202633 150.247564 
L 255.841505 154.920217 
L 255.480376 149.013802 
L 254.758119 151.048302 
L 254.396991 147.678391 
L 254.035862 151.437876 
L 253.674734 148.540061 
L 253.313605 149.967512 
L 252.952476 146.940501 
L 252.591348 146.918318 
L 252.230219 147.3514 
L 251.869091 148.690568 
L 251.507962 145.812859 
L 251.146834 147.329263 
L 250.785705 142.432993 
L 250.424577 144.646817 
L 250.063448 141.872882 
L 249.70232 147.744626 
L 249.341191 140.707812 
L 248.980063 142.899121 
L 248.618934 142.808602 
L 248.257806 139.773202 
L 247.896677 140.593363 
L 247.535549 139.428414 
L 247.17442 140.10261 
L 246.813292 137.52677 
L 246.452163 143.47262 
L 246.091034 136.038167 
L 245.729906 140.000355 
L 245.368777 135.210082 
L 245.007649 139.04026 
L 244.64652 136.596433 
L 244.285392 135.697383 
L 243.924263 132.45736 
L 243.563135 135.520827 
L 243.202006 132.33844 
L 242.840878 136.1784 
L 242.479749 130.354902 
L 242.118621 132.236843 
L 241.757492 132.219389 
L 241.396364 131.439657 
L 241.035235 131.587861 
L 240.674107 129.387171 
L 240.312978 130.959417 
L 239.95185 125.664908 
L 239.590721 130.282852 
L 239.229592 123.753571 
L 238.868464 130.524414 
L 238.507335 120.589852 
L 238.146207 124.337437 
L 237.785078 122.059165 
L 237.42395 126.222665 
L 237.062821 121.2617 
L 236.701693 121.697874 
L 236.340564 121.797709 
L 235.979436 120.522354 
L 235.618307 122.787862 
L 235.257179 118.987356 
L 234.89605 119.692423 
L 234.534922 114.553826 
L 234.173793 120.80785 
L 233.812665 115.337169 
L 233.451536 114.129299 
L 233.090408 112.369888 
L 232.729279 115.876448 
L 232.36815 110.069635 
L 232.007022 112.53646 
L 231.645893 111.058296 
L 231.284765 111.906751 
L 230.201379 106.978687 
L 229.840251 102.72469 
L 229.479122 113.974373 
L 229.117994 105.251983 
L 228.395737 98.828843 
L 228.034608 107.775271 
L 227.67348 101.602436 
L 227.312351 106.952071 
L 226.951223 97.485207 
L 226.590094 101.79484 
L 226.228966 99.432384 
L 225.867837 95.040922 
L 225.506708 97.400518 
L 225.14558 98.112696 
L 224.784451 97.757098 
L 224.062194 92.513962 
L 223.701066 96.103597 
L 223.339937 95.64141 
L 222.978809 90.937547 
L 222.61768 91.847408 
L 222.256552 89.238983 
L 221.895423 92.700191 
L 221.534295 87.359557 
L 221.173166 86.429349 
L 220.812038 88.308935 
L 220.450909 88.846637 
L 220.089781 87.369572 
L 219.728652 82.82056 
L 219.367524 83.039423 
L 219.006395 83.632785 
L 218.645266 81.965283 
L 218.284138 81.995203 
L 217.923009 80.212152 
L 217.561881 83.115967 
L 217.200752 79.21226 
L 216.478495 76.397354 
L 216.117367 76.397354 
L 215.756238 76.640897 
L 215.39511 74.274205 
L 215.033981 76.700999 
L 214.672853 72.775911 
L 214.311724 74.010627 
L 213.950596 71.607281 
L 213.589467 73.870738 
L 213.228339 71.317086 
L 212.86721 70.444152 
L 212.506082 71.821187 
L 212.144953 68.533039 
L 211.422696 67.289639 
L 211.061567 67.640288 
L 210.700439 65.735842 
L 210.33931 66.876939 
L 209.978182 63.289948 
L 209.617053 68.440175 
L 209.255925 64.559921 
L 208.894796 64.400596 
L 208.533668 64.77934 
L 208.172539 64.371576 
L 207.811411 64.431975 
L 207.450282 58.842316 
L 207.089154 62.717992 
L 206.366897 61.891751 
L 206.005768 58.715852 
L 205.644639 61.288951 
L 205.283511 59.733328 
L 204.922382 62.368395 
L 203.838997 58.084564 
L 203.477868 60.590192 
L 203.11674 60.336994 
L 202.755611 57.417698 
L 202.394483 60.717655 
L 202.033354 57.481952 
L 201.672226 61.732496 
L 201.311097 55.41162 
L 200.949969 58.336873 
L 200.58884 56.788923 
L 200.227712 60.812923 
L 199.866583 56.054539 
L 199.505455 55.864471 
L 199.144326 57.040228 
L 198.783197 59.226081 
L 198.422069 59.768006 
L 198.06094 58.402852 
L 197.699812 58.594765 
L 197.338683 57.864592 
L 196.977555 62.681791 
L 196.616426 54.724468 
L 196.255298 61.954388 
L 195.894169 58.722566 
L 195.533041 60.717655 
L 195.171912 60.591213 
L 194.810784 60.020833 
L 194.449655 60.02158 
L 194.088527 63.190808 
L 193.727398 63.442336 
L 193.36627 61.161699 
L 193.005141 62.744758 
L 192.644013 62.080033 
L 192.282884 65.376273 
L 191.921755 61.00327 
L 191.560627 66.767264 
L 191.199498 62.996351 
L 190.83837 64.930336 
L 190.477241 64.451239 
L 190.116113 64.326151 
L 189.754984 65.743647 
L 189.393856 68.881522 
L 189.032727 69.311731 
L 188.671599 65.964566 
L 187.949342 69.459083 
L 187.588213 70.23566 
L 187.227085 68.658814 
L 186.865956 72.698202 
L 186.504828 69.673306 
L 185.782571 73.064272 
L 185.421442 70.840079 
L 185.060313 71.158275 
L 184.699185 73.654385 
L 184.338056 74.705212 
L 183.615799 71.602699 
L 183.254671 75.415131 
L 182.893542 74.215439 
L 182.532414 75.119824 
L 182.171285 71.268612 
L 181.810157 75.423236 
L 181.449028 76.907618 
L 180.726771 74.465693 
L 180.365643 75.967155 
L 180.004514 82.397984 
L 179.643386 78.355652 
L 179.282257 79.209805 
L 178.921129 78.81576 
L 178.56 83.800431 
L 178.198871 81.372781 
L 177.837743 82.760736 
L 177.476614 81.316526 
L 177.115486 82.88668 
L 176.754357 83.423175 
L 176.393229 83.573294 
L 176.0321 80.062308 
L 175.670972 85.024223 
L 175.309843 86.80345 
L 174.948715 87.318306 
L 174.587586 83.79702 
L 174.226458 86.833473 
L 173.865329 86.118144 
L 173.504201 86.70554 
L 173.143072 91.009651 
L 172.781944 84.01689 
L 172.420815 89.3606 
L 172.059687 85.097532 
L 171.698558 88.279712 
L 171.337429 84.406272 
L 170.976301 92.31589 
L 170.615172 89.283531 
L 170.254044 91.387538 
L 169.892915 88.132711 
L 169.531787 88.807041 
L 169.170658 91.663194 
L 168.80953 87.886797 
L 168.448401 93.024261 
L 168.087273 88.422723 
L 167.726144 95.482088 
L 167.365016 88.077211 
L 167.003887 93.828322 
L 166.642759 87.787185 
L 166.28163 95.234178 
L 165.920502 92.053173 
L 165.559373 93.559088 
L 165.198245 87.480437 
L 164.837116 94.238214 
L 164.475987 91.381457 
L 164.114859 94.351764 
L 163.75373 92.686427 
L 163.031473 95.685102 
L 162.670345 91.053582 
L 162.309216 97.998463 
L 161.586959 94.749347 
L 161.225831 96.312008 
L 160.864702 97.365971 
L 160.503574 92.974774 
L 160.142445 96.073435 
L 159.781317 97.144575 
L 159.420188 100.605844 
L 159.05906 95.325013 
L 158.697931 96.948492 
L 158.336803 92.701404 
L 157.975674 95.922563 
L 157.614545 95.225195 
L 157.253417 100.848267 
L 156.892288 93.270098 
L 156.53116 98.33025 
L 156.170031 94.148339 
L 155.808903 97.52936 
L 155.447774 97.985058 
L 155.086646 95.686415 
L 154.725517 98.713986 
L 154.364389 96.097064 
L 154.00326 96.003782 
L 153.642132 95.437303 
L 153.281003 97.005306 
L 152.919875 99.140217 
L 152.558746 98.496748 
L 152.197618 97.557028 
L 151.836489 102.478033 
L 151.475361 98.228585 
L 151.114232 95.97433 
L 150.391975 102.673232 
L 150.030846 98.157107 
L 149.669718 102.500212 
L 149.308589 98.64833 
L 148.947461 99.043518 
L 148.586332 98.622928 
L 148.225204 101.661442 
L 147.864075 99.116218 
L 147.502947 98.522326 
L 147.141818 102.090576 
L 146.78069 102.164154 
L 146.419561 100.655859 
L 146.058433 99.959963 
L 145.697304 99.736483 
L 145.336176 102.128883 
L 144.975047 101.586836 
L 144.613918 98.211552 
L 144.25279 96.881661 
L 143.891661 99.261768 
L 143.530533 99.562618 
L 143.169404 99.361584 
L 142.808276 97.07131 
L 142.447147 99.638456 
L 142.086019 103.370356 
L 141.72489 97.493528 
L 141.363762 101.355613 
L 141.002633 99.689258 
L 140.641505 106.25371 
L 140.280376 96.301812 
L 139.919248 99.209079 
L 139.558119 98.500307 
L 139.196991 102.550855 
L 138.835862 99.132552 
L 138.474734 98.06762 
L 138.113605 100.019153 
L 137.752476 100.625929 
L 137.391348 102.603228 
L 137.030219 97.001673 
L 136.669091 99.537977 
L 136.307962 96.574318 
L 135.946834 101.997563 
L 135.585705 100.146954 
L 135.224577 101.694311 
L 134.863448 99.689873 
L 134.50232 101.112187 
L 134.141191 98.676188 
L 133.780063 101.312413 
L 133.418934 97.005457 
L 133.057806 96.798618 
L 132.696677 102.350641 
L 132.335549 96.599943 
L 131.97442 100.348563 
L 131.613292 96.019832 
L 131.252163 99.360819 
L 130.891034 98.222431 
L 130.529906 97.99452 
L 130.168777 100.372457 
L 129.807649 100.221164 
L 129.44652 101.330553 
L 129.085392 98.780021 
L 128.724263 94.942705 
L 128.363135 100.296218 
L 128.002006 98.705783 
L 127.640878 100.244665 
L 127.279749 99.185133 
L 126.918621 98.556774 
L 126.557492 97.07131 
L 126.196364 96.897225 
L 125.835235 100.392837 
L 125.474107 100.341411 
L 125.112978 100.090357 
L 124.75185 100.240095 
L 124.390721 96.827009 
L 124.029592 95.502577 
L 123.668464 95.97489 
L 123.307335 99.863135 
L 122.946207 96.203672 
L 122.585078 94.211458 
L 122.22395 99.437182 
L 121.862821 99.437295 
L 121.501693 97.886672 
L 121.140564 93.214326 
L 120.779436 100.837021 
L 120.418307 97.467158 
L 120.057179 103.507446 
L 119.69605 97.767221 
L 119.334922 96.891434 
L 118.973793 97.592809 
L 118.612665 98.914441 
L 118.251536 93.45378 
L 117.890408 97.322703 
L 117.529279 90.584777 
L 117.16815 94.442091 
L 116.807022 96.377038 
L 116.445893 99.462451 
L 116.084765 94.594148 
L 115.723636 97.798645 
L 115.362508 97.599879 
L 115.001379 90.431432 
L 114.640251 94.948238 
L 114.279122 97.08228 
L 113.917994 97.405753 
L 113.556865 90.848647 
L 113.195737 97.555591 
L 112.834608 93.793947 
L 112.47348 98.078616 
L 112.112351 91.15564 
L 111.751223 95.603215 
L 111.390094 92.954489 
L 111.028966 96.670694 
L 110.667837 97.559895 
L 110.306708 95.583892 
L 109.94558 94.871267 
L 109.584451 93.663606 
L 109.223323 96.087281 
L 108.501066 92.015953 
L 108.139937 91.77315 
L 107.778809 98.847667 
L 107.41768 88.609257 
L 107.056552 93.655649 
L 106.695423 90.84883 
L 106.334295 98.283543 
L 105.973166 91.243479 
L 105.612038 92.871746 
L 105.250909 95.977943 
L 104.889781 96.447685 
L 104.167524 89.289044 
L 103.806395 89.347546 
L 103.445266 89.918478 
L 103.084138 89.471582 
L 102.723009 89.507748 
L 102.361881 95.381533 
L 102.000752 91.410818 
L 101.639624 95.424277 
L 101.278495 88.005021 
L 100.917367 85.408916 
L 100.556238 86.420078 
L 100.19511 88.57171 
L 99.833981 88.986198 
L 99.472853 88.401322 
L 99.111724 82.86063 
L 98.389467 91.404873 
L 98.028339 86.784368 
L 97.66721 90.227431 
L 97.306082 85.094277 
L 96.944953 94.798759 
L 96.583824 87.306554 
L 96.222696 85.449685 
L 95.861567 86.655936 
L 95.500439 77.095272 
L 95.13931 86.245565 
L 94.778182 82.683867 
L 94.417053 88.436852 
L 94.055925 83.139747 
L 93.694796 83.090786 
L 93.333668 82.592376 
L 92.972539 78.260156 
L 92.611411 87.570003 
L 92.250282 92.732753 
L 91.889154 82.997083 
L 91.528025 79.509952 
L 91.166897 87.993939 
L 90.805768 78.383033 
L 90.444639 84.732552 
L 90.083511 81.18491 
L 89.361254 84.527532 
L 89.000125 83.866482 
L 88.638997 79.649401 
L 88.277868 79.598202 
L 87.91674 78.250938 
L 87.555611 81.402842 
L 87.194483 78.411063 
L 86.833354 84.724389 
L 86.472226 74.78386 
L 86.111097 86.290825 
L 85.749969 78.009538 
L 85.38884 81.390688 
L 85.027712 77.650083 
L 84.666583 82.248559 
L 84.305455 83.434725 
L 83.944326 79.215377 
L 83.583197 79.188516 
L 83.222069 76.477518 
L 82.86094 81.530254 
L 82.138683 65.392959 
L 81.777555 73.539557 
L 81.416426 72.857908 
L 81.055298 71.250692 
L 80.333041 77.518807 
L 79.971912 66.189644 
L 79.610784 72.988474 
L 79.249655 71.770788 
L 78.888527 71.290342 
L 78.527398 68.427704 
L 78.16627 72.763246 
L 77.805141 64.80293 
L 77.444013 73.996368 
L 77.082884 68.183301 
L 76.721755 71.918965 
L 76.360627 62.057478 
L 75.999498 58.390072 
L 75.63837 56.857249 
L 75.277241 62.24487 
L 74.916113 55.265082 
L 74.554984 63.257282 
L 73.832727 53.568 
L 73.832727 53.568 
" clip-path="url(#p553518328a)" style="fill: none; stroke: #ff7f0e; stroke-width: 1.5; stroke-linecap: round"/>
   </g>
   <g id="line2d_27">
    <path d="M 200.58884 307.584 
L 200.58884 41.472 
" clip-path="url(#p553518328a)" style="fill: none; stroke: #000000; stroke-width: 1.5; stroke-linecap: round"/>
   </g>
   <g id="line2d_28">
    <path d="M 243.202006 307.584 
L 243.202006 41.472 
" clip-path="url(#p553518328a)" style="fill: none; stroke: #000000; stroke-width: 1.5; stroke-linecap: round"/>
   </g>
   <g id="patch_3">
    <path d="M 57.6 307.584 
L 57.6 41.472 
" style="fill: none"/>
   </g>
   <g id="patch_4">
    <path d="M 414.72 307.584 
L 414.72 41.472 
" style="fill: none"/>
   </g>
   <g id="patch_5">
    <path d="M 57.6 307.584 
L 414.72 307.584 
" style="fill: none"/>
   </g>
   <g id="patch_6">
    <path d="M 57.6 41.472 
L 414.72 41.472 
" style="fill: none"/>
   </g>
   <g id="text_15">
    <!-- Comparison of Absorption Spectra -->
    <g style="fill: #262626" transform="translate(147.164107 35.472) scale(0.12 -0.12)">
     <defs>
      <path id="CMR17-43" d="M 3974 4351 
C 3974 4467 3968 4473 3930 4473 
C 3904 4473 3898 4467 3853 4390 
L 3571 3849 
C 3258 4249 2874 4480 2381 4480 
C 1286 4480 294 3507 294 2179 
C 294 837 1286 -128 2387 -128 
C 3366 -128 3974 741 3974 1482 
C 3974 1547 3974 1573 3917 1573 
C 3866 1573 3866 1553 3859 1495 
C 3808 592 3168 38 2477 38 
C 1824 38 781 502 781 2179 
C 781 3862 1843 4313 2464 4313 
C 3187 4313 3712 3681 3834 2785 
C 3846 2707 3846 2695 3904 2695 
C 3974 2695 3974 2707 3974 2824 
L 3974 4351 
z
" transform="scale(0.015625)"/>
      <path id="CMR17-70" d="M 1408 -1114 
C 998 -1114 973 -1088 973 -834 
L 973 380 
C 1158 109 1427 -64 1766 -64 
C 2406 -64 3053 503 3053 1382 
C 3053 2196 2496 2816 1837 2816 
C 1453 2816 1139 2603 960 2345 
L 960 2816 
L 198 2745 
L 198 2577 
C 576 2577 634 2539 634 2228 
L 634 -834 
C 634 -1081 608 -1114 198 -1114 
L 198 -1280 
C 352 -1268 634 -1268 800 -1268 
C 966 -1268 1254 -1268 1408 -1280 
L 1408 -1114 
z
M 973 2015 
C 973 2106 973 2241 1222 2481 
C 1254 2506 1472 2700 1792 2700 
C 2259 2700 2643 2112 2643 1376 
C 2643 639 2234 38 1728 38 
C 1498 38 1248 148 1056 451 
C 973 594 973 632 973 736 
L 973 2015 
z
" transform="scale(0.015625)"/>
      <path id="CMR17-69" d="M 992 3961 
C 992 4102 877 4224 730 4224 
C 589 4224 467 4108 467 3961 
C 467 3820 582 3699 730 3699 
C 870 3699 992 3814 992 3961 
z
M 243 2745 
L 243 2579 
C 602 2579 653 2540 653 2231 
L 653 443 
C 653 198 627 166 218 166 
L 218 0 
C 371 12 646 12 806 12 
C 960 12 1222 12 1370 0 
L 1370 166 
C 992 166 979 205 979 436 
L 979 2816 
L 243 2745 
z
" transform="scale(0.015625)"/>
      <path id="CMR17-66" d="M 979 2585 
L 1709 2585 
L 1709 2752 
L 966 2752 
L 966 3539 
C 966 4076 1235 4377 1510 4377 
C 1594 4377 1690 4363 1754 4339 
C 1702 4326 1568 4281 1568 4121 
C 1568 3955 1696 3904 1786 3904 
C 1875 3904 2003 3955 2003 4121 
C 2003 4353 1773 4480 1517 4480 
C 1152 4480 653 4211 653 3526 
L 653 2752 
L 141 2752 
L 141 2585 
L 653 2585 
L 653 441 
C 653 198 627 166 218 166 
L 218 0 
C 371 12 666 12 832 12 
C 1018 12 1344 12 1517 0 
L 1517 166 
C 1056 166 979 166 979 454 
L 979 2585 
z
" transform="scale(0.015625)"/>
      <path id="CMR17-74" d="M 966 2585 
L 1862 2585 
L 1862 2752 
L 966 2752 
L 966 3968 
L 851 3968 
C 838 3292 614 2700 70 2687 
L 70 2585 
L 627 2585 
L 627 778 
C 627 655 627 -64 1370 -64 
C 1747 -64 1965 308 1965 784 
L 1965 1151 
L 1850 1151 
L 1850 790 
C 1850 347 1677 51 1408 51 
C 1222 51 966 179 966 765 
L 966 2585 
z
" transform="scale(0.015625)"/>
      <path id="CMR17-53" d="M 2803 4351 
C 2803 4467 2797 4473 2758 4473 
C 2720 4473 2707 4447 2682 4390 
L 2490 3965 
C 2246 4320 1875 4480 1472 4480 
C 819 4480 294 3958 294 3301 
C 294 3101 339 2817 557 2546 
C 794 2250 1018 2198 1530 2063 
C 1722 2011 2042 1927 2106 1901 
C 2470 1747 2662 1360 2662 999 
C 2662 534 2336 38 1779 38 
C 1094 38 454 425 410 1328 
C 403 1431 397 1437 352 1437 
C 301 1437 294 1431 294 1302 
L 294 0 
C 294 -116 301 -122 339 -122 
C 384 -122 397 -90 486 109 
C 493 128 493 141 614 386 
C 934 -39 1472 -128 1779 -128 
C 2477 -128 2970 457 2970 1141 
C 2970 1476 2848 1734 2778 1850 
C 2509 2263 2221 2340 1914 2417 
C 1869 2437 1856 2437 1498 2527 
C 1152 2617 1005 2662 845 2836 
C 666 3036 602 3243 602 3449 
C 602 3868 934 4326 1478 4326 
C 2157 4326 2579 3842 2675 3036 
C 2694 2920 2701 2914 2746 2914 
C 2803 2914 2803 2933 2803 3043 
L 2803 4351 
z
" transform="scale(0.015625)"/>
     </defs>
     <use xlink:href="#CMR17-43" transform="scale(0.996264)"/>
     <use xlink:href="#CMR17-6f" transform="translate(66.509881 0) scale(0.996264)"/>
     <use xlink:href="#CMR17-6d" transform="translate(112.200358 0) scale(0.996264)"/>
     <use xlink:href="#CMR17-70" transform="translate(189.119948 0) scale(0.996264)"/>
     <use xlink:href="#CMR17-61" transform="translate(240.015317 0) scale(0.996264)"/>
     <use xlink:href="#CMR17-72" transform="translate(285.705794 0) scale(0.996264)"/>
     <use xlink:href="#CMR17-69" transform="translate(320.986562 0) scale(0.996264)"/>
     <use xlink:href="#CMR17-73" transform="translate(345.857621 0) scale(0.996264)"/>
     <use xlink:href="#CMR17-6f" transform="translate(381.658958 0) scale(0.996264)"/>
     <use xlink:href="#CMR17-6e" transform="translate(427.349435 0) scale(0.996264)"/>
     <use xlink:href="#CMR17-6f" transform="translate(508.320772 0) scale(0.996264)"/>
     <use xlink:href="#CMR17-66" transform="translate(554.011249 0) scale(0.996264)"/>
     <use xlink:href="#CMR17-41" transform="translate(611.560727 0) scale(0.996264)"/>
     <use xlink:href="#CMR17-62" transform="translate(680.633157 0) scale(0.996264)"/>
     <use xlink:href="#CMR17-73" transform="translate(731.528527 0) scale(0.996264)"/>
     <use xlink:href="#CMR17-6f" transform="translate(767.329865 0) scale(0.996264)"/>
     <use xlink:href="#CMR17-72" transform="translate(813.020342 0) scale(0.996264)"/>
     <use xlink:href="#CMR17-70" transform="translate(848.30111 0) scale(0.996264)"/>
     <use xlink:href="#CMR17-74" transform="translate(899.196479 0) scale(0.996264)"/>
     <use xlink:href="#CMR17-69" transform="translate(934.477247 0) scale(0.996264)"/>
     <use xlink:href="#CMR17-6f" transform="translate(959.348306 0) scale(0.996264)"/>
     <use xlink:href="#CMR17-6e" transform="translate(1005.038783 0) scale(0.996264)"/>
     <use xlink:href="#CMR17-53" transform="translate(1086.010119 0) scale(0.996264)"/>
     <use xlink:href="#CMR17-70" transform="translate(1136.905489 0) scale(0.996264)"/>
     <use xlink:href="#CMR17-65" transform="translate(1190.403297 0) scale(0.996264)"/>
     <use xlink:href="#CMR17-63" transform="translate(1230.888958 0) scale(0.996264)"/>
     <use xlink:href="#CMR17-74" transform="translate(1271.374618 0) scale(0.996264)"/>
     <use xlink:href="#CMR17-72" transform="translate(1306.655386 0) scale(0.996264)"/>
     <use xlink:href="#CMR17-61" transform="translate(1341.936154 0) scale(0.996264)"/>
    </g>
   </g>
   <g id="legend_1">
    <g id="line2d_29">
     <path d="M 302.308184 59.978776 
L 312.308184 59.978776 
L 322.308184 59.978776 
" style="fill: none; stroke: #1f77b4; stroke-width: 1.5; stroke-linecap: round"/>
    </g>
    <g id="text_16">
     <!-- Pre Annhealing -->
     <g style="fill: #262626" transform="translate(330.308184 57.390498) scale(0.1 -0.1)">
      <defs>
       <path id="CMR17-50" d="M 1267 2048 
L 2291 2048 
C 3117 2048 3718 2583 3718 3187 
C 3718 3791 3130 4352 2291 4352 
L 333 4352 
L 333 4185 
C 774 4185 845 4185 845 3899 
L 845 453 
C 845 166 774 166 333 166 
L 333 0 
C 518 12 858 12 1056 12 
C 1254 12 1594 12 1779 0 
L 1779 166 
C 1338 166 1267 166 1267 453 
L 1267 2048 
z
M 1254 2182 
L 1254 3937 
C 1254 4153 1267 4185 1523 4185 
L 2170 4185 
C 2995 4185 3232 3715 3232 3187 
C 3232 2608 2950 2182 2170 2182 
L 1254 2182 
z
" transform="scale(0.015625)"/>
       <path id="CMR17-68" d="M 2656 1954 
C 2656 2282 2592 2816 1837 2816 
C 1312 2816 1056 2392 979 2179 
L 973 2179 
L 973 4416 
L 211 4345 
L 211 4179 
C 589 4179 646 4141 646 3843 
L 646 443 
C 646 198 621 166 211 166 
L 211 0 
C 365 12 646 12 813 12 
C 979 12 1267 12 1421 0 
L 1421 166 
C 1011 166 986 192 986 443 
L 986 1678 
C 986 2269 1344 2713 1792 2713 
C 2266 2713 2317 2289 2317 1980 
L 2317 443 
C 2317 198 2291 166 1882 166 
L 1882 0 
C 2035 12 2317 12 2483 12 
C 2650 12 2938 12 3091 0 
L 3091 166 
C 2682 166 2656 192 2656 443 
L 2656 1954 
z
" transform="scale(0.015625)"/>
       <path id="CMR17-6c" d="M 979 4416 
L 218 4345 
L 218 4179 
C 595 4179 653 4141 653 3835 
L 653 439 
C 653 198 627 166 218 166 
L 218 0 
C 371 12 653 12 813 12 
C 979 12 1261 12 1414 0 
L 1414 166 
C 1005 166 979 191 979 439 
L 979 4416 
z
" transform="scale(0.015625)"/>
       <path id="CMR17-67" d="M 710 1165 
C 832 1068 1043 960 1299 960 
C 1805 960 2240 1359 2240 1895 
C 2240 2063 2189 2321 1997 2521 
C 2176 2713 2438 2777 2586 2777 
C 2611 2777 2650 2777 2682 2758 
C 2656 2751 2598 2726 2598 2623 
C 2598 2540 2656 2483 2739 2483 
C 2835 2483 2886 2547 2886 2630 
C 2886 2751 2790 2880 2586 2880 
C 2330 2880 2106 2758 1926 2591 
C 1734 2764 1504 2828 1299 2828 
C 794 2828 358 2431 358 1895 
C 358 1527 570 1294 634 1230 
C 442 1004 442 742 442 710 
C 442 544 506 300 723 166 
C 390 82 128 -184 128 -517 
C 128 -996 736 -1344 1466 -1344 
C 2170 -1344 2803 -1009 2803 -510 
C 2803 384 1856 384 1363 384 
C 1216 384 954 384 922 390 
C 723 422 589 601 589 825 
C 589 883 589 1024 710 1165 
z
M 1299 1068 
C 736 1068 736 1766 736 1895 
C 736 2024 736 2719 1299 2719 
C 1862 2719 1862 2024 1862 1895 
C 1862 1766 1862 1068 1299 1068 
z
M 1466 -1236 
C 826 -1236 384 -883 384 -517 
C 384 -311 493 -118 634 -11 
C 794 102 858 102 1293 102 
C 1818 102 2547 102 2547 -517 
C 2547 -883 2106 -1236 1466 -1236 
z
" transform="scale(0.015625)"/>
      </defs>
      <use xlink:href="#CMR17-50" transform="scale(0.996264)"/>
      <use xlink:href="#CMR17-72" transform="translate(62.586301 0) scale(0.996264)"/>
      <use xlink:href="#CMR17-65" transform="translate(97.867068 0) scale(0.996264)"/>
      <use xlink:href="#CMR17-41" transform="translate(168.428695 0) scale(0.996264)"/>
      <use xlink:href="#CMR17-6e" transform="translate(237.501125 0) scale(0.996264)"/>
      <use xlink:href="#CMR17-6e" transform="translate(288.396495 0) scale(0.996264)"/>
      <use xlink:href="#CMR17-68" transform="translate(339.291864 0) scale(0.996264)"/>
      <use xlink:href="#CMR17-65" transform="translate(390.187234 0) scale(0.996264)"/>
      <use xlink:href="#CMR17-61" transform="translate(430.672895 0) scale(0.996264)"/>
      <use xlink:href="#CMR17-6c" transform="translate(476.363372 0) scale(0.996264)"/>
      <use xlink:href="#CMR17-69" transform="translate(501.23443 0) scale(0.996264)"/>
      <use xlink:href="#CMR17-6e" transform="translate(526.105489 0) scale(0.996264)"/>
      <use xlink:href="#CMR17-67" transform="translate(577.000859 0) scale(0.996264)"/>
     </g>
     <!-- Peak = 584.5 nm -->
     <g style="fill: #262626" transform="translate(330.308184 67.629875) scale(0.1 -0.1)">
      <defs>
       <path id="CMR17-6b" d="M 1670 1679 
C 1664 1692 1632 1730 1632 1749 
C 1632 1762 2086 2175 2144 2226 
C 2509 2532 2739 2563 2906 2570 
L 2906 2735 
C 2867 2735 2854 2735 2848 2729 
L 2534 2722 
C 2355 2722 2080 2722 1907 2735 
L 1907 2570 
C 1997 2563 2061 2513 2061 2423 
C 2061 2296 1933 2175 1926 2175 
L 960 1298 
L 960 4416 
L 198 4345 
L 198 4179 
C 576 4179 634 4141 634 3835 
L 634 439 
C 634 198 608 166 198 166 
L 198 0 
C 352 12 634 12 794 12 
C 954 12 1235 12 1389 0 
L 1389 166 
C 979 166 954 191 954 439 
L 954 1139 
L 1395 1540 
L 2042 586 
C 2118 471 2182 382 2182 299 
C 2182 185 2067 166 1990 166 
L 1990 0 
C 2144 12 2419 12 2579 12 
C 2694 12 2931 6 3040 0 
L 3040 166 
C 2739 166 2669 223 2477 503 
L 1670 1679 
z
" transform="scale(0.015625)"/>
       <path id="CMR17-3d" d="M 4115 2048 
C 4211 2048 4307 2048 4307 2156 
C 4307 2272 4198 2272 4090 2272 
L 512 2272 
C 403 2272 294 2272 294 2156 
C 294 2048 390 2048 486 2048 
L 4115 2048 
z
M 4090 927 
C 4198 927 4307 927 4307 1043 
C 4307 1152 4211 1152 4115 1152 
L 486 1152 
C 390 1152 294 1152 294 1043 
C 294 927 403 927 512 927 
L 4090 927 
z
" transform="scale(0.015625)"/>
       <path id="CMR17-2e" d="M 1062 262 
C 1062 422 934 524 800 524 
C 672 524 538 422 538 262 
C 538 102 666 0 800 0 
C 928 0 1062 102 1062 262 
z
" transform="scale(0.015625)"/>
      </defs>
      <use xlink:href="#CMR17-50" transform="scale(0.996264)"/>
      <use xlink:href="#CMR17-65" transform="translate(59.983847 0) scale(0.996264)"/>
      <use xlink:href="#CMR17-61" transform="translate(100.469507 0) scale(0.996264)"/>
      <use xlink:href="#CMR17-6b" transform="translate(146.159984 0) scale(0.996264)"/>
      <use xlink:href="#CMR17-3d" transform="translate(224.528866 0) scale(0.996264)"/>
      <use xlink:href="#CMR17-35" transform="translate(326.319621 0) scale(0.996264)"/>
      <use xlink:href="#CMR17-38" transform="translate(372.010098 0) scale(0.996264)"/>
      <use xlink:href="#CMR17-34" transform="translate(417.700575 0) scale(0.996264)"/>
      <use xlink:href="#CMR17-2e" transform="translate(463.391052 0) scale(0.996264)"/>
      <use xlink:href="#CMR17-35" transform="translate(488.262111 0) scale(0.996264)"/>
      <use xlink:href="#CMR17-6e" transform="translate(564.028554 0) scale(0.996264)"/>
      <use xlink:href="#CMR17-6d" transform="translate(614.923924 0) scale(0.996264)"/>
     </g>
    </g>
    <g id="line2d_30">
     <path d="M 302.308184 84.073829 
L 312.308184 84.073829 
L 322.308184 84.073829 
" style="fill: none; stroke: #ff7f0e; stroke-width: 1.5; stroke-linecap: round"/>
    </g>
    <g id="text_17">
     <!-- Post Annhealing -->
     <g style="fill: #262626" transform="translate(330.308184 81.485551) scale(0.1 -0.1)">
      <use xlink:href="#CMR17-50" transform="scale(0.996264)"/>
      <use xlink:href="#CMR17-6f" transform="translate(59.983847 0) scale(0.996264)"/>
      <use xlink:href="#CMR17-73" transform="translate(105.674324 0) scale(0.996264)"/>
      <use xlink:href="#CMR17-74" transform="translate(141.475661 0) scale(0.996264)"/>
      <use xlink:href="#CMR17-41" transform="translate(206.832395 0) scale(0.996264)"/>
      <use xlink:href="#CMR17-6e" transform="translate(275.904825 0) scale(0.996264)"/>
      <use xlink:href="#CMR17-6e" transform="translate(326.800195 0) scale(0.996264)"/>
      <use xlink:href="#CMR17-68" transform="translate(377.695565 0) scale(0.996264)"/>
      <use xlink:href="#CMR17-65" transform="translate(428.590935 0) scale(0.996264)"/>
      <use xlink:href="#CMR17-61" transform="translate(469.076595 0) scale(0.996264)"/>
      <use xlink:href="#CMR17-6c" transform="translate(514.767072 0) scale(0.996264)"/>
      <use xlink:href="#CMR17-69" transform="translate(539.638131 0) scale(0.996264)"/>
      <use xlink:href="#CMR17-6e" transform="translate(564.509189 0) scale(0.996264)"/>
      <use xlink:href="#CMR17-67" transform="translate(615.404559 0) scale(0.996264)"/>
     </g>
     <!-- Peak = 525.5 nm -->
     <g style="fill: #262626" transform="translate(330.308184 91.724928) scale(0.1 -0.1)">
      <use xlink:href="#CMR17-50" transform="scale(0.996264)"/>
      <use xlink:href="#CMR17-65" transform="translate(59.983847 0) scale(0.996264)"/>
      <use xlink:href="#CMR17-61" transform="translate(100.469507 0) scale(0.996264)"/>
      <use xlink:href="#CMR17-6b" transform="translate(146.159984 0) scale(0.996264)"/>
      <use xlink:href="#CMR17-3d" transform="translate(224.528866 0) scale(0.996264)"/>
      <use xlink:href="#CMR17-35" transform="translate(326.319621 0) scale(0.996264)"/>
      <use xlink:href="#CMR17-32" transform="translate(372.010098 0) scale(0.996264)"/>
      <use xlink:href="#CMR17-35" transform="translate(417.700575 0) scale(0.996264)"/>
      <use xlink:href="#CMR17-2e" transform="translate(463.391052 0) scale(0.996264)"/>
      <use xlink:href="#CMR17-35" transform="translate(488.262111 0) scale(0.996264)"/>
      <use xlink:href="#CMR17-6e" transform="translate(564.028554 0) scale(0.996264)"/>
      <use xlink:href="#CMR17-6d" transform="translate(614.923924 0) scale(0.996264)"/>
     </g>
    </g>
   </g>
  </g>
 </g>
 <defs>
  <clipPath id="p553518328a">
   <rect x="57.6" y="41.472" width="357.12" height="266.112"/>
  </clipPath>
 </defs>
</svg>
