<?xml version="1.0" encoding="utf-8" standalone="no"?>
<!DOCTYPE svg PUBLIC "-//W3C//DTD SVG 1.1//EN"
  "http://www.w3.org/Graphics/SVG/1.1/DTD/svg11.dtd">
<svg xmlns:xlink="http://www.w3.org/1999/xlink" width="460.8pt" height="345.6pt" viewBox="0 0 460.8 345.6" xmlns="http://www.w3.org/2000/svg" version="1.1">
 <metadata>
  <rdf:RDF xmlns:dc="http://purl.org/dc/elements/1.1/" xmlns:cc="http://creativecommons.org/ns#" xmlns:rdf="http://www.w3.org/1999/02/22-rdf-syntax-ns#">
   <cc:Work>
    <dc:type rdf:resource="http://purl.org/dc/dcmitype/StillImage"/>
    <dc:date>2023-06-29T16:43:07.565303</dc:date>
    <dc:format>image/svg+xml</dc:format>
    <dc:creator>
     <cc:Agent>
      <dc:title>Matplotlib v3.7.1, https://matplotlib.org/</dc:title>
     </cc:Agent>
    </dc:creator>
   </cc:Work>
  </rdf:RDF>
 </metadata>
 <defs>
  <style type="text/css">*{stroke-linejoin: round; stroke-linecap: butt}</style>
 </defs>
 <g id="figure_1">
  <g id="patch_1">
   <path d="M 0 345.6 
L 460.8 345.6 
L 460.8 0 
L 0 0 
z
" style="fill: #ffffff"/>
  </g>
  <g id="axes_1">
   <g id="patch_2">
    <path d="M 39.885756 308.481683 
L 450 308.481683 
L 450 25.10218 
L 39.885756 25.10218 
z
" style="fill: #eaeaf2"/>
   </g>
   <g id="matplotlib.axis_1">
    <g id="xtick_1">
     <g id="line2d_1">
      <path d="M 99.999073 308.481683 
L 99.999073 25.10218 
" clip-path="url(#pc08358c05a)" style="fill: none; stroke: #ffffff; stroke-width: 0.8; stroke-linecap: round"/>
     </g>
     <g id="line2d_2"/>
     <g id="text_1">
      <!-- $\mathdefault{400}$ -->
      <g style="fill: #262626" transform="translate(92.52707 318.900182) scale(0.1 -0.1)">
       <defs>
        <path id="CMR17-34" d="M 2150 4147 
C 2150 4281 2144 4288 2029 4288 
L 128 1254 
L 128 1088 
L 1779 1088 
L 1779 460 
C 1779 230 1766 166 1318 166 
L 1197 166 
L 1197 0 
C 1402 12 1747 12 1965 12 
C 2182 12 2528 12 2733 0 
L 2733 166 
L 2611 166 
C 2163 166 2150 230 2150 460 
L 2150 1088 
L 2803 1088 
L 2803 1254 
L 2150 1254 
L 2150 4147 
z
M 1798 3723 
L 1798 1254 
L 256 1254 
L 1798 3723 
z
" transform="scale(0.015625)"/>
        <path id="CMR17-30" d="M 2688 2038 
C 2688 2430 2682 3099 2413 3613 
C 2176 4063 1798 4224 1466 4224 
C 1158 4224 768 4082 525 3620 
C 269 3137 243 2539 243 2038 
C 243 1671 250 1112 448 623 
C 723 -39 1216 -128 1466 -128 
C 1760 -128 2208 -7 2470 604 
C 2662 1048 2688 1568 2688 2038 
z
M 1466 -26 
C 1056 -26 813 328 723 816 
C 653 1196 653 1749 653 2109 
C 653 2604 653 3015 736 3407 
C 858 3954 1216 4121 1466 4121 
C 1728 4121 2067 3947 2189 3420 
C 2272 3054 2278 2623 2278 2109 
C 2278 1691 2278 1176 2202 797 
C 2067 96 1690 -26 1466 -26 
z
" transform="scale(0.015625)"/>
       </defs>
       <use xlink:href="#CMR17-34" transform="scale(0.996264)"/>
       <use xlink:href="#CMR17-30" transform="translate(45.690477 0) scale(0.996264)"/>
       <use xlink:href="#CMR17-30" transform="translate(91.380954 0) scale(0.996264)"/>
      </g>
     </g>
    </g>
    <g id="xtick_2">
     <g id="line2d_3">
      <path d="M 182.942595 308.481683 
L 182.942595 25.10218 
" clip-path="url(#pc08358c05a)" style="fill: none; stroke: #ffffff; stroke-width: 0.8; stroke-linecap: round"/>
     </g>
     <g id="line2d_4"/>
     <g id="text_2">
      <!-- $\mathdefault{500}$ -->
      <g style="fill: #262626" transform="translate(175.470592 318.900182) scale(0.1 -0.1)">
       <defs>
        <path id="CMR17-35" d="M 730 3750 
C 794 3724 1056 3641 1325 3641 
C 1920 3641 2246 3961 2432 4140 
C 2432 4191 2432 4224 2394 4224 
C 2387 4224 2374 4224 2323 4198 
C 2099 4102 1837 4032 1517 4032 
C 1325 4032 1037 4055 723 4191 
C 653 4224 640 4224 634 4224 
C 602 4224 595 4217 595 4090 
L 595 2231 
C 595 2113 595 2080 659 2080 
C 691 2080 704 2093 736 2139 
C 941 2435 1222 2560 1542 2560 
C 1766 2560 2246 2415 2246 1293 
C 2246 1087 2246 716 2054 422 
C 1894 159 1645 25 1370 25 
C 947 25 518 319 403 812 
C 429 806 480 793 506 793 
C 589 793 749 838 749 1036 
C 749 1209 627 1280 506 1280 
C 358 1280 262 1190 262 1011 
C 262 454 704 -128 1382 -128 
C 2042 -128 2669 441 2669 1267 
C 2669 2054 2170 2662 1549 2662 
C 1222 2662 947 2540 730 2304 
L 730 3750 
z
" transform="scale(0.015625)"/>
       </defs>
       <use xlink:href="#CMR17-35" transform="scale(0.996264)"/>
       <use xlink:href="#CMR17-30" transform="translate(45.690477 0) scale(0.996264)"/>
       <use xlink:href="#CMR17-30" transform="translate(91.380954 0) scale(0.996264)"/>
      </g>
     </g>
    </g>
    <g id="xtick_3">
     <g id="line2d_5">
      <path d="M 265.886117 308.481683 
L 265.886117 25.10218 
" clip-path="url(#pc08358c05a)" style="fill: none; stroke: #ffffff; stroke-width: 0.8; stroke-linecap: round"/>
     </g>
     <g id="line2d_6"/>
     <g id="text_3">
      <!-- $\mathdefault{600}$ -->
      <g style="fill: #262626" transform="translate(258.414114 318.900182) scale(0.1 -0.1)">
       <defs>
        <path id="CMR17-36" d="M 678 2198 
C 678 3712 1395 4076 1811 4076 
C 1946 4076 2272 4049 2400 3782 
C 2298 3782 2106 3782 2106 3558 
C 2106 3385 2246 3328 2336 3328 
C 2394 3328 2566 3353 2566 3571 
C 2566 3987 2246 4224 1805 4224 
C 1043 4224 243 3411 243 2011 
C 243 257 966 -128 1478 -128 
C 2099 -128 2688 431 2688 1295 
C 2688 2101 2170 2688 1517 2688 
C 1126 2688 838 2430 678 1979 
L 678 2198 
z
M 1478 25 
C 691 25 691 1212 691 1450 
C 691 1914 909 2585 1504 2585 
C 1613 2585 1926 2585 2138 2140 
C 2253 1889 2253 1624 2253 1302 
C 2253 954 2253 696 2118 438 
C 1978 173 1773 25 1478 25 
z
" transform="scale(0.015625)"/>
       </defs>
       <use xlink:href="#CMR17-36" transform="scale(0.996264)"/>
       <use xlink:href="#CMR17-30" transform="translate(45.690477 0) scale(0.996264)"/>
       <use xlink:href="#CMR17-30" transform="translate(91.380954 0) scale(0.996264)"/>
      </g>
     </g>
    </g>
    <g id="xtick_4">
     <g id="line2d_7">
      <path d="M 348.829639 308.481683 
L 348.829639 25.10218 
" clip-path="url(#pc08358c05a)" style="fill: none; stroke: #ffffff; stroke-width: 0.8; stroke-linecap: round"/>
     </g>
     <g id="line2d_8"/>
     <g id="text_4">
      <!-- $\mathdefault{700}$ -->
      <g style="fill: #262626" transform="translate(341.357636 318.900182) scale(0.1 -0.1)">
       <defs>
        <path id="CMR17-37" d="M 2886 3955 
L 2886 4096 
L 1382 4096 
C 634 4096 621 4166 595 4288 
L 480 4288 
L 294 3104 
L 410 3104 
C 429 3226 474 3552 550 3673 
C 589 3724 1062 3724 1171 3724 
L 2579 3724 
L 1869 2670 
C 1395 1961 1069 1003 1069 166 
C 1069 89 1069 -128 1299 -128 
C 1530 -128 1530 89 1530 172 
L 1530 466 
C 1530 1514 1709 2204 2003 2644 
L 2886 3955 
z
" transform="scale(0.015625)"/>
       </defs>
       <use xlink:href="#CMR17-37" transform="scale(0.996264)"/>
       <use xlink:href="#CMR17-30" transform="translate(45.690477 0) scale(0.996264)"/>
       <use xlink:href="#CMR17-30" transform="translate(91.380954 0) scale(0.996264)"/>
      </g>
     </g>
    </g>
    <g id="xtick_5">
     <g id="line2d_9">
      <path d="M 431.773161 308.481683 
L 431.773161 25.10218 
" clip-path="url(#pc08358c05a)" style="fill: none; stroke: #ffffff; stroke-width: 0.8; stroke-linecap: round"/>
     </g>
     <g id="line2d_10"/>
     <g id="text_5">
      <!-- $\mathdefault{800}$ -->
      <g style="fill: #262626" transform="translate(424.301158 318.900182) scale(0.1 -0.1)">
       <defs>
        <path id="CMR17-38" d="M 1741 2289 
C 2144 2494 2554 2803 2554 3298 
C 2554 3884 1990 4224 1472 4224 
C 890 4224 378 3800 378 3215 
C 378 3054 416 2777 666 2533 
C 730 2469 998 2276 1171 2154 
C 883 2006 211 1652 211 945 
C 211 282 838 -128 1459 -128 
C 2144 -128 2720 366 2720 1022 
C 2720 1607 2330 1877 2074 2051 
L 1741 2289 
z
M 902 2855 
C 851 2887 595 3086 595 3388 
C 595 3781 998 4076 1459 4076 
C 1965 4076 2336 3716 2336 3298 
C 2336 2700 1670 2359 1638 2359 
C 1632 2359 1626 2359 1574 2398 
L 902 2855 
z
M 2080 1536 
C 2176 1466 2483 1253 2483 861 
C 2483 385 2010 25 1472 25 
C 890 25 448 443 448 951 
C 448 1459 838 1884 1280 2083 
L 2080 1536 
z
" transform="scale(0.015625)"/>
       </defs>
       <use xlink:href="#CMR17-38" transform="scale(0.996264)"/>
       <use xlink:href="#CMR17-30" transform="translate(45.690477 0) scale(0.996264)"/>
       <use xlink:href="#CMR17-30" transform="translate(91.380954 0) scale(0.996264)"/>
      </g>
     </g>
    </g>
    <g id="text_6">
     <!-- $\lambda$ [nm] -->
     <g style="fill: #262626" transform="translate(230.690728 332.30934) scale(0.1 -0.1)">
      <defs>
       <path id="CMMI12-15" d="M 1978 3963 
C 1818 4416 1312 4416 1229 4416 
C 1190 4416 1120 4416 1120 4351 
C 1120 4300 1158 4294 1190 4287 
C 1286 4275 1363 4262 1466 4078 
C 1530 3957 2189 2055 2189 2042 
C 2189 2036 2182 2029 2131 1978 
L 467 305 
C 390 229 339 178 339 95 
C 339 6 416 -71 518 -71 
C 544 -71 614 -58 653 -20 
C 755 76 1670 1190 2253 1877 
C 2419 1380 2624 795 2822 261 
C 2854 165 2886 76 2976 -7 
C 3040 -64 3053 -64 3232 -64 
L 3354 -64 
C 3379 -64 3424 -64 3424 -13 
C 3424 12 3418 19 3392 44 
C 3334 114 3290 229 3264 305 
L 1978 3963 
z
" transform="scale(0.015625)"/>
       <path id="CMR17-5b" d="M 1504 -1600 
L 1504 -1376 
L 902 -1376 
L 902 4575 
L 1504 4575 
L 1504 4800 
L 678 4800 
L 678 -1600 
L 1504 -1600 
z
" transform="scale(0.015625)"/>
       <path id="CMR17-6e" d="M 2656 1954 
C 2656 2282 2592 2816 1837 2816 
C 1331 2816 1069 2424 973 2166 
L 966 2166 
L 966 2816 
L 211 2745 
L 211 2578 
C 589 2578 646 2540 646 2231 
L 646 443 
C 646 198 621 166 211 166 
L 211 0 
C 365 12 646 12 813 12 
C 979 12 1267 12 1421 0 
L 1421 166 
C 1011 166 986 192 986 443 
L 986 1678 
C 986 2269 1344 2713 1792 2713 
C 2266 2713 2317 2289 2317 1980 
L 2317 443 
C 2317 198 2291 166 1882 166 
L 1882 0 
C 2035 12 2317 12 2483 12 
C 2650 12 2938 12 3091 0 
L 3091 166 
C 2682 166 2656 192 2656 443 
L 2656 1954 
z
" transform="scale(0.015625)"/>
       <path id="CMR17-6d" d="M 4326 1954 
C 4326 2276 4269 2816 3507 2816 
C 3072 2816 2771 2520 2656 2173 
L 2650 2173 
C 2573 2700 2195 2816 1837 2816 
C 1331 2816 1069 2424 973 2166 
L 966 2166 
L 966 2816 
L 211 2745 
L 211 2578 
C 589 2578 646 2540 646 2231 
L 646 443 
C 646 198 621 166 211 166 
L 211 0 
C 365 12 646 12 813 12 
C 979 12 1267 12 1421 0 
L 1421 166 
C 1011 166 986 192 986 443 
L 986 1678 
C 986 2269 1344 2713 1792 2713 
C 2266 2713 2317 2289 2317 1980 
L 2317 443 
C 2317 198 2291 166 1882 166 
L 1882 0 
C 2035 12 2317 12 2483 12 
C 2650 12 2938 12 3091 0 
L 3091 166 
C 2682 166 2656 192 2656 443 
L 2656 1678 
C 2656 2269 3014 2713 3462 2713 
C 3936 2713 3987 2289 3987 1980 
L 3987 443 
C 3987 198 3962 166 3552 166 
L 3552 0 
C 3706 12 3987 12 4154 12 
C 4320 12 4608 12 4762 0 
L 4762 166 
C 4352 166 4326 192 4326 443 
L 4326 1954 
z
" transform="scale(0.015625)"/>
       <path id="CMR17-5d" d="M 915 4800 
L 90 4800 
L 90 4575 
L 691 4575 
L 691 -1376 
L 90 -1376 
L 90 -1600 
L 915 -1600 
L 915 4800 
z
" transform="scale(0.015625)"/>
      </defs>
      <use xlink:href="#CMMI12-15" transform="scale(0.996264)"/>
      <use xlink:href="#CMR17-5b" transform="translate(86.980038 0) scale(0.996264)"/>
      <use xlink:href="#CMR17-6e" transform="translate(111.851097 0) scale(0.996264)"/>
      <use xlink:href="#CMR17-6d" transform="translate(162.746466 0) scale(0.996264)"/>
      <use xlink:href="#CMR17-5d" transform="translate(239.666056 0) scale(0.996264)"/>
     </g>
    </g>
   </g>
   <g id="matplotlib.axis_2">
    <g id="ytick_1">
     <g id="line2d_11">
      <path d="M 39.885756 296.413458 
L 450 296.413458 
" clip-path="url(#pc08358c05a)" style="fill: none; stroke: #ffffff; stroke-width: 0.8; stroke-linecap: round"/>
     </g>
     <g id="line2d_12"/>
     <g id="text_7">
      <!-- $\mathdefault{0.4}$ -->
      <g style="fill: #262626" transform="translate(23.655677 299.872707) scale(0.1 -0.1)">
       <defs>
        <path id="CMMI12-3a" d="M 1178 307 
C 1178 492 1024 620 870 620 
C 685 620 557 467 557 313 
C 557 128 710 0 864 0 
C 1050 0 1178 153 1178 307 
z
" transform="scale(0.015625)"/>
       </defs>
       <use xlink:href="#CMR17-30" transform="scale(0.996264)"/>
       <use xlink:href="#CMMI12-3a" transform="translate(45.690477 0) scale(0.996264)"/>
       <use xlink:href="#CMR17-34" transform="translate(72.787654 0) scale(0.996264)"/>
      </g>
     </g>
    </g>
    <g id="ytick_2">
     <g id="line2d_13">
      <path d="M 39.885756 253.341726 
L 450 253.341726 
" clip-path="url(#pc08358c05a)" style="fill: none; stroke: #ffffff; stroke-width: 0.8; stroke-linecap: round"/>
     </g>
     <g id="line2d_14"/>
     <g id="text_8">
      <!-- $\mathdefault{0.5}$ -->
      <g style="fill: #262626" transform="translate(23.655677 256.800975) scale(0.1 -0.1)">
       <use xlink:href="#CMR17-30" transform="scale(0.996264)"/>
       <use xlink:href="#CMMI12-3a" transform="translate(45.690477 0) scale(0.996264)"/>
       <use xlink:href="#CMR17-35" transform="translate(72.787654 0) scale(0.996264)"/>
      </g>
     </g>
    </g>
    <g id="ytick_3">
     <g id="line2d_15">
      <path d="M 39.885756 210.269994 
L 450 210.269994 
" clip-path="url(#pc08358c05a)" style="fill: none; stroke: #ffffff; stroke-width: 0.8; stroke-linecap: round"/>
     </g>
     <g id="line2d_16"/>
     <g id="text_9">
      <!-- $\mathdefault{0.6}$ -->
      <g style="fill: #262626" transform="translate(23.655677 213.729243) scale(0.1 -0.1)">
       <use xlink:href="#CMR17-30" transform="scale(0.996264)"/>
       <use xlink:href="#CMMI12-3a" transform="translate(45.690477 0) scale(0.996264)"/>
       <use xlink:href="#CMR17-36" transform="translate(72.787654 0) scale(0.996264)"/>
      </g>
     </g>
    </g>
    <g id="ytick_4">
     <g id="line2d_17">
      <path d="M 39.885756 167.198262 
L 450 167.198262 
" clip-path="url(#pc08358c05a)" style="fill: none; stroke: #ffffff; stroke-width: 0.8; stroke-linecap: round"/>
     </g>
     <g id="line2d_18"/>
     <g id="text_10">
      <!-- $\mathdefault{0.7}$ -->
      <g style="fill: #262626" transform="translate(23.655677 170.657511) scale(0.1 -0.1)">
       <use xlink:href="#CMR17-30" transform="scale(0.996264)"/>
       <use xlink:href="#CMMI12-3a" transform="translate(45.690477 0) scale(0.996264)"/>
       <use xlink:href="#CMR17-37" transform="translate(72.787654 0) scale(0.996264)"/>
      </g>
     </g>
    </g>
    <g id="ytick_5">
     <g id="line2d_19">
      <path d="M 39.885756 124.12653 
L 450 124.12653 
" clip-path="url(#pc08358c05a)" style="fill: none; stroke: #ffffff; stroke-width: 0.8; stroke-linecap: round"/>
     </g>
     <g id="line2d_20"/>
     <g id="text_11">
      <!-- $\mathdefault{0.8}$ -->
      <g style="fill: #262626" transform="translate(23.655677 127.585779) scale(0.1 -0.1)">
       <use xlink:href="#CMR17-30" transform="scale(0.996264)"/>
       <use xlink:href="#CMMI12-3a" transform="translate(45.690477 0) scale(0.996264)"/>
       <use xlink:href="#CMR17-38" transform="translate(72.787654 0) scale(0.996264)"/>
      </g>
     </g>
    </g>
    <g id="ytick_6">
     <g id="line2d_21">
      <path d="M 39.885756 81.054798 
L 450 81.054798 
" clip-path="url(#pc08358c05a)" style="fill: none; stroke: #ffffff; stroke-width: 0.8; stroke-linecap: round"/>
     </g>
     <g id="line2d_22"/>
     <g id="text_12">
      <!-- $\mathdefault{0.9}$ -->
      <g style="fill: #262626" transform="translate(23.655677 84.514047) scale(0.1 -0.1)">
       <defs>
        <path id="CMR17-39" d="M 2253 1871 
C 2253 448 1670 25 1190 25 
C 1043 25 685 43 538 281 
C 704 256 826 345 826 505 
C 826 678 685 736 595 736 
C 538 736 365 710 365 492 
C 365 68 742 -128 1203 -128 
C 1939 -128 2688 665 2688 2090 
C 2688 3857 1971 4224 1485 4224 
C 851 4224 243 3664 243 2800 
C 243 2000 762 1408 1414 1408 
C 1952 1408 2189 1910 2253 2122 
L 2253 1871 
z
M 1427 1510 
C 1254 1510 1011 1542 813 1929 
C 678 2181 678 2477 678 2793 
C 678 3174 678 3438 858 3722 
C 947 3857 1114 4076 1485 4076 
C 2240 4076 2240 2909 2240 2651 
C 2240 2193 2035 1510 1427 1510 
z
" transform="scale(0.015625)"/>
       </defs>
       <use xlink:href="#CMR17-30" transform="scale(0.996264)"/>
       <use xlink:href="#CMMI12-3a" transform="translate(45.690477 0) scale(0.996264)"/>
       <use xlink:href="#CMR17-39" transform="translate(72.787654 0) scale(0.996264)"/>
      </g>
     </g>
    </g>
    <g id="ytick_7">
     <g id="line2d_23">
      <path d="M 39.885756 37.983066 
L 450 37.983066 
" clip-path="url(#pc08358c05a)" style="fill: none; stroke: #ffffff; stroke-width: 0.8; stroke-linecap: round"/>
     </g>
     <g id="line2d_24"/>
     <g id="text_13">
      <!-- $\mathdefault{1.0}$ -->
      <g style="fill: #262626" transform="translate(23.655677 41.442316) scale(0.1 -0.1)">
       <defs>
        <path id="CMR17-31" d="M 1702 4083 
C 1702 4217 1696 4224 1606 4224 
C 1357 3927 979 3833 621 3820 
C 602 3820 570 3820 563 3808 
C 557 3795 557 3782 557 3648 
C 755 3648 1088 3686 1344 3839 
L 1344 467 
C 1344 243 1331 166 781 166 
L 589 166 
L 589 0 
C 896 6 1216 12 1523 12 
C 1830 12 2150 6 2458 0 
L 2458 166 
L 2266 166 
C 1715 166 1702 236 1702 467 
L 1702 4083 
z
" transform="scale(0.015625)"/>
       </defs>
       <use xlink:href="#CMR17-31" transform="scale(0.996264)"/>
       <use xlink:href="#CMMI12-3a" transform="translate(45.690477 0) scale(0.996264)"/>
       <use xlink:href="#CMR17-30" transform="translate(72.787654 0) scale(0.996264)"/>
      </g>
     </g>
    </g>
    <g id="text_14">
     <!-- absorbance -->
     <g style="fill: #262626" transform="translate(17.718498 190.909871) rotate(-90) scale(0.1 -0.1)">
      <defs>
       <path id="CMR17-61" d="M 2304 1656 
C 2304 2048 2304 2275 2035 2534 
C 1798 2751 1523 2816 1306 2816 
C 800 2816 435 2408 435 1977 
C 435 1740 627 1728 666 1728 
C 749 1728 896 1779 896 1958 
C 896 2118 774 2188 666 2188 
C 640 2188 608 2182 589 2176 
C 723 2594 1069 2713 1293 2713 
C 1613 2713 1965 2421 1965 1875 
L 1965 1632 
C 1587 1619 1133 1568 774 1373 
C 371 1147 256 822 256 576 
C 256 77 832 -64 1171 -64 
C 1523 -64 1850 135 1990 505 
C 2003 219 2182 -39 2464 -39 
C 2598 -39 2938 51 2938 563 
L 2938 926 
L 2822 926 
L 2822 557 
C 2822 161 2650 109 2566 109 
C 2304 109 2304 446 2304 732 
L 2304 1656 
z
M 1965 887 
C 1965 323 1568 38 1216 38 
C 896 38 646 278 646 576 
C 646 771 730 1114 1101 1322 
C 1408 1497 1760 1523 1965 1536 
L 1965 887 
z
" transform="scale(0.015625)"/>
       <path id="CMR17-62" d="M 960 4416 
L 198 4345 
L 198 4179 
C 576 4179 634 4141 634 3843 
L 634 -13 
L 749 -13 
L 934 445 
C 1120 141 1395 -64 1766 -64 
C 2406 -64 3053 503 3053 1382 
C 3053 2209 2477 2816 1830 2816 
C 1434 2816 1152 2603 960 2351 
L 960 4416 
z
M 973 2022 
C 973 2138 973 2157 1062 2293 
C 1312 2681 1670 2713 1792 2713 
C 1984 2713 2643 2610 2643 1388 
C 2643 109 1888 38 1734 38 
C 1536 38 1248 115 1043 490 
C 973 613 973 626 973 742 
L 973 2022 
z
" transform="scale(0.015625)"/>
       <path id="CMR17-73" d="M 1978 2688 
C 1978 2803 1971 2809 1933 2809 
C 1907 2809 1901 2803 1824 2707 
C 1805 2681 1747 2617 1728 2592 
C 1523 2809 1235 2816 1126 2816 
C 416 2816 160 2444 160 2073 
C 160 1497 813 1363 998 1324 
C 1402 1241 1542 1216 1677 1100 
C 1760 1024 1901 883 1901 652 
C 1901 384 1747 38 1158 38 
C 602 38 403 460 288 1024 
C 269 1113 269 1120 218 1120 
C 166 1120 160 1113 160 985 
L 160 64 
C 160 -52 166 -58 205 -58 
C 237 -58 243 -52 275 0 
C 314 57 410 211 448 275 
C 576 102 800 -64 1158 -64 
C 1792 -64 2131 281 2131 780 
C 2131 1107 1958 1280 1875 1356 
C 1683 1555 1459 1600 1190 1651 
C 838 1728 390 1817 390 2208 
C 390 2374 480 2726 1126 2726 
C 1811 2726 1850 2086 1862 1881 
C 1869 1849 1901 1843 1920 1843 
C 1978 1843 1978 1862 1978 1971 
L 1978 2688 
z
" transform="scale(0.015625)"/>
       <path id="CMR17-6f" d="M 2758 1356 
C 2758 2176 2163 2816 1466 2816 
C 768 2816 173 2176 173 1356 
C 173 550 768 -64 1466 -64 
C 2163 -64 2758 550 2758 1356 
z
M 1466 51 
C 1165 51 909 230 762 480 
C 602 768 582 1126 582 1408 
C 582 1676 595 2009 762 2297 
C 890 2508 1139 2713 1466 2713 
C 1754 2713 1997 2553 2150 2329 
C 2349 2028 2349 1606 2349 1408 
C 2349 1158 2336 774 2163 467 
C 1984 172 1709 51 1466 51 
z
" transform="scale(0.015625)"/>
       <path id="CMR17-72" d="M 960 1517 
C 960 2134 1222 2713 1702 2713 
C 1747 2713 1792 2707 1837 2687 
C 1837 2687 1696 2642 1696 2475 
C 1696 2321 1818 2257 1914 2257 
C 1990 2257 2131 2302 2131 2482 
C 2131 2687 1926 2816 1709 2816 
C 1222 2816 1011 2340 947 2115 
L 941 2115 
L 941 2816 
L 198 2745 
L 198 2578 
C 576 2578 634 2540 634 2231 
L 634 443 
C 634 198 608 166 198 166 
L 198 0 
C 352 12 646 12 813 12 
C 998 12 1325 12 1498 0 
L 1498 166 
C 1037 166 960 166 960 455 
L 960 1517 
z
" transform="scale(0.015625)"/>
       <path id="CMR17-63" d="M 2234 2240 
C 2112 2240 1933 2240 1933 2015 
C 1933 1836 2080 1785 2163 1785 
C 2208 1785 2394 1804 2394 2028 
C 2394 2476 1958 2816 1466 2816 
C 787 2816 211 2201 211 1379 
C 211 521 813 -64 1466 -64 
C 2259 -64 2458 676 2458 747 
C 2458 773 2451 792 2406 792 
C 2362 792 2355 786 2330 702 
C 2163 180 1798 51 1523 51 
C 1114 51 621 431 621 1385 
C 621 2358 1094 2700 1472 2700 
C 1722 2700 2093 2582 2234 2240 
z
" transform="scale(0.015625)"/>
       <path id="CMR17-65" d="M 2438 1503 
C 2464 1529 2464 1542 2464 1606 
C 2464 2251 2118 2816 1389 2816 
C 710 2816 173 2175 173 1394 
C 173 554 781 -64 1459 -64 
C 2176 -64 2458 619 2458 755 
C 2458 800 2419 800 2406 800 
C 2362 800 2355 787 2330 709 
C 2189 270 1837 51 1504 51 
C 1229 51 954 206 781 490 
C 582 819 582 1200 582 1503 
L 2438 1503 
z
M 589 1600 
C 634 2511 1126 2713 1382 2713 
C 1818 2713 2112 2308 2118 1600 
L 589 1600 
z
" transform="scale(0.015625)"/>
      </defs>
      <use xlink:href="#CMR17-61" transform="scale(0.996264)"/>
      <use xlink:href="#CMR17-62" transform="translate(45.690477 0) scale(0.996264)"/>
      <use xlink:href="#CMR17-73" transform="translate(96.585847 0) scale(0.996264)"/>
      <use xlink:href="#CMR17-6f" transform="translate(132.387185 0) scale(0.996264)"/>
      <use xlink:href="#CMR17-72" transform="translate(178.077662 0) scale(0.996264)"/>
      <use xlink:href="#CMR17-62" transform="translate(213.358429 0) scale(0.996264)"/>
      <use xlink:href="#CMR17-61" transform="translate(264.253799 0) scale(0.996264)"/>
      <use xlink:href="#CMR17-6e" transform="translate(309.944276 0) scale(0.996264)"/>
      <use xlink:href="#CMR17-63" transform="translate(360.839646 0) scale(0.996264)"/>
      <use xlink:href="#CMR17-65" transform="translate(401.325307 0) scale(0.996264)"/>
     </g>
    </g>
   </g>
   <g id="line2d_25">
    <path d="M 431.358443 295.600797 
L 430.529008 293.829087 
L 430.114291 294.449752 
L 429.699573 294.506137 
L 429.284855 294.70166 
L 428.45542 293.689642 
L 428.040703 293.911868 
L 427.625985 292.928076 
L 426.79655 292.313549 
L 426.381832 292.355426 
L 425.967115 291.62292 
L 425.552397 292.471966 
L 424.722962 290.397538 
L 423.893526 291.229953 
L 423.478809 290.177004 
L 423.064091 290.142178 
L 422.234656 289.433935 
L 421.405221 289.328815 
L 420.990503 288.964321 
L 420.575786 288.814795 
L 420.161068 287.703433 
L 419.74635 288.295326 
L 419.331633 287.935581 
L 418.916915 288.120606 
L 418.502198 287.160902 
L 418.08748 286.488758 
L 417.672762 286.555334 
L 417.258045 286.08235 
L 416.843327 286.476437 
L 416.428609 285.122496 
L 416.013892 285.825913 
L 415.599174 285.026107 
L 415.184457 285.097113 
L 414.769739 284.59845 
L 414.355021 284.833627 
L 413.525586 283.734561 
L 413.110869 284.289489 
L 412.696151 283.078023 
L 412.281433 283.086219 
L 411.866716 282.642149 
L 411.451998 282.678436 
L 411.037281 281.882073 
L 410.622563 281.91103 
L 410.207845 281.67404 
L 408.963693 280.113701 
L 408.548975 280.556624 
L 408.134257 279.640663 
L 407.71954 280.203627 
L 407.304822 279.197661 
L 406.890104 278.604723 
L 406.475387 278.515602 
L 406.060669 279.524307 
L 405.645952 277.743706 
L 405.231234 278.278382 
L 404.401799 277.475524 
L 403.987081 276.521339 
L 403.572364 276.641177 
L 403.157646 276.639731 
L 402.742928 275.23667 
L 402.328211 275.710968 
L 401.913493 274.968471 
L 401.498776 274.876594 
L 401.084058 274.516869 
L 400.66934 274.629884 
L 400.254623 273.939928 
L 399.839905 273.617704 
L 399.425187 273.75793 
L 399.01047 272.949343 
L 398.595752 271.829223 
L 398.181035 272.014018 
L 397.766317 272.365926 
L 397.351599 271.403978 
L 396.936882 272.276875 
L 396.522164 270.668434 
L 396.107447 270.645486 
L 395.692729 269.585482 
L 395.278011 269.731669 
L 394.863294 269.327113 
L 394.448576 269.176899 
L 394.033859 269.275747 
L 393.204423 268.292334 
L 392.789706 267.223402 
L 392.374988 267.43548 
L 391.960271 266.192169 
L 391.545553 267.430695 
L 391.130835 265.960902 
L 390.716118 265.535668 
L 389.886682 265.739989 
L 389.471965 264.663813 
L 389.057247 264.086685 
L 388.64253 264.204916 
L 387.813094 263.752781 
L 387.398377 262.256803 
L 386.983659 263.009587 
L 386.568942 262.319408 
L 386.154224 263.131307 
L 385.739506 261.925418 
L 384.910071 260.901544 
L 384.495354 260.44297 
L 384.080636 260.708744 
L 383.665918 259.685933 
L 383.251201 259.374097 
L 382.836483 258.505074 
L 382.421765 258.952664 
L 381.59233 258.077036 
L 381.177613 257.870567 
L 380.762895 256.73381 
L 380.348177 256.592287 
L 379.93346 256.911272 
L 379.518742 256.552433 
L 379.104025 254.928178 
L 378.689307 255.988156 
L 378.274589 255.064707 
L 377.859872 254.423983 
L 377.445154 254.07138 
L 377.030437 253.948502 
L 376.201001 253.111971 
L 375.786284 252.983377 
L 375.371566 252.011376 
L 374.956849 251.600784 
L 374.542131 251.987836 
L 373.712696 250.629838 
L 373.297978 250.904935 
L 372.468543 249.51674 
L 372.053825 249.674644 
L 371.639108 249.119127 
L 371.22439 249.051558 
L 370.809672 249.477347 
L 370.394955 247.957399 
L 369.980237 247.833241 
L 369.56552 248.222247 
L 369.150802 247.684022 
L 368.736084 246.822875 
L 368.321367 246.678663 
L 367.906649 247.684311 
L 367.077214 246.311254 
L 366.662496 246.05517 
L 366.247779 245.530909 
L 365.833061 245.290823 
L 365.418343 244.712757 
L 365.003626 245.040029 
L 364.588908 243.090615 
L 364.174191 243.433939 
L 363.759473 242.622595 
L 362.930038 239.273663 
L 362.51532 239.781416 
L 362.100603 237.795064 
L 361.685885 237.53026 
L 361.271167 236.837756 
L 360.85645 235.006727 
L 360.441732 234.423034 
L 360.027015 232.986852 
L 359.612297 232.735384 
L 359.197579 231.997528 
L 358.782862 231.51301 
L 357.953427 229.528571 
L 357.538709 229.538289 
L 357.123991 229.831712 
L 356.709274 227.996045 
L 356.294556 228.43252 
L 355.879838 228.058959 
L 355.465121 227.338571 
L 355.050403 226.34938 
L 354.635686 226.612832 
L 354.220968 225.997485 
L 353.80625 224.806186 
L 353.391533 225.136857 
L 352.976815 223.750122 
L 352.562098 222.905278 
L 352.14738 222.595411 
L 351.732662 222.569059 
L 350.903227 220.733628 
L 350.48851 220.536427 
L 350.073792 219.885102 
L 349.659074 218.896139 
L 348.829639 218.432913 
L 348.414921 216.576758 
L 348.000204 217.542469 
L 347.585486 215.68093 
L 347.170769 216.252674 
L 346.756051 214.737755 
L 346.341333 214.499676 
L 345.926616 213.305094 
L 345.511898 212.830783 
L 345.097181 212.632524 
L 344.682463 211.192688 
L 343.43831 210.443546 
L 343.023593 209.072552 
L 342.608875 209.118286 
L 342.194157 207.235028 
L 341.77944 206.768895 
L 341.364722 206.078476 
L 340.950005 206.224768 
L 340.535287 204.626338 
L 340.120569 204.673652 
L 339.705852 203.328206 
L 339.291134 203.291428 
L 338.876416 202.845938 
L 338.046981 201.021959 
L 337.632264 200.204711 
L 337.217546 200.138279 
L 336.802828 198.300778 
L 336.388111 198.102312 
L 335.973393 197.015114 
L 335.558676 196.801784 
L 335.143958 195.45382 
L 334.72924 194.81946 
L 334.314523 194.418047 
L 333.899805 193.394838 
L 333.485088 193.104653 
L 332.655652 192.17483 
L 332.240935 190.014473 
L 331.826217 190.373913 
L 331.411499 188.754821 
L 330.996782 188.650996 
L 330.582064 187.732985 
L 330.167347 187.601746 
L 329.752629 185.968625 
L 329.337911 185.388411 
L 328.508476 183.591394 
L 328.093759 183.41847 
L 327.679041 181.794484 
L 327.264323 181.519754 
L 326.849606 180.165765 
L 326.434888 180.630897 
L 326.020171 178.812722 
L 325.605453 178.270443 
L 325.190735 177.373766 
L 324.776018 177.380328 
L 324.3613 175.998178 
L 323.117147 173.908252 
L 322.70243 173.489767 
L 322.287712 171.908562 
L 321.872994 171.818987 
L 321.458277 170.198079 
L 321.043559 170.264103 
L 320.628842 168.457135 
L 320.214124 168.399397 
L 319.799406 167.462906 
L 319.384689 167.053102 
L 318.969971 165.700389 
L 318.555254 165.022578 
L 318.140536 164.578433 
L 317.725818 163.007645 
L 317.311101 163.033194 
L 316.896383 161.479315 
L 316.481666 161.156527 
L 316.066948 160.040145 
L 315.65223 159.820903 
L 315.237513 158.231113 
L 314.822795 157.564995 
L 314.408077 156.521813 
L 313.99336 156.243684 
L 313.163925 153.952101 
L 311.919772 151.922887 
L 311.505054 150.543872 
L 311.090337 150.199012 
L 310.675619 148.791125 
L 310.260901 148.87866 
L 309.846184 147.209552 
L 309.431466 146.2386 
L 308.602031 145.184912 
L 307.772596 142.597331 
L 307.357878 142.149306 
L 306.943161 140.926359 
L 306.113725 139.851741 
L 305.699008 138.87632 
L 305.28429 137.494905 
L 304.869572 137.415431 
L 304.454855 135.779717 
L 304.040137 135.123884 
L 303.62542 133.765618 
L 303.210702 134.078215 
L 302.795984 132.715328 
L 301.966549 130.959841 
L 301.551832 129.495332 
L 301.137114 129.434344 
L 300.722396 127.819562 
L 300.307679 127.354195 
L 299.892961 125.933025 
L 299.478244 125.802557 
L 299.063526 124.313003 
L 298.648808 123.913584 
L 298.234091 123.111537 
L 297.819373 122.797868 
L 297.404655 120.931256 
L 296.989938 120.094039 
L 296.57522 119.678515 
L 296.160503 118.303271 
L 295.745785 117.673086 
L 295.331067 116.731443 
L 294.91635 116.142974 
L 294.501632 115.118165 
L 294.086915 114.702408 
L 293.257479 112.764248 
L 292.842762 112.379907 
L 292.428044 111.270967 
L 291.183891 109.261801 
L 290.769174 107.88606 
L 290.354456 108.610661 
L 289.939739 106.515026 
L 289.525021 106.337451 
L 289.110303 105.170896 
L 288.695586 104.557588 
L 288.280868 103.658373 
L 287.451433 102.631099 
L 287.036715 101.413414 
L 286.621998 101.39101 
L 286.20728 99.717566 
L 285.377845 98.617357 
L 284.963127 98.588335 
L 284.54841 96.408382 
L 284.133692 96.59305 
L 283.718974 95.445529 
L 283.304257 95.06321 
L 282.889539 93.523642 
L 282.474822 93.072425 
L 282.060104 93.012798 
L 281.645386 91.65369 
L 281.230669 91.284663 
L 279.986516 87.514121 
L 279.571798 87.886984 
L 279.157081 86.705575 
L 278.742363 86.299302 
L 278.327645 85.607506 
L 277.912928 85.487502 
L 277.49821 83.888851 
L 277.083493 83.041729 
L 276.668775 82.628277 
L 275.83934 81.457904 
L 275.424622 80.098932 
L 275.009905 80.034731 
L 274.595187 79.179297 
L 274.180469 78.966636 
L 273.765752 77.808063 
L 273.351034 77.177196 
L 272.936317 76.02687 
L 272.521599 75.828719 
L 272.106881 74.778635 
L 271.692164 74.479642 
L 270.862728 72.876102 
L 270.448011 72.732375 
L 270.033293 71.184469 
L 269.618576 70.760372 
L 268.78914 69.087892 
L 267.959705 68.225866 
L 267.13027 66.903597 
L 266.715552 66.569627 
L 265.886117 64.64756 
L 265.4714 64.519014 
L 265.056682 64.059926 
L 264.641964 62.795276 
L 264.227247 62.508616 
L 263.812529 61.781966 
L 263.397811 61.65588 
L 262.983094 61.25391 
L 261.738941 59.290433 
L 261.324223 58.851386 
L 260.909506 58.156661 
L 260.494788 57.744847 
L 260.080071 56.83376 
L 259.665353 56.676942 
L 259.250635 55.76362 
L 258.835918 55.477607 
L 258.4212 55.563323 
L 258.006483 54.875768 
L 257.591765 53.942122 
L 257.177047 53.500004 
L 256.76233 54.083814 
L 256.347612 52.561033 
L 255.932895 52.631096 
L 255.518177 51.726433 
L 254.688742 51.502904 
L 253.859306 49.68023 
L 253.444589 49.782841 
L 253.029871 49.166273 
L 252.615154 48.988826 
L 252.200436 47.884071 
L 251.785718 48.37216 
L 251.371001 48.255123 
L 250.956283 46.966722 
L 250.541566 47.044143 
L 250.126848 46.161922 
L 249.71213 46.618009 
L 249.297413 45.925016 
L 248.882695 46.115504 
L 248.467978 44.937165 
L 248.05326 44.754875 
L 247.638542 44.033834 
L 247.223825 44.633103 
L 246.809107 43.678703 
L 246.394389 44.05132 
L 245.979672 43.727059 
L 245.564954 42.655143 
L 245.150237 42.809682 
L 244.735519 42.525307 
L 244.320801 42.386509 
L 243.491366 41.783889 
L 243.076649 40.648377 
L 242.661931 41.216599 
L 242.247213 41.12398 
L 241.832496 41.27976 
L 241.417778 40.108469 
L 241.003061 40.740647 
L 240.588343 40.265053 
L 240.173625 40.300315 
L 239.34419 39.731224 
L 238.929473 39.980062 
L 238.514755 39.239855 
L 238.100037 39.888195 
L 237.68532 39.113766 
L 237.270602 39.82972 
L 236.855884 39.318585 
L 236.441167 39.085433 
L 236.026449 38.017104 
L 235.611732 38.889782 
L 235.197014 38.826859 
L 234.782296 38.968702 
L 234.367579 38.090457 
L 233.952861 38.583801 
L 233.123426 37.983066 
L 232.708708 38.943809 
L 232.293991 39.340538 
L 231.879273 39.299393 
L 231.464556 38.836719 
L 231.049838 38.682995 
L 230.63512 39.504241 
L 229.805685 39.208088 
L 229.390967 39.71996 
L 228.97625 39.465379 
L 228.146815 39.713375 
L 227.732097 39.408838 
L 227.317379 39.834903 
L 226.902662 39.769951 
L 226.487944 40.026034 
L 226.073227 40.075809 
L 225.658509 39.921234 
L 225.243791 40.358487 
L 224.414356 40.691057 
L 223.999639 41.297333 
L 223.584921 41.692797 
L 223.170203 41.655164 
L 222.755486 42.168082 
L 222.340768 41.865587 
L 221.511333 42.660248 
L 221.096615 42.845676 
L 220.681898 43.401504 
L 220.26718 43.387951 
L 219.852462 44.22513 
L 219.437745 44.501738 
L 219.023027 44.604083 
L 218.60831 44.888185 
L 218.193592 45.67726 
L 217.778874 45.358102 
L 217.364157 46.183335 
L 216.949439 46.407494 
L 216.534722 47.079377 
L 216.120004 47.424753 
L 215.705286 47.991713 
L 215.290569 48.223697 
L 214.461134 49.655734 
L 213.631698 50.256055 
L 213.216981 51.016765 
L 212.802263 51.510739 
L 212.387545 51.771087 
L 211.972828 52.370835 
L 211.55811 53.37689 
L 211.143393 53.68963 
L 210.728675 54.141904 
L 210.313957 54.95894 
L 209.89924 56.054434 
L 209.484522 56.488024 
L 207.825652 59.059615 
L 207.410934 60.339242 
L 206.996217 60.594758 
L 205.337346 64.109951 
L 203.678476 67.542642 
L 202.84904 69.372855 
L 202.434323 70.274311 
L 202.019605 71.767996 
L 201.604888 71.529409 
L 201.19017 73.295018 
L 200.775452 73.953355 
L 200.360735 75.303095 
L 199.5313 76.889435 
L 198.701864 79.326906 
L 196.213559 85.720329 
L 195.798841 87.158161 
L 195.384123 88.027784 
L 192.066383 98.009166 
L 191.651665 98.699572 
L 190.82223 101.225303 
L 187.919206 109.438644 
L 187.504489 110.419705 
L 186.675054 113.063071 
L 185.845618 114.903087 
L 185.430901 115.8313 
L 185.016183 117.341883 
L 184.601466 118.362496 
L 184.186748 119.823526 
L 183.77203 120.405748 
L 182.942595 122.253371 
L 182.527878 124.127467 
L 182.11316 124.41589 
L 181.698442 126.201866 
L 181.283725 126.759019 
L 180.869007 127.861881 
L 180.45429 129.686679 
L 180.039572 130.241983 
L 179.624854 130.988138 
L 179.210137 132.13154 
L 178.795419 133.843717 
L 178.380701 133.937575 
L 177.965984 135.842618 
L 177.551266 136.417951 
L 176.721831 138.311478 
L 176.307113 138.45455 
L 175.892396 139.898228 
L 173.40409 146.128696 
L 172.989373 146.054087 
L 172.574655 147.772467 
L 172.159937 147.510993 
L 171.74522 149.348731 
L 171.330502 148.955001 
L 170.915784 149.961657 
L 170.501067 150.06809 
L 170.086349 152.349549 
L 169.671632 152.367169 
L 169.256914 153.426473 
L 168.842196 153.423986 
L 168.427479 154.514402 
L 168.012761 155.222147 
L 167.598044 154.987711 
L 167.183326 156.707573 
L 166.768608 156.341488 
L 166.353891 157.749373 
L 165.939173 157.525009 
L 165.524456 158.268508 
L 165.109738 158.480891 
L 164.69502 159.676966 
L 164.280303 159.527587 
L 163.865585 160.622837 
L 163.450868 160.39062 
L 163.03615 161.173758 
L 162.621432 161.242123 
L 161.377279 163.087251 
L 160.962562 163.068614 
L 160.547844 162.801508 
L 160.133127 164.141385 
L 159.718409 164.304122 
L 159.303691 164.949006 
L 158.888974 164.788828 
L 158.474256 165.217049 
L 158.059539 165.167401 
L 157.644821 165.513715 
L 157.230103 166.252087 
L 156.815386 166.436684 
L 156.400668 166.071059 
L 155.985951 166.909512 
L 155.571233 166.570325 
L 155.156515 166.701026 
L 154.741798 166.597563 
L 154.32708 167.377611 
L 153.912362 167.32437 
L 153.497645 167.738883 
L 153.082927 167.013165 
L 152.66821 168.278612 
L 151.838774 167.785014 
L 151.424057 168.270704 
L 151.009339 168.422244 
L 150.594622 168.062054 
L 150.179904 169.078636 
L 149.765186 168.975643 
L 148.935751 169.225326 
L 148.521034 170.031977 
L 148.106316 169.147468 
L 147.691598 168.813234 
L 147.276881 169.600643 
L 146.862163 170.706265 
L 146.447446 170.760402 
L 146.032728 169.867507 
L 145.61801 171.111943 
L 145.203293 170.602336 
L 144.788575 170.32339 
L 144.373857 170.379025 
L 143.95914 170.181557 
L 143.129705 170.662519 
L 142.714987 171.102566 
L 142.300269 170.344095 
L 141.885552 171.011488 
L 141.470834 171.265834 
L 141.056117 170.715257 
L 140.641399 170.540343 
L 140.226681 170.015076 
L 139.811964 170.753752 
L 139.397246 169.865209 
L 138.982529 170.557535 
L 138.567811 170.385303 
L 138.153093 170.416103 
L 137.738376 169.570143 
L 137.323658 170.576945 
L 136.90894 169.631178 
L 136.079505 169.762237 
L 135.664788 169.063583 
L 135.25007 169.817639 
L 134.835352 168.831913 
L 134.420635 169.481432 
L 134.005917 169.197714 
L 133.5912 169.460349 
L 132.761764 169.331005 
L 132.347047 168.499478 
L 131.932329 168.680017 
L 131.517612 168.526975 
L 131.102894 168.214299 
L 130.688176 168.187789 
L 130.273459 167.431478 
L 129.444024 168.372092 
L 129.029306 168.059657 
L 128.614588 167.014071 
L 128.199871 168.008196 
L 127.785153 167.301547 
L 127.370435 167.667471 
L 126.955718 166.308216 
L 126.541 166.647839 
L 126.126283 167.406301 
L 125.711565 166.543688 
L 125.296847 167.092517 
L 124.88213 165.52306 
L 124.467412 166.020578 
L 123.637977 166.046935 
L 123.223259 165.391304 
L 122.808542 165.705418 
L 122.393824 165.576803 
L 121.979107 165.184064 
L 121.564389 164.531264 
L 121.149671 165.103277 
L 120.734954 164.243646 
L 120.320236 164.344001 
L 119.905518 162.931454 
L 119.490801 162.937169 
L 119.076083 163.646096 
L 118.661366 163.17614 
L 118.246648 163.671118 
L 117.417213 162.649478 
L 117.002495 162.128573 
L 116.587778 162.710997 
L 116.17306 161.746291 
L 115.343625 161.846742 
L 114.928907 161.849641 
L 114.51419 160.549665 
L 114.099472 161.160486 
L 113.684754 160.302779 
L 113.270037 160.805687 
L 112.855319 159.551359 
L 112.440602 160.144143 
L 112.025884 159.135298 
L 111.611166 159.749204 
L 111.196449 158.873612 
L 110.367013 158.529987 
L 109.952296 157.525304 
L 109.537578 158.113919 
L 108.708143 156.074548 
L 108.293425 156.681524 
L 107.878708 156.42417 
L 107.46399 156.561362 
L 107.049273 155.409048 
L 106.634555 156.387929 
L 106.219837 155.908421 
L 105.80512 154.635205 
L 105.390402 154.890719 
L 104.975685 154.621152 
L 104.560967 154.974249 
L 104.146249 153.140115 
L 103.731532 153.858296 
L 103.316814 153.53028 
L 102.902096 152.839842 
L 102.487379 152.995217 
L 102.072661 152.05486 
L 101.657944 152.250247 
L 100.828508 151.795631 
L 100.413791 151.268485 
L 99.999073 151.311841 
L 99.584356 150.405764 
L 99.169638 149.989592 
L 98.75492 149.177895 
L 98.340203 149.264236 
L 97.925485 149.111919 
L 97.510768 148.160666 
L 97.09605 149.355536 
L 96.681332 147.667794 
L 96.266615 147.923325 
L 95.851897 147.566409 
L 95.43718 148.492944 
L 95.022462 146.975148 
L 94.607744 147.029046 
L 94.193027 145.687989 
L 93.778309 145.36581 
L 93.363591 145.428624 
L 92.948874 145.340108 
L 92.119439 143.898118 
L 91.704721 144.578177 
L 90.460568 142.809783 
L 90.045851 143.299353 
L 89.631133 141.744129 
L 88.801698 141.237328 
L 88.38698 140.224024 
L 87.972263 141.131853 
L 87.557545 138.887766 
L 87.142827 139.686564 
L 86.72811 140.049657 
L 86.313392 138.960513 
L 85.898674 138.448973 
L 85.483957 136.815619 
L 85.069239 137.458061 
L 84.654522 138.391332 
L 84.239804 136.056316 
L 83.825086 137.411145 
L 83.410369 135.608025 
L 82.995651 137.76516 
L 82.580934 135.231962 
L 82.166216 134.727813 
L 81.751498 134.466791 
L 81.336781 134.801121 
L 80.922063 134.59864 
L 80.507346 133.220199 
L 80.092628 133.447062 
L 79.67791 133.209283 
L 79.263193 132.556123 
L 78.848475 132.242754 
L 78.433758 133.030605 
L 77.604322 130.598673 
L 77.189605 130.557245 
L 76.774887 130.863142 
L 76.360169 129.591899 
L 75.945452 130.497538 
L 75.530734 129.48843 
L 75.116017 130.37223 
L 74.701299 127.46305 
L 74.286581 127.815702 
L 73.871864 128.521881 
L 73.457146 128.780707 
L 73.042429 126.980202 
L 72.627711 126.717942 
L 72.212993 126.923262 
L 71.798276 125.935282 
L 71.383558 126.786596 
L 70.968841 124.943922 
L 70.554123 124.920169 
L 70.139405 125.500632 
L 69.724688 124.605938 
L 69.30997 124.377307 
L 68.895252 124.642153 
L 68.480535 123.53279 
L 68.065817 120.820956 
L 67.6511 123.71418 
L 67.236382 121.929484 
L 66.406947 120.492238 
L 65.992229 121.722952 
L 65.577512 122.303737 
L 65.162794 120.249582 
L 64.748076 121.188715 
L 64.333359 120.945183 
L 63.918641 119.863113 
L 63.503924 119.525878 
L 63.089206 118.384301 
L 62.674488 119.415896 
L 62.259771 117.360019 
L 61.845053 118.39191 
L 61.430336 118.170054 
L 60.6009 116.675879 
L 60.186183 117.405052 
L 59.771465 117.139134 
L 59.356747 116.325859 
L 58.94203 114.795379 
L 58.527312 116.077535 
L 58.527312 116.077535 
" clip-path="url(#pc08358c05a)" style="fill: none; stroke: #1f77b4; stroke-width: 1.5; stroke-linecap: round"/>
   </g>
   <g id="patch_3">
    <path d="M 39.885756 308.481683 
L 39.885756 25.10218 
" style="fill: none"/>
   </g>
   <g id="patch_4">
    <path d="M 450 308.481683 
L 450 25.10218 
" style="fill: none"/>
   </g>
   <g id="patch_5">
    <path d="M 39.885756 308.481683 
L 450 308.481683 
" style="fill: none"/>
   </g>
   <g id="patch_6">
    <path d="M 39.885756 25.10218 
L 450 25.10218 
" style="fill: none"/>
   </g>
   <g id="text_15">
    <!-- Absorbance of Gold -->
    <g style="fill: #262626" transform="translate(194.146388 19.10218) scale(0.12 -0.12)">
     <defs>
      <path id="CMR17-41" d="M 2323 4441 
C 2291 4524 2278 4544 2214 4544 
C 2150 4544 2138 4524 2106 4441 
L 749 580 
C 627 236 371 166 147 166 
L 147 0 
C 262 12 518 12 640 12 
C 800 12 1056 12 1210 0 
L 1210 166 
C 909 179 864 382 864 459 
C 864 516 877 548 890 586 
L 1229 1536 
L 2906 1536 
L 3290 453 
C 3322 376 3322 363 3322 338 
C 3322 166 3046 166 2925 166 
L 2925 0 
C 3110 12 3443 12 3642 12 
C 3808 12 4128 12 4282 0 
L 4282 166 
C 3942 166 3827 166 3744 402 
L 2323 4441 
z
M 2067 3924 
L 2848 1702 
L 1286 1702 
L 2067 3924 
z
" transform="scale(0.015625)"/>
      <path id="CMR17-66" d="M 979 2585 
L 1709 2585 
L 1709 2752 
L 966 2752 
L 966 3539 
C 966 4076 1235 4377 1510 4377 
C 1594 4377 1690 4363 1754 4339 
C 1702 4326 1568 4281 1568 4121 
C 1568 3955 1696 3904 1786 3904 
C 1875 3904 2003 3955 2003 4121 
C 2003 4353 1773 4480 1517 4480 
C 1152 4480 653 4211 653 3526 
L 653 2752 
L 141 2752 
L 141 2585 
L 653 2585 
L 653 441 
C 653 198 627 166 218 166 
L 218 0 
C 371 12 666 12 832 12 
C 1018 12 1344 12 1517 0 
L 1517 166 
C 1056 166 979 166 979 454 
L 979 2585 
z
" transform="scale(0.015625)"/>
      <path id="CMR17-47" d="M 3974 1258 
C 3974 1503 3994 1536 4390 1536 
L 4390 1702 
C 4237 1689 3891 1689 3718 1689 
C 3539 1689 3040 1696 2797 1702 
L 2797 1536 
L 2989 1536 
C 3539 1536 3552 1464 3552 1232 
L 3552 806 
C 3552 96 2720 38 2522 38 
C 1862 38 781 496 781 2179 
C 781 3862 1843 4313 2464 4313 
C 3187 4313 3712 3681 3834 2785 
C 3846 2708 3846 2695 3904 2695 
C 3974 2695 3974 2708 3974 2824 
L 3974 4351 
C 3974 4467 3968 4473 3930 4473 
C 3904 4473 3898 4467 3853 4390 
L 3571 3849 
C 3258 4249 2874 4480 2381 4480 
C 1286 4480 294 3507 294 2179 
C 294 858 1267 -128 2394 -128 
C 2912 -128 3418 57 3616 425 
C 3725 161 3904 -20 3936 -20 
C 3968 -20 3974 -13 3974 102 
L 3974 1258 
z
" transform="scale(0.015625)"/>
      <path id="CMR17-6c" d="M 979 4416 
L 218 4345 
L 218 4179 
C 595 4179 653 4141 653 3835 
L 653 439 
C 653 198 627 166 218 166 
L 218 0 
C 371 12 653 12 813 12 
C 979 12 1261 12 1414 0 
L 1414 166 
C 1005 166 979 191 979 439 
L 979 4416 
z
" transform="scale(0.015625)"/>
      <path id="CMR17-64" d="M 1869 4345 
L 1869 4179 
C 2246 4179 2304 4141 2304 3843 
L 2304 2371 
C 2278 2403 2016 2816 1498 2816 
C 845 2816 211 2228 211 1376 
C 211 529 806 -64 1434 -64 
C 1978 -64 2259 361 2291 406 
L 2291 -64 
L 3066 -13 
L 3066 154 
C 2688 154 2630 193 2630 503 
L 2630 4416 
L 1869 4345 
z
M 2291 762 
C 2291 568 2176 393 2029 264 
C 1811 70 1594 38 1472 38 
C 1286 38 621 135 621 1369 
C 621 2636 1363 2713 1530 2713 
C 1824 2713 2061 2545 2208 2313 
C 2291 2177 2291 2157 2291 2041 
L 2291 762 
z
" transform="scale(0.015625)"/>
     </defs>
     <use xlink:href="#CMR17-41" transform="scale(0.996264)"/>
     <use xlink:href="#CMR17-62" transform="translate(69.07243 0) scale(0.996264)"/>
     <use xlink:href="#CMR17-73" transform="translate(119.9678 0) scale(0.996264)"/>
     <use xlink:href="#CMR17-6f" transform="translate(155.769137 0) scale(0.996264)"/>
     <use xlink:href="#CMR17-72" transform="translate(201.459614 0) scale(0.996264)"/>
     <use xlink:href="#CMR17-62" transform="translate(236.740382 0) scale(0.996264)"/>
     <use xlink:href="#CMR17-61" transform="translate(287.635752 0) scale(0.996264)"/>
     <use xlink:href="#CMR17-6e" transform="translate(333.326229 0) scale(0.996264)"/>
     <use xlink:href="#CMR17-63" transform="translate(384.221599 0) scale(0.996264)"/>
     <use xlink:href="#CMR17-65" transform="translate(424.707259 0) scale(0.996264)"/>
     <use xlink:href="#CMR17-6f" transform="translate(495.268886 0) scale(0.996264)"/>
     <use xlink:href="#CMR17-66" transform="translate(540.959363 0) scale(0.996264)"/>
     <use xlink:href="#CMR17-47" transform="translate(598.508842 0) scale(0.996264)"/>
     <use xlink:href="#CMR17-6f" transform="translate(670.864188 0) scale(0.996264)"/>
     <use xlink:href="#CMR17-6c" transform="translate(716.554665 0) scale(0.996264)"/>
     <use xlink:href="#CMR17-64" transform="translate(741.425723 0) scale(0.996264)"/>
    </g>
   </g>
  </g>
 </g>
 <defs>
  <clipPath id="pc08358c05a">
   <rect x="39.885756" y="25.10218" width="410.114244" height="283.379503"/>
  </clipPath>
 </defs>
</svg>
