<?xml version="1.0" encoding="utf-8" standalone="no"?>
<!DOCTYPE svg PUBLIC "-//W3C//DTD SVG 1.1//EN"
  "http://www.w3.org/Graphics/SVG/1.1/DTD/svg11.dtd">
<svg xmlns:xlink="http://www.w3.org/1999/xlink" width="460.8pt" height="345.6pt" viewBox="0 0 460.8 345.6" xmlns="http://www.w3.org/2000/svg" version="1.1">
 <metadata>
  <rdf:RDF xmlns:dc="http://purl.org/dc/elements/1.1/" xmlns:cc="http://creativecommons.org/ns#" xmlns:rdf="http://www.w3.org/1999/02/22-rdf-syntax-ns#">
   <cc:Work>
    <dc:type rdf:resource="http://purl.org/dc/dcmitype/StillImage"/>
    <dc:date>2023-06-29T16:43:06.995365</dc:date>
    <dc:format>image/svg+xml</dc:format>
    <dc:creator>
     <cc:Agent>
      <dc:title>Matplotlib v3.7.1, https://matplotlib.org/</dc:title>
     </cc:Agent>
    </dc:creator>
   </cc:Work>
  </rdf:RDF>
 </metadata>
 <defs>
  <style type="text/css">*{stroke-linejoin: round; stroke-linecap: butt}</style>
 </defs>
 <g id="figure_1">
  <g id="patch_1">
   <path d="M 0 345.6 
L 460.8 345.6 
L 460.8 0 
L 0 0 
z
" style="fill: #ffffff"/>
  </g>
  <g id="axes_1">
   <g id="patch_2">
    <path d="M 39.885756 308.481683 
L 450 308.481683 
L 450 25.10218 
L 39.885756 25.10218 
z
" style="fill: #eaeaf2"/>
   </g>
   <g id="matplotlib.axis_1">
    <g id="xtick_1">
     <g id="line2d_1">
      <path d="M 99.999073 308.481683 
L 99.999073 25.10218 
" clip-path="url(#p0f2ca8913d)" style="fill: none; stroke: #ffffff; stroke-width: 0.8; stroke-linecap: round"/>
     </g>
     <g id="line2d_2"/>
     <g id="text_1">
      <!-- $\mathdefault{400}$ -->
      <g style="fill: #262626" transform="translate(92.52707 318.900182) scale(0.1 -0.1)">
       <defs>
        <path id="CMR17-34" d="M 2150 4147 
C 2150 4281 2144 4288 2029 4288 
L 128 1254 
L 128 1088 
L 1779 1088 
L 1779 460 
C 1779 230 1766 166 1318 166 
L 1197 166 
L 1197 0 
C 1402 12 1747 12 1965 12 
C 2182 12 2528 12 2733 0 
L 2733 166 
L 2611 166 
C 2163 166 2150 230 2150 460 
L 2150 1088 
L 2803 1088 
L 2803 1254 
L 2150 1254 
L 2150 4147 
z
M 1798 3723 
L 1798 1254 
L 256 1254 
L 1798 3723 
z
" transform="scale(0.015625)"/>
        <path id="CMR17-30" d="M 2688 2038 
C 2688 2430 2682 3099 2413 3613 
C 2176 4063 1798 4224 1466 4224 
C 1158 4224 768 4082 525 3620 
C 269 3137 243 2539 243 2038 
C 243 1671 250 1112 448 623 
C 723 -39 1216 -128 1466 -128 
C 1760 -128 2208 -7 2470 604 
C 2662 1048 2688 1568 2688 2038 
z
M 1466 -26 
C 1056 -26 813 328 723 816 
C 653 1196 653 1749 653 2109 
C 653 2604 653 3015 736 3407 
C 858 3954 1216 4121 1466 4121 
C 1728 4121 2067 3947 2189 3420 
C 2272 3054 2278 2623 2278 2109 
C 2278 1691 2278 1176 2202 797 
C 2067 96 1690 -26 1466 -26 
z
" transform="scale(0.015625)"/>
       </defs>
       <use xlink:href="#CMR17-34" transform="scale(0.996264)"/>
       <use xlink:href="#CMR17-30" transform="translate(45.690477 0) scale(0.996264)"/>
       <use xlink:href="#CMR17-30" transform="translate(91.380954 0) scale(0.996264)"/>
      </g>
     </g>
    </g>
    <g id="xtick_2">
     <g id="line2d_3">
      <path d="M 182.942595 308.481683 
L 182.942595 25.10218 
" clip-path="url(#p0f2ca8913d)" style="fill: none; stroke: #ffffff; stroke-width: 0.8; stroke-linecap: round"/>
     </g>
     <g id="line2d_4"/>
     <g id="text_2">
      <!-- $\mathdefault{500}$ -->
      <g style="fill: #262626" transform="translate(175.470592 318.900182) scale(0.1 -0.1)">
       <defs>
        <path id="CMR17-35" d="M 730 3750 
C 794 3724 1056 3641 1325 3641 
C 1920 3641 2246 3961 2432 4140 
C 2432 4191 2432 4224 2394 4224 
C 2387 4224 2374 4224 2323 4198 
C 2099 4102 1837 4032 1517 4032 
C 1325 4032 1037 4055 723 4191 
C 653 4224 640 4224 634 4224 
C 602 4224 595 4217 595 4090 
L 595 2231 
C 595 2113 595 2080 659 2080 
C 691 2080 704 2093 736 2139 
C 941 2435 1222 2560 1542 2560 
C 1766 2560 2246 2415 2246 1293 
C 2246 1087 2246 716 2054 422 
C 1894 159 1645 25 1370 25 
C 947 25 518 319 403 812 
C 429 806 480 793 506 793 
C 589 793 749 838 749 1036 
C 749 1209 627 1280 506 1280 
C 358 1280 262 1190 262 1011 
C 262 454 704 -128 1382 -128 
C 2042 -128 2669 441 2669 1267 
C 2669 2054 2170 2662 1549 2662 
C 1222 2662 947 2540 730 2304 
L 730 3750 
z
" transform="scale(0.015625)"/>
       </defs>
       <use xlink:href="#CMR17-35" transform="scale(0.996264)"/>
       <use xlink:href="#CMR17-30" transform="translate(45.690477 0) scale(0.996264)"/>
       <use xlink:href="#CMR17-30" transform="translate(91.380954 0) scale(0.996264)"/>
      </g>
     </g>
    </g>
    <g id="xtick_3">
     <g id="line2d_5">
      <path d="M 265.886117 308.481683 
L 265.886117 25.10218 
" clip-path="url(#p0f2ca8913d)" style="fill: none; stroke: #ffffff; stroke-width: 0.8; stroke-linecap: round"/>
     </g>
     <g id="line2d_6"/>
     <g id="text_3">
      <!-- $\mathdefault{600}$ -->
      <g style="fill: #262626" transform="translate(258.414114 318.900182) scale(0.1 -0.1)">
       <defs>
        <path id="CMR17-36" d="M 678 2198 
C 678 3712 1395 4076 1811 4076 
C 1946 4076 2272 4049 2400 3782 
C 2298 3782 2106 3782 2106 3558 
C 2106 3385 2246 3328 2336 3328 
C 2394 3328 2566 3353 2566 3571 
C 2566 3987 2246 4224 1805 4224 
C 1043 4224 243 3411 243 2011 
C 243 257 966 -128 1478 -128 
C 2099 -128 2688 431 2688 1295 
C 2688 2101 2170 2688 1517 2688 
C 1126 2688 838 2430 678 1979 
L 678 2198 
z
M 1478 25 
C 691 25 691 1212 691 1450 
C 691 1914 909 2585 1504 2585 
C 1613 2585 1926 2585 2138 2140 
C 2253 1889 2253 1624 2253 1302 
C 2253 954 2253 696 2118 438 
C 1978 173 1773 25 1478 25 
z
" transform="scale(0.015625)"/>
       </defs>
       <use xlink:href="#CMR17-36" transform="scale(0.996264)"/>
       <use xlink:href="#CMR17-30" transform="translate(45.690477 0) scale(0.996264)"/>
       <use xlink:href="#CMR17-30" transform="translate(91.380954 0) scale(0.996264)"/>
      </g>
     </g>
    </g>
    <g id="xtick_4">
     <g id="line2d_7">
      <path d="M 348.829639 308.481683 
L 348.829639 25.10218 
" clip-path="url(#p0f2ca8913d)" style="fill: none; stroke: #ffffff; stroke-width: 0.8; stroke-linecap: round"/>
     </g>
     <g id="line2d_8"/>
     <g id="text_4">
      <!-- $\mathdefault{700}$ -->
      <g style="fill: #262626" transform="translate(341.357636 318.900182) scale(0.1 -0.1)">
       <defs>
        <path id="CMR17-37" d="M 2886 3955 
L 2886 4096 
L 1382 4096 
C 634 4096 621 4166 595 4288 
L 480 4288 
L 294 3104 
L 410 3104 
C 429 3226 474 3552 550 3673 
C 589 3724 1062 3724 1171 3724 
L 2579 3724 
L 1869 2670 
C 1395 1961 1069 1003 1069 166 
C 1069 89 1069 -128 1299 -128 
C 1530 -128 1530 89 1530 172 
L 1530 466 
C 1530 1514 1709 2204 2003 2644 
L 2886 3955 
z
" transform="scale(0.015625)"/>
       </defs>
       <use xlink:href="#CMR17-37" transform="scale(0.996264)"/>
       <use xlink:href="#CMR17-30" transform="translate(45.690477 0) scale(0.996264)"/>
       <use xlink:href="#CMR17-30" transform="translate(91.380954 0) scale(0.996264)"/>
      </g>
     </g>
    </g>
    <g id="xtick_5">
     <g id="line2d_9">
      <path d="M 431.773161 308.481683 
L 431.773161 25.10218 
" clip-path="url(#p0f2ca8913d)" style="fill: none; stroke: #ffffff; stroke-width: 0.8; stroke-linecap: round"/>
     </g>
     <g id="line2d_10"/>
     <g id="text_5">
      <!-- $\mathdefault{800}$ -->
      <g style="fill: #262626" transform="translate(424.301158 318.900182) scale(0.1 -0.1)">
       <defs>
        <path id="CMR17-38" d="M 1741 2289 
C 2144 2494 2554 2803 2554 3298 
C 2554 3884 1990 4224 1472 4224 
C 890 4224 378 3800 378 3215 
C 378 3054 416 2777 666 2533 
C 730 2469 998 2276 1171 2154 
C 883 2006 211 1652 211 945 
C 211 282 838 -128 1459 -128 
C 2144 -128 2720 366 2720 1022 
C 2720 1607 2330 1877 2074 2051 
L 1741 2289 
z
M 902 2855 
C 851 2887 595 3086 595 3388 
C 595 3781 998 4076 1459 4076 
C 1965 4076 2336 3716 2336 3298 
C 2336 2700 1670 2359 1638 2359 
C 1632 2359 1626 2359 1574 2398 
L 902 2855 
z
M 2080 1536 
C 2176 1466 2483 1253 2483 861 
C 2483 385 2010 25 1472 25 
C 890 25 448 443 448 951 
C 448 1459 838 1884 1280 2083 
L 2080 1536 
z
" transform="scale(0.015625)"/>
       </defs>
       <use xlink:href="#CMR17-38" transform="scale(0.996264)"/>
       <use xlink:href="#CMR17-30" transform="translate(45.690477 0) scale(0.996264)"/>
       <use xlink:href="#CMR17-30" transform="translate(91.380954 0) scale(0.996264)"/>
      </g>
     </g>
    </g>
    <g id="text_6">
     <!-- $\lambda$ [nm] -->
     <g style="fill: #262626" transform="translate(230.690728 332.30934) scale(0.1 -0.1)">
      <defs>
       <path id="CMMI12-15" d="M 1978 3963 
C 1818 4416 1312 4416 1229 4416 
C 1190 4416 1120 4416 1120 4351 
C 1120 4300 1158 4294 1190 4287 
C 1286 4275 1363 4262 1466 4078 
C 1530 3957 2189 2055 2189 2042 
C 2189 2036 2182 2029 2131 1978 
L 467 305 
C 390 229 339 178 339 95 
C 339 6 416 -71 518 -71 
C 544 -71 614 -58 653 -20 
C 755 76 1670 1190 2253 1877 
C 2419 1380 2624 795 2822 261 
C 2854 165 2886 76 2976 -7 
C 3040 -64 3053 -64 3232 -64 
L 3354 -64 
C 3379 -64 3424 -64 3424 -13 
C 3424 12 3418 19 3392 44 
C 3334 114 3290 229 3264 305 
L 1978 3963 
z
" transform="scale(0.015625)"/>
       <path id="CMR17-5b" d="M 1504 -1600 
L 1504 -1376 
L 902 -1376 
L 902 4575 
L 1504 4575 
L 1504 4800 
L 678 4800 
L 678 -1600 
L 1504 -1600 
z
" transform="scale(0.015625)"/>
       <path id="CMR17-6e" d="M 2656 1954 
C 2656 2282 2592 2816 1837 2816 
C 1331 2816 1069 2424 973 2166 
L 966 2166 
L 966 2816 
L 211 2745 
L 211 2578 
C 589 2578 646 2540 646 2231 
L 646 443 
C 646 198 621 166 211 166 
L 211 0 
C 365 12 646 12 813 12 
C 979 12 1267 12 1421 0 
L 1421 166 
C 1011 166 986 192 986 443 
L 986 1678 
C 986 2269 1344 2713 1792 2713 
C 2266 2713 2317 2289 2317 1980 
L 2317 443 
C 2317 198 2291 166 1882 166 
L 1882 0 
C 2035 12 2317 12 2483 12 
C 2650 12 2938 12 3091 0 
L 3091 166 
C 2682 166 2656 192 2656 443 
L 2656 1954 
z
" transform="scale(0.015625)"/>
       <path id="CMR17-6d" d="M 4326 1954 
C 4326 2276 4269 2816 3507 2816 
C 3072 2816 2771 2520 2656 2173 
L 2650 2173 
C 2573 2700 2195 2816 1837 2816 
C 1331 2816 1069 2424 973 2166 
L 966 2166 
L 966 2816 
L 211 2745 
L 211 2578 
C 589 2578 646 2540 646 2231 
L 646 443 
C 646 198 621 166 211 166 
L 211 0 
C 365 12 646 12 813 12 
C 979 12 1267 12 1421 0 
L 1421 166 
C 1011 166 986 192 986 443 
L 986 1678 
C 986 2269 1344 2713 1792 2713 
C 2266 2713 2317 2289 2317 1980 
L 2317 443 
C 2317 198 2291 166 1882 166 
L 1882 0 
C 2035 12 2317 12 2483 12 
C 2650 12 2938 12 3091 0 
L 3091 166 
C 2682 166 2656 192 2656 443 
L 2656 1678 
C 2656 2269 3014 2713 3462 2713 
C 3936 2713 3987 2289 3987 1980 
L 3987 443 
C 3987 198 3962 166 3552 166 
L 3552 0 
C 3706 12 3987 12 4154 12 
C 4320 12 4608 12 4762 0 
L 4762 166 
C 4352 166 4326 192 4326 443 
L 4326 1954 
z
" transform="scale(0.015625)"/>
       <path id="CMR17-5d" d="M 915 4800 
L 90 4800 
L 90 4575 
L 691 4575 
L 691 -1376 
L 90 -1376 
L 90 -1600 
L 915 -1600 
L 915 4800 
z
" transform="scale(0.015625)"/>
      </defs>
      <use xlink:href="#CMMI12-15" transform="scale(0.996264)"/>
      <use xlink:href="#CMR17-5b" transform="translate(86.980038 0) scale(0.996264)"/>
      <use xlink:href="#CMR17-6e" transform="translate(111.851097 0) scale(0.996264)"/>
      <use xlink:href="#CMR17-6d" transform="translate(162.746466 0) scale(0.996264)"/>
      <use xlink:href="#CMR17-5d" transform="translate(239.666056 0) scale(0.996264)"/>
     </g>
    </g>
   </g>
   <g id="matplotlib.axis_2">
    <g id="ytick_1">
     <g id="line2d_11">
      <path d="M 39.885756 304.71117 
L 450 304.71117 
" clip-path="url(#p0f2ca8913d)" style="fill: none; stroke: #ffffff; stroke-width: 0.8; stroke-linecap: round"/>
     </g>
     <g id="line2d_12"/>
     <g id="text_7">
      <!-- $\mathdefault{0.5}$ -->
      <g style="fill: #262626" transform="translate(23.655677 308.170419) scale(0.1 -0.1)">
       <defs>
        <path id="CMMI12-3a" d="M 1178 307 
C 1178 492 1024 620 870 620 
C 685 620 557 467 557 313 
C 557 128 710 0 864 0 
C 1050 0 1178 153 1178 307 
z
" transform="scale(0.015625)"/>
       </defs>
       <use xlink:href="#CMR17-30" transform="scale(0.996264)"/>
       <use xlink:href="#CMMI12-3a" transform="translate(45.690477 0) scale(0.996264)"/>
       <use xlink:href="#CMR17-35" transform="translate(72.787654 0) scale(0.996264)"/>
      </g>
     </g>
    </g>
    <g id="ytick_2">
     <g id="line2d_13">
      <path d="M 39.885756 251.365549 
L 450 251.365549 
" clip-path="url(#p0f2ca8913d)" style="fill: none; stroke: #ffffff; stroke-width: 0.8; stroke-linecap: round"/>
     </g>
     <g id="line2d_14"/>
     <g id="text_8">
      <!-- $\mathdefault{0.6}$ -->
      <g style="fill: #262626" transform="translate(23.655677 254.824799) scale(0.1 -0.1)">
       <use xlink:href="#CMR17-30" transform="scale(0.996264)"/>
       <use xlink:href="#CMMI12-3a" transform="translate(45.690477 0) scale(0.996264)"/>
       <use xlink:href="#CMR17-36" transform="translate(72.787654 0) scale(0.996264)"/>
      </g>
     </g>
    </g>
    <g id="ytick_3">
     <g id="line2d_15">
      <path d="M 39.885756 198.019929 
L 450 198.019929 
" clip-path="url(#p0f2ca8913d)" style="fill: none; stroke: #ffffff; stroke-width: 0.8; stroke-linecap: round"/>
     </g>
     <g id="line2d_16"/>
     <g id="text_9">
      <!-- $\mathdefault{0.7}$ -->
      <g style="fill: #262626" transform="translate(23.655677 201.479178) scale(0.1 -0.1)">
       <use xlink:href="#CMR17-30" transform="scale(0.996264)"/>
       <use xlink:href="#CMMI12-3a" transform="translate(45.690477 0) scale(0.996264)"/>
       <use xlink:href="#CMR17-37" transform="translate(72.787654 0) scale(0.996264)"/>
      </g>
     </g>
    </g>
    <g id="ytick_4">
     <g id="line2d_17">
      <path d="M 39.885756 144.674308 
L 450 144.674308 
" clip-path="url(#p0f2ca8913d)" style="fill: none; stroke: #ffffff; stroke-width: 0.8; stroke-linecap: round"/>
     </g>
     <g id="line2d_18"/>
     <g id="text_10">
      <!-- $\mathdefault{0.8}$ -->
      <g style="fill: #262626" transform="translate(23.655677 148.133557) scale(0.1 -0.1)">
       <use xlink:href="#CMR17-30" transform="scale(0.996264)"/>
       <use xlink:href="#CMMI12-3a" transform="translate(45.690477 0) scale(0.996264)"/>
       <use xlink:href="#CMR17-38" transform="translate(72.787654 0) scale(0.996264)"/>
      </g>
     </g>
    </g>
    <g id="ytick_5">
     <g id="line2d_19">
      <path d="M 39.885756 91.328687 
L 450 91.328687 
" clip-path="url(#p0f2ca8913d)" style="fill: none; stroke: #ffffff; stroke-width: 0.8; stroke-linecap: round"/>
     </g>
     <g id="line2d_20"/>
     <g id="text_11">
      <!-- $\mathdefault{0.9}$ -->
      <g style="fill: #262626" transform="translate(23.655677 94.787936) scale(0.1 -0.1)">
       <defs>
        <path id="CMR17-39" d="M 2253 1871 
C 2253 448 1670 25 1190 25 
C 1043 25 685 43 538 281 
C 704 256 826 345 826 505 
C 826 678 685 736 595 736 
C 538 736 365 710 365 492 
C 365 68 742 -128 1203 -128 
C 1939 -128 2688 665 2688 2090 
C 2688 3857 1971 4224 1485 4224 
C 851 4224 243 3664 243 2800 
C 243 2000 762 1408 1414 1408 
C 1952 1408 2189 1910 2253 2122 
L 2253 1871 
z
M 1427 1510 
C 1254 1510 1011 1542 813 1929 
C 678 2181 678 2477 678 2793 
C 678 3174 678 3438 858 3722 
C 947 3857 1114 4076 1485 4076 
C 2240 4076 2240 2909 2240 2651 
C 2240 2193 2035 1510 1427 1510 
z
" transform="scale(0.015625)"/>
       </defs>
       <use xlink:href="#CMR17-30" transform="scale(0.996264)"/>
       <use xlink:href="#CMMI12-3a" transform="translate(45.690477 0) scale(0.996264)"/>
       <use xlink:href="#CMR17-39" transform="translate(72.787654 0) scale(0.996264)"/>
      </g>
     </g>
    </g>
    <g id="ytick_6">
     <g id="line2d_21">
      <path d="M 39.885756 37.983066 
L 450 37.983066 
" clip-path="url(#p0f2ca8913d)" style="fill: none; stroke: #ffffff; stroke-width: 0.8; stroke-linecap: round"/>
     </g>
     <g id="line2d_22"/>
     <g id="text_12">
      <!-- $\mathdefault{1.0}$ -->
      <g style="fill: #262626" transform="translate(23.655677 41.442316) scale(0.1 -0.1)">
       <defs>
        <path id="CMR17-31" d="M 1702 4083 
C 1702 4217 1696 4224 1606 4224 
C 1357 3927 979 3833 621 3820 
C 602 3820 570 3820 563 3808 
C 557 3795 557 3782 557 3648 
C 755 3648 1088 3686 1344 3839 
L 1344 467 
C 1344 243 1331 166 781 166 
L 589 166 
L 589 0 
C 896 6 1216 12 1523 12 
C 1830 12 2150 6 2458 0 
L 2458 166 
L 2266 166 
C 1715 166 1702 236 1702 467 
L 1702 4083 
z
" transform="scale(0.015625)"/>
       </defs>
       <use xlink:href="#CMR17-31" transform="scale(0.996264)"/>
       <use xlink:href="#CMMI12-3a" transform="translate(45.690477 0) scale(0.996264)"/>
       <use xlink:href="#CMR17-30" transform="translate(72.787654 0) scale(0.996264)"/>
      </g>
     </g>
    </g>
    <g id="text_13">
     <!-- absorbance -->
     <g style="fill: #262626" transform="translate(17.718498 190.909871) rotate(-90) scale(0.1 -0.1)">
      <defs>
       <path id="CMR17-61" d="M 2304 1656 
C 2304 2048 2304 2275 2035 2534 
C 1798 2751 1523 2816 1306 2816 
C 800 2816 435 2408 435 1977 
C 435 1740 627 1728 666 1728 
C 749 1728 896 1779 896 1958 
C 896 2118 774 2188 666 2188 
C 640 2188 608 2182 589 2176 
C 723 2594 1069 2713 1293 2713 
C 1613 2713 1965 2421 1965 1875 
L 1965 1632 
C 1587 1619 1133 1568 774 1373 
C 371 1147 256 822 256 576 
C 256 77 832 -64 1171 -64 
C 1523 -64 1850 135 1990 505 
C 2003 219 2182 -39 2464 -39 
C 2598 -39 2938 51 2938 563 
L 2938 926 
L 2822 926 
L 2822 557 
C 2822 161 2650 109 2566 109 
C 2304 109 2304 446 2304 732 
L 2304 1656 
z
M 1965 887 
C 1965 323 1568 38 1216 38 
C 896 38 646 278 646 576 
C 646 771 730 1114 1101 1322 
C 1408 1497 1760 1523 1965 1536 
L 1965 887 
z
" transform="scale(0.015625)"/>
       <path id="CMR17-62" d="M 960 4416 
L 198 4345 
L 198 4179 
C 576 4179 634 4141 634 3843 
L 634 -13 
L 749 -13 
L 934 445 
C 1120 141 1395 -64 1766 -64 
C 2406 -64 3053 503 3053 1382 
C 3053 2209 2477 2816 1830 2816 
C 1434 2816 1152 2603 960 2351 
L 960 4416 
z
M 973 2022 
C 973 2138 973 2157 1062 2293 
C 1312 2681 1670 2713 1792 2713 
C 1984 2713 2643 2610 2643 1388 
C 2643 109 1888 38 1734 38 
C 1536 38 1248 115 1043 490 
C 973 613 973 626 973 742 
L 973 2022 
z
" transform="scale(0.015625)"/>
       <path id="CMR17-73" d="M 1978 2688 
C 1978 2803 1971 2809 1933 2809 
C 1907 2809 1901 2803 1824 2707 
C 1805 2681 1747 2617 1728 2592 
C 1523 2809 1235 2816 1126 2816 
C 416 2816 160 2444 160 2073 
C 160 1497 813 1363 998 1324 
C 1402 1241 1542 1216 1677 1100 
C 1760 1024 1901 883 1901 652 
C 1901 384 1747 38 1158 38 
C 602 38 403 460 288 1024 
C 269 1113 269 1120 218 1120 
C 166 1120 160 1113 160 985 
L 160 64 
C 160 -52 166 -58 205 -58 
C 237 -58 243 -52 275 0 
C 314 57 410 211 448 275 
C 576 102 800 -64 1158 -64 
C 1792 -64 2131 281 2131 780 
C 2131 1107 1958 1280 1875 1356 
C 1683 1555 1459 1600 1190 1651 
C 838 1728 390 1817 390 2208 
C 390 2374 480 2726 1126 2726 
C 1811 2726 1850 2086 1862 1881 
C 1869 1849 1901 1843 1920 1843 
C 1978 1843 1978 1862 1978 1971 
L 1978 2688 
z
" transform="scale(0.015625)"/>
       <path id="CMR17-6f" d="M 2758 1356 
C 2758 2176 2163 2816 1466 2816 
C 768 2816 173 2176 173 1356 
C 173 550 768 -64 1466 -64 
C 2163 -64 2758 550 2758 1356 
z
M 1466 51 
C 1165 51 909 230 762 480 
C 602 768 582 1126 582 1408 
C 582 1676 595 2009 762 2297 
C 890 2508 1139 2713 1466 2713 
C 1754 2713 1997 2553 2150 2329 
C 2349 2028 2349 1606 2349 1408 
C 2349 1158 2336 774 2163 467 
C 1984 172 1709 51 1466 51 
z
" transform="scale(0.015625)"/>
       <path id="CMR17-72" d="M 960 1517 
C 960 2134 1222 2713 1702 2713 
C 1747 2713 1792 2707 1837 2687 
C 1837 2687 1696 2642 1696 2475 
C 1696 2321 1818 2257 1914 2257 
C 1990 2257 2131 2302 2131 2482 
C 2131 2687 1926 2816 1709 2816 
C 1222 2816 1011 2340 947 2115 
L 941 2115 
L 941 2816 
L 198 2745 
L 198 2578 
C 576 2578 634 2540 634 2231 
L 634 443 
C 634 198 608 166 198 166 
L 198 0 
C 352 12 646 12 813 12 
C 998 12 1325 12 1498 0 
L 1498 166 
C 1037 166 960 166 960 455 
L 960 1517 
z
" transform="scale(0.015625)"/>
       <path id="CMR17-63" d="M 2234 2240 
C 2112 2240 1933 2240 1933 2015 
C 1933 1836 2080 1785 2163 1785 
C 2208 1785 2394 1804 2394 2028 
C 2394 2476 1958 2816 1466 2816 
C 787 2816 211 2201 211 1379 
C 211 521 813 -64 1466 -64 
C 2259 -64 2458 676 2458 747 
C 2458 773 2451 792 2406 792 
C 2362 792 2355 786 2330 702 
C 2163 180 1798 51 1523 51 
C 1114 51 621 431 621 1385 
C 621 2358 1094 2700 1472 2700 
C 1722 2700 2093 2582 2234 2240 
z
" transform="scale(0.015625)"/>
       <path id="CMR17-65" d="M 2438 1503 
C 2464 1529 2464 1542 2464 1606 
C 2464 2251 2118 2816 1389 2816 
C 710 2816 173 2175 173 1394 
C 173 554 781 -64 1459 -64 
C 2176 -64 2458 619 2458 755 
C 2458 800 2419 800 2406 800 
C 2362 800 2355 787 2330 709 
C 2189 270 1837 51 1504 51 
C 1229 51 954 206 781 490 
C 582 819 582 1200 582 1503 
L 2438 1503 
z
M 589 1600 
C 634 2511 1126 2713 1382 2713 
C 1818 2713 2112 2308 2118 1600 
L 589 1600 
z
" transform="scale(0.015625)"/>
      </defs>
      <use xlink:href="#CMR17-61" transform="scale(0.996264)"/>
      <use xlink:href="#CMR17-62" transform="translate(45.690477 0) scale(0.996264)"/>
      <use xlink:href="#CMR17-73" transform="translate(96.585847 0) scale(0.996264)"/>
      <use xlink:href="#CMR17-6f" transform="translate(132.387185 0) scale(0.996264)"/>
      <use xlink:href="#CMR17-72" transform="translate(178.077662 0) scale(0.996264)"/>
      <use xlink:href="#CMR17-62" transform="translate(213.358429 0) scale(0.996264)"/>
      <use xlink:href="#CMR17-61" transform="translate(264.253799 0) scale(0.996264)"/>
      <use xlink:href="#CMR17-6e" transform="translate(309.944276 0) scale(0.996264)"/>
      <use xlink:href="#CMR17-63" transform="translate(360.839646 0) scale(0.996264)"/>
      <use xlink:href="#CMR17-65" transform="translate(401.325307 0) scale(0.996264)"/>
     </g>
    </g>
   </g>
   <g id="line2d_23">
    <path d="M 431.358443 289.733358 
L 430.943726 278.287235 
L 430.529008 280.751354 
L 430.114291 292.973463 
L 429.699573 283.789878 
L 429.284855 289.414886 
L 428.870138 278.48747 
L 428.040703 291.409899 
L 427.625985 279.886177 
L 427.211267 282.047999 
L 426.79655 290.069519 
L 426.381832 287.20098 
L 425.967115 285.87547 
L 425.552397 292.910247 
L 425.137679 273.824031 
L 424.722962 287.38193 
L 424.308244 286.339045 
L 423.893526 287.740872 
L 423.478809 286.790893 
L 422.649374 278.087118 
L 422.234656 288.780962 
L 421.819938 279.61903 
L 421.405221 288.923068 
L 420.990503 279.150137 
L 420.575786 280.084625 
L 420.161068 279.482613 
L 419.74635 284.140976 
L 419.331633 279.017714 
L 418.916915 286.198983 
L 418.502198 286.091457 
L 418.08748 277.223177 
L 417.672762 295.600797 
L 417.258045 274.897043 
L 416.843327 287.361975 
L 416.428609 279.845806 
L 416.013892 286.2851 
L 415.599174 267.928145 
L 415.184457 282.070182 
L 414.769739 273.537128 
L 414.355021 284.952797 
L 413.940304 278.518671 
L 413.525586 283.368951 
L 413.110869 290.499319 
L 412.696151 275.068638 
L 412.281433 277.721656 
L 411.866716 285.24393 
L 411.451998 278.386021 
L 411.037281 280.740589 
L 410.622563 282.364467 
L 410.207845 272.611148 
L 409.793128 280.839136 
L 409.37841 280.638531 
L 408.963693 282.260891 
L 408.548975 280.572836 
L 408.134257 272.05098 
L 407.71954 277.655589 
L 407.304822 286.99288 
L 406.890104 267.700968 
L 406.475387 276.298506 
L 406.060669 282.331799 
L 405.645952 278.947709 
L 405.231234 281.265401 
L 404.816516 276.198556 
L 404.401799 289.103539 
L 403.987081 282.026949 
L 403.572364 277.3248 
L 403.157646 287.38963 
L 402.742928 278.748543 
L 402.328211 288.48385 
L 401.913493 274.942497 
L 401.498776 271.593159 
L 401.084058 281.989104 
L 400.66934 282.990253 
L 400.254623 282.424026 
L 399.839905 272.726161 
L 399.01047 289.12095 
L 398.595752 276.067674 
L 398.181035 276.597949 
L 397.766317 287.914269 
L 397.351599 280.435003 
L 396.936882 293.554531 
L 396.522164 278.252217 
L 396.107447 275.373197 
L 395.692729 279.242848 
L 395.278011 271.466146 
L 394.863294 285.524707 
L 394.448576 281.261158 
L 394.033859 275.143001 
L 393.619141 279.474875 
L 393.204423 279.441983 
L 392.789706 275.706676 
L 392.374988 277.193989 
L 391.960271 272.605315 
L 391.545553 291.320029 
L 391.130835 274.616464 
L 390.3014 277.261206 
L 389.886682 284.028631 
L 389.471965 279.9018 
L 389.057247 273.465349 
L 388.64253 279.274079 
L 388.227812 276.139076 
L 387.813094 276.566547 
L 386.983659 280.265008 
L 386.568942 277.262143 
L 386.154224 286.530723 
L 385.739506 278.119329 
L 385.324789 285.440981 
L 384.910071 277.954377 
L 384.495354 277.394265 
L 384.080636 280.262069 
L 383.665918 276.603325 
L 383.251201 277.460282 
L 382.836483 280.882258 
L 382.421765 275.419878 
L 382.007048 283.281265 
L 381.59233 278.678925 
L 381.177613 282.854637 
L 380.762895 264.854311 
L 380.348177 283.578752 
L 379.93346 287.520052 
L 379.518742 273.288414 
L 379.104025 275.724242 
L 378.689307 273.382618 
L 378.274589 278.971782 
L 377.445154 277.397309 
L 377.030437 274.708743 
L 376.615719 281.726667 
L 376.201001 273.89341 
L 375.786284 283.710526 
L 375.371566 268.665838 
L 374.956849 275.861845 
L 374.542131 277.039212 
L 374.127413 271.883149 
L 373.712696 271.399341 
L 373.297978 281.408548 
L 372.88326 268.276291 
L 372.468543 278.96301 
L 372.053825 276.851011 
L 371.639108 269.316372 
L 371.22439 279.736657 
L 370.809672 269.62761 
L 370.394955 276.373633 
L 369.980237 268.59556 
L 369.56552 279.922382 
L 369.150802 272.361442 
L 368.736084 273.047922 
L 368.321367 275.426065 
L 367.906649 277.059399 
L 367.491932 276.521887 
L 367.077214 271.912851 
L 366.662496 280.208796 
L 366.247779 270.399159 
L 365.833061 277.640394 
L 365.418343 278.427743 
L 365.003626 272.646081 
L 364.588908 271.289716 
L 364.174191 272.894884 
L 363.759473 282.010499 
L 363.344755 283.08929 
L 362.930038 267.10773 
L 362.51532 280.328403 
L 362.100603 270.931043 
L 361.685885 275.454086 
L 361.271167 273.426953 
L 360.85645 272.889266 
L 360.441732 277.671189 
L 360.027015 274.529978 
L 359.612297 276.809759 
L 359.197579 276.357648 
L 358.782862 273.758421 
L 358.368144 266.665241 
L 357.953427 275.991269 
L 357.538709 263.784991 
L 357.123991 274.713402 
L 356.709274 266.174483 
L 356.294556 285.957984 
L 355.879838 270.190401 
L 355.465121 274.593502 
L 355.050403 275.765845 
L 354.635686 275.861845 
L 354.220968 277.169308 
L 353.80625 267.418765 
L 353.391533 280.474832 
L 352.976815 266.700127 
L 352.562098 270.697424 
L 352.14738 264.493646 
L 351.732662 275.370316 
L 351.317945 270.889231 
L 350.903227 268.048788 
L 350.48851 273.898651 
L 350.073792 275.076704 
L 349.659074 271.449332 
L 349.244357 270.496272 
L 348.829639 267.832847 
L 348.414921 261.246102 
L 348.000204 273.273214 
L 347.585486 271.449332 
L 347.170769 271.834098 
L 346.756051 270.95622 
L 346.341333 272.68688 
L 345.926616 269.193586 
L 345.511898 263.330807 
L 345.097181 270.429162 
L 344.682463 270.012667 
L 344.267745 268.171376 
L 343.853028 270.170439 
L 343.43831 269.238529 
L 343.023593 266.63216 
L 342.608875 268.810996 
L 342.194157 267.622025 
L 341.77944 264.92164 
L 341.364722 265.195037 
L 340.535287 271.440956 
L 340.120569 265.572465 
L 339.705852 272.001089 
L 339.291134 267.934485 
L 338.876416 272.806799 
L 338.461699 271.466061 
L 337.632264 265.47 
L 337.217546 272.706663 
L 336.802828 265.777191 
L 336.388111 266.671146 
L 335.973393 263.449541 
L 335.558676 271.658809 
L 334.72924 261.666687 
L 334.314523 267.303346 
L 333.899805 267.866734 
L 333.485088 265.863923 
L 333.07037 266.12144 
L 332.655652 268.213964 
L 332.240935 263.243207 
L 331.826217 266.65163 
L 330.996782 262.247875 
L 330.582064 266.12144 
L 330.167347 273.494371 
L 329.752629 266.773311 
L 329.337911 257.897351 
L 328.923194 265.761527 
L 328.508476 266.65163 
L 328.093759 274.376847 
L 327.679041 262.282422 
L 327.264323 261.424323 
L 326.849606 256.713786 
L 326.434888 273.721803 
L 326.020171 262.53871 
L 325.605453 261.203142 
L 325.190735 263.430887 
L 324.776018 264.013272 
L 324.3613 261.867351 
L 323.946583 267.853743 
L 323.531865 268.799211 
L 323.117147 260.739335 
L 322.70243 266.929249 
L 322.287712 266.174483 
L 321.872994 264.013272 
L 321.458277 257.186976 
L 321.043559 271.784784 
L 320.628842 262.296828 
L 320.214124 264.527648 
L 319.799406 261.74962 
L 319.384689 268.799211 
L 318.969971 255.507412 
L 318.555254 261.21628 
L 318.140536 259.531941 
L 317.725818 259.706371 
L 317.311101 262.123822 
L 316.896383 266.398371 
L 316.481666 258.48641 
L 316.066948 263.343252 
L 315.65223 265.730078 
L 315.237513 258.706554 
L 314.822795 257.160232 
L 314.408077 260.043386 
L 313.99336 265.866956 
L 313.578642 258.065688 
L 313.163925 259.357315 
L 312.749207 255.613531 
L 312.334489 255.790237 
L 311.919772 261.6731 
L 311.505054 258.92692 
L 311.090337 255.330388 
L 310.675619 254.142375 
L 310.260901 261.395079 
L 309.846184 257.564512 
L 309.431466 259.682857 
L 309.016749 257.749402 
L 308.602031 259.915471 
L 308.187313 255.987813 
L 307.772596 255.224078 
L 307.357878 255.230227 
L 306.943161 256.447396 
L 306.528443 259.775623 
L 306.113725 258.762122 
L 305.699008 253.211219 
L 304.869572 255.38479 
L 304.454855 252.238265 
L 304.040137 256.320991 
L 303.62542 251.877002 
L 303.210702 257.33533 
L 302.795984 257.450016 
L 302.381267 250.650071 
L 301.966549 252.459098 
L 301.551832 253.683703 
L 301.137114 251.303055 
L 300.722396 251.411244 
L 300.307679 250.433873 
L 299.892961 251.339126 
L 299.478244 251.268476 
L 299.063526 253.987905 
L 298.648808 249.30982 
L 298.234091 250.616157 
L 297.819373 250.761915 
L 297.404655 246.074338 
L 296.989938 245.931958 
L 296.57522 249.271741 
L 296.160503 250.871632 
L 295.745785 246.866765 
L 295.331067 248.979891 
L 294.91635 251.856411 
L 294.501632 248.724088 
L 294.086915 252.187144 
L 293.672197 251.020231 
L 293.257479 248.431244 
L 292.842762 247.699542 
L 292.428044 250.400054 
L 292.013327 246.351065 
L 291.598609 249.343065 
L 291.183891 248.176737 
L 290.769174 250.653933 
L 290.354456 251.23821 
L 289.939739 249.78095 
L 289.525021 249.599441 
L 289.110303 243.585226 
L 288.695586 247.247182 
L 288.280868 240.924502 
L 287.451433 243.013603 
L 287.036715 247.124811 
L 286.621998 240.988254 
L 286.20728 241.834934 
L 285.792562 237.054989 
L 285.377845 246.219549 
L 284.963127 238.792008 
L 284.133692 244.884691 
L 283.718974 232.373985 
L 283.304257 238.893573 
L 282.889539 233.361841 
L 282.474822 237.26302 
L 282.060104 233.19499 
L 281.645386 239.187833 
L 281.230669 234.550502 
L 280.815951 236.051492 
L 280.401233 235.05122 
L 279.986516 227.11398 
L 279.571798 231.484457 
L 279.157081 231.521894 
L 278.742363 238.175778 
L 278.327645 228.233048 
L 277.912928 234.663294 
L 277.49821 229.065324 
L 277.083493 226.757458 
L 276.668775 228.094345 
L 276.254057 228.245727 
L 275.83934 225.660292 
L 275.424622 231.837513 
L 275.009905 221.829993 
L 274.595187 227.501597 
L 274.180469 224.572079 
L 273.765752 225.078262 
L 273.351034 224.572079 
L 272.936317 225.145191 
L 272.521599 223.043894 
L 272.106881 229.02759 
L 271.692164 218.535017 
L 271.277446 220.137284 
L 270.862728 220.533276 
L 270.448011 216.417234 
L 270.033293 220.451287 
L 269.618576 213.084975 
L 269.203858 218.846324 
L 268.78914 215.320376 
L 268.374423 214.418913 
L 267.959705 212.969607 
L 267.544988 221.42694 
L 267.13027 210.736541 
L 266.300835 214.418913 
L 265.886117 208.319496 
L 265.4714 215.124029 
L 265.056682 209.879088 
L 264.641964 212.462722 
L 264.227247 206.983941 
L 263.812529 206.943791 
L 263.397811 207.727654 
L 262.983094 210.151499 
L 262.568376 204.94295 
L 262.153659 207.687586 
L 261.738941 198.825513 
L 261.324223 202.832455 
L 260.909506 197.811733 
L 260.494788 208.439378 
L 260.080071 195.702998 
L 259.665353 199.669188 
L 259.250635 199.505352 
L 258.835918 194.011388 
L 258.4212 195.495849 
L 258.006483 193.387334 
L 257.591765 194.607604 
L 257.177047 189.945425 
L 256.76233 200.707202 
L 256.347612 187.251109 
L 255.932895 194.422526 
L 255.518177 185.752304 
L 255.103459 192.684789 
L 254.688742 188.26155 
L 254.274024 186.634302 
L 253.859306 180.769975 
L 253.444589 186.314741 
L 253.029871 180.554735 
L 252.615154 187.504925 
L 252.200436 176.964603 
L 251.785718 180.370848 
L 251.371001 180.339256 
L 250.956283 178.92797 
L 250.541566 179.196214 
L 250.126848 175.213044 
L 249.71213 178.058753 
L 249.297413 168.475882 
L 248.882695 176.834195 
L 248.467978 165.01643 
L 248.05326 177.271413 
L 247.638542 159.290212 
L 247.223825 166.073206 
L 246.809107 161.949616 
L 246.394389 169.485403 
L 245.979672 160.506233 
L 245.564954 161.295692 
L 245.150237 161.47639 
L 244.735519 159.168044 
L 244.320801 163.268532 
L 243.906084 156.389753 
L 243.491366 157.665897 
L 243.076649 148.365221 
L 242.661931 159.68478 
L 242.247213 149.783044 
L 241.832496 147.596843 
L 241.417778 144.412373 
L 241.003061 150.759121 
L 240.588343 140.248997 
L 240.173625 144.713861 
L 239.758908 142.038439 
L 239.34419 143.574111 
L 238.100037 134.654493 
L 237.68532 126.954912 
L 237.270602 147.316434 
L 236.855884 131.529221 
L 236.026449 119.903567 
L 235.611732 136.096281 
L 235.197014 124.923671 
L 234.782296 134.606318 
L 234.367579 117.471634 
L 233.952861 125.271915 
L 233.538144 120.995955 
L 233.123426 113.047566 
L 232.708708 117.31835 
L 232.293991 118.607368 
L 231.879273 117.963748 
L 231.049838 108.47386 
L 230.63512 114.970971 
L 230.220403 114.134427 
L 229.805685 105.620605 
L 229.390967 107.26742 
L 228.97625 102.546265 
L 228.561532 108.810928 
L 228.146815 99.144572 
L 227.732097 97.460928 
L 227.317379 100.862912 
L 226.902662 101.836134 
L 226.487944 99.162699 
L 226.073227 90.929149 
L 225.658509 91.325284 
L 225.243791 92.399248 
L 224.829074 89.381129 
L 224.414356 89.435284 
L 223.999639 86.208026 
L 223.584921 91.463825 
L 223.170203 84.398256 
L 222.755486 81.380723 
L 222.340768 79.303378 
L 221.926051 79.303378 
L 221.511333 79.744182 
L 221.096615 75.460553 
L 220.681898 79.852965 
L 220.26718 72.748695 
L 219.852462 74.983488 
L 219.437745 70.633517 
L 219.023027 74.730293 
L 218.60831 70.108275 
L 218.193592 68.528296 
L 217.778874 71.020679 
L 217.364157 65.06925 
L 216.534722 62.81874 
L 216.120004 63.453403 
L 215.705286 60.006423 
L 215.290569 62.071768 
L 214.875851 55.579443 
L 214.461134 64.90117 
L 214.046416 57.878048 
L 213.631698 57.589677 
L 213.216981 58.275189 
L 212.802263 57.537151 
L 212.387545 57.646472 
L 211.972828 47.529389 
L 211.55811 54.544224 
L 210.728675 53.048757 
L 210.313957 47.300493 
L 209.89924 51.957711 
L 209.484522 49.142089 
L 209.069805 53.911466 
L 207.825652 46.157886 
L 207.410934 50.692981 
L 206.996217 50.234703 
L 206.581499 44.950882 
L 206.166781 50.923685 
L 205.752064 45.067179 
L 205.337346 52.760511 
L 204.922628 41.319952 
L 204.507911 46.614555 
L 204.093193 43.812821 
L 203.678476 51.096117 
L 203.263758 42.483613 
L 202.84904 42.139596 
L 202.434323 44.267674 
L 202.019605 48.223989 
L 201.604888 49.204854 
L 201.19017 46.733975 
L 200.775452 47.081331 
L 200.360735 45.759744 
L 199.946017 54.4787 
L 199.5313 40.076231 
L 199.116582 53.162127 
L 198.701864 47.312645 
L 198.287147 50.923685 
L 197.872429 50.694829 
L 197.457712 49.662463 
L 197.042994 49.663814 
L 196.628276 55.400003 
L 196.213559 55.855259 
L 195.798841 51.727389 
L 195.384123 54.592669 
L 194.969406 53.389541 
L 194.554688 59.355616 
L 194.139971 51.440638 
L 193.725253 61.87326 
L 193.310535 55.048043 
L 192.895818 58.548487 
L 192.4811 57.681337 
L 192.066383 57.454933 
L 191.651665 60.020551 
L 191.236947 65.699992 
L 190.82223 66.478655 
L 190.407512 60.420405 
L 189.578077 66.745356 
L 189.163359 68.150933 
L 188.748642 65.296898 
L 188.333924 72.608045 
L 187.919206 67.133093 
L 187.089771 73.270619 
L 186.675054 69.244909 
L 186.260336 69.820832 
L 185.845618 74.338703 
L 185.430901 76.24066 
L 184.601466 70.625225 
L 184.186748 77.525589 
L 183.77203 75.354189 
L 183.357313 76.991093 
L 182.942595 70.020539 
L 182.527878 77.540259 
L 182.11316 80.226937 
L 181.698442 78.298065 
L 181.283725 75.807141 
L 180.869007 78.524733 
L 180.45429 90.164302 
L 180.039572 82.847827 
L 179.624854 84.393814 
L 179.210137 83.680605 
L 178.795419 92.702681 
L 178.380701 88.308721 
L 177.965984 90.82087 
L 177.551266 88.206903 
L 177.136549 91.048825 
L 176.721831 92.019861 
L 176.307113 92.291571 
L 175.892396 85.936812 
L 175.477678 94.917701 
L 175.062961 98.138038 
L 174.648243 99.069908 
L 174.233525 92.696507 
L 173.818808 98.192378 
L 173.40409 96.897658 
L 172.989373 97.960823 
L 172.574655 105.75111 
L 172.159937 93.094464 
L 171.74522 102.766388 
L 171.330502 95.050388 
L 170.915784 100.810019 
L 170.501067 93.799232 
L 170.086349 108.115357 
L 169.671632 102.626895 
L 169.256914 106.435073 
L 168.842196 100.543953 
L 168.427479 101.764466 
L 168.012761 106.934 
L 167.598044 100.098858 
L 167.183326 109.397482 
L 166.768608 101.068863 
L 166.353891 113.84606 
L 165.939173 100.4435 
L 165.524456 110.852804 
L 165.109738 99.918563 
L 164.69502 113.397353 
L 164.280303 107.639849 
L 163.865585 110.3655 
L 163.450868 99.36336 
L 163.03615 111.594694 
L 162.621432 106.424066 
L 162.206715 111.800216 
L 161.791997 108.786015 
L 160.962562 114.213509 
L 160.547844 105.830624 
L 160.133127 118.40061 
L 159.303691 112.519825 
L 158.888974 115.348186 
L 158.474256 117.255822 
L 158.059539 109.307912 
L 157.644821 114.916377 
L 157.230103 116.855102 
L 156.815386 123.119875 
L 156.400668 113.56176 
L 155.985951 116.5002 
L 155.571233 108.813123 
L 155.156515 114.643304 
L 154.741798 113.381094 
L 154.32708 123.558652 
L 153.912362 109.842439 
L 153.497645 119.001131 
L 153.082927 111.432023 
L 152.66821 117.551549 
L 152.253492 118.376347 
L 151.838774 114.215885 
L 151.424057 119.69568 
L 151.009339 114.959145 
L 150.594622 114.790309 
L 150.179904 113.765002 
L 149.765186 116.60303 
L 149.350469 120.467143 
L 148.935751 119.302487 
L 148.521034 117.601627 
L 148.106316 126.50847 
L 147.691598 118.817123 
L 147.276881 114.737002 
L 146.447446 126.861773 
L 146.032728 118.687749 
L 145.61801 126.548613 
L 145.203293 119.576846 
L 144.788575 120.292121 
L 144.373857 119.530868 
L 143.95914 125.03047 
L 143.544422 120.423705 
L 143.129705 119.348782 
L 142.714987 125.807187 
L 142.300269 125.94036 
L 141.885552 123.2104 
L 141.470834 121.950854 
L 141.056117 121.546363 
L 140.641399 125.876522 
L 140.226681 124.895437 
L 139.811964 118.786293 
L 139.397246 116.379237 
L 138.982529 120.687147 
L 138.567811 121.231674 
L 138.153093 120.867809 
L 137.738376 116.722495 
L 137.323658 121.368939 
L 136.90894 128.123544 
L 136.494223 117.486694 
L 136.079505 124.47693 
L 135.664788 121.460889 
L 135.25007 133.342311 
L 134.835352 115.329733 
L 134.420635 120.591781 
L 134.005917 119.30893 
L 133.5912 126.640276 
L 133.176482 120.453269 
L 132.761764 118.525781 
L 132.347047 122.057986 
L 131.932329 123.156229 
L 131.517612 126.735069 
L 131.102894 116.596455 
L 130.688176 121.187075 
L 130.273459 115.822959 
L 129.858741 125.638838 
L 129.444024 122.289301 
L 129.029306 125.089961 
L 128.614588 121.462001 
L 128.199871 124.036339 
L 127.785153 119.627268 
L 127.370435 124.39874 
L 126.955718 116.603304 
L 126.541 116.228933 
L 126.126283 126.277895 
L 125.711565 115.869338 
L 125.296847 122.654207 
L 124.88213 114.819359 
L 124.467412 120.866425 
L 124.052695 118.805983 
L 123.637977 118.393473 
L 123.223259 122.697452 
L 122.808542 122.423619 
L 122.393824 124.431572 
L 121.979107 119.815202 
L 121.564389 112.869797 
L 121.149671 122.559464 
L 120.734954 119.680833 
L 120.320236 122.466154 
L 119.905518 120.54844 
L 119.490801 119.411133 
L 119.076083 116.722495 
L 118.661366 116.407408 
L 118.246648 122.73434 
L 117.83193 122.641261 
L 117.417213 122.186863 
L 117.002495 122.457884 
L 116.587778 116.280321 
L 116.17306 113.883146 
L 115.758342 114.738014 
L 115.343625 121.775599 
L 114.928907 115.152103 
L 114.51419 111.546266 
L 114.099472 121.00464 
L 113.684754 121.004844 
L 113.270037 118.198272 
L 112.855319 109.741493 
L 112.440602 123.538298 
L 112.025884 117.438966 
L 111.611166 128.37167 
L 111.196449 117.982071 
L 110.781731 116.396926 
L 110.367013 117.66639 
L 109.952296 120.058497 
L 109.537578 110.174896 
L 109.122861 117.177509 
L 108.708143 104.982104 
L 108.293425 111.963704 
L 107.878708 115.465888 
L 107.46399 121.050376 
L 107.049273 112.238921 
L 106.634555 118.038947 
L 106.219837 117.679187 
L 105.80512 104.704554 
L 105.390402 112.879812 
L 104.975685 116.742352 
L 104.560967 117.327825 
L 104.146249 105.459699 
L 103.731532 117.599027 
L 103.316814 110.790587 
L 102.902096 118.545684 
L 102.487379 106.015346 
L 102.072661 114.065297 
L 101.657944 109.271197 
L 101.243226 115.997396 
L 100.828508 117.606816 
L 100.413791 114.030322 
L 99.999073 112.740497 
L 99.584356 110.554673 
L 99.169638 114.941439 
L 98.340203 107.572481 
L 97.925485 107.133017 
L 97.510768 119.937639 
L 97.09605 101.406483 
L 96.681332 110.540273 
L 96.266615 105.460031 
L 95.851897 118.916595 
L 95.43718 106.174331 
L 95.022462 109.121436 
L 94.607744 114.743541 
L 94.193027 115.593756 
L 93.363591 102.636874 
L 92.948874 102.74276 
L 92.534156 103.776126 
L 92.119439 102.967261 
L 91.704721 103.032721 
L 91.290003 113.664059 
L 90.875286 106.477208 
L 90.460568 113.741425 
L 90.045851 100.312838 
L 89.631133 95.613981 
L 89.216415 97.444148 
L 88.801698 101.338524 
L 88.38698 102.088733 
L 87.972263 101.030128 
L 87.557545 91.001675 
L 86.72811 106.466449 
L 86.313392 98.1035 
L 85.898674 104.335321 
L 85.483957 95.044496 
L 85.069239 112.609259 
L 84.654522 99.048639 
L 84.239804 95.687772 
L 83.825086 97.871043 
L 83.410369 80.566584 
L 82.995651 97.128286 
L 82.580934 90.681741 
L 82.166216 101.094437 
L 81.751498 91.506867 
L 81.336781 91.41825 
L 80.922063 90.516144 
L 80.507346 82.674983 
L 80.092628 99.525472 
L 79.67791 108.869863 
L 79.263193 91.248651 
L 78.848475 84.937068 
L 78.433758 100.29278 
L 78.01904 82.897385 
L 77.604322 94.389787 
L 77.189605 87.968682 
L 76.360169 94.018708 
L 75.945452 92.822231 
L 75.530734 85.189465 
L 75.116017 85.096798 
L 74.701299 82.658298 
L 74.286581 88.36313 
L 73.871864 82.948118 
L 73.457146 94.375012 
L 73.042429 76.383011 
L 72.627711 97.210204 
L 72.212993 82.221372 
L 71.798276 88.341134 
L 71.383558 81.570771 
L 70.968841 89.893849 
L 70.554123 92.040767 
L 70.139405 84.403899 
L 69.724688 84.355281 
L 69.30997 79.448471 
L 68.895252 88.593742 
L 68.065817 59.385818 
L 67.6511 74.130868 
L 67.236382 72.897107 
L 66.821664 69.988104 
L 65.992229 81.333167 
L 65.577512 60.827789 
L 65.162794 73.133427 
L 64.748076 70.929459 
L 64.333359 70.059869 
L 63.918641 64.878597 
L 63.503924 72.725773 
L 63.089206 58.317886 
L 62.674488 74.957679 
L 62.259771 64.436236 
L 61.845053 71.197654 
L 61.430336 53.348716 
L 61.015618 46.710843 
L 60.6009 43.936489 
L 60.186183 53.68789 
L 59.771465 41.054724 
L 59.356747 55.520318 
L 58.527312 37.983066 
L 58.527312 37.983066 
" clip-path="url(#p0f2ca8913d)" style="fill: none; stroke: #1f77b4; stroke-width: 1.5; stroke-linecap: round"/>
   </g>
   <g id="line2d_24">
    <path d="M 204.093193 308.481683 
L 204.093193 25.10218 
" clip-path="url(#p0f2ca8913d)" style="fill: none; stroke: #000000; stroke-width: 1.5; stroke-linecap: round"/>
   </g>
   <g id="patch_3">
    <path d="M 39.885756 308.481683 
L 39.885756 25.10218 
" style="fill: none"/>
   </g>
   <g id="patch_4">
    <path d="M 450 308.481683 
L 450 25.10218 
" style="fill: none"/>
   </g>
   <g id="patch_5">
    <path d="M 39.885756 308.481683 
L 450 308.481683 
" style="fill: none"/>
   </g>
   <g id="patch_6">
    <path d="M 39.885756 25.10218 
L 450 25.10218 
" style="fill: none"/>
   </g>
   <g id="text_14">
    <!-- Absorbance of Gold -->
    <g style="fill: #262626" transform="translate(194.146388 19.10218) scale(0.12 -0.12)">
     <defs>
      <path id="CMR17-41" d="M 2323 4441 
C 2291 4524 2278 4544 2214 4544 
C 2150 4544 2138 4524 2106 4441 
L 749 580 
C 627 236 371 166 147 166 
L 147 0 
C 262 12 518 12 640 12 
C 800 12 1056 12 1210 0 
L 1210 166 
C 909 179 864 382 864 459 
C 864 516 877 548 890 586 
L 1229 1536 
L 2906 1536 
L 3290 453 
C 3322 376 3322 363 3322 338 
C 3322 166 3046 166 2925 166 
L 2925 0 
C 3110 12 3443 12 3642 12 
C 3808 12 4128 12 4282 0 
L 4282 166 
C 3942 166 3827 166 3744 402 
L 2323 4441 
z
M 2067 3924 
L 2848 1702 
L 1286 1702 
L 2067 3924 
z
" transform="scale(0.015625)"/>
      <path id="CMR17-66" d="M 979 2585 
L 1709 2585 
L 1709 2752 
L 966 2752 
L 966 3539 
C 966 4076 1235 4377 1510 4377 
C 1594 4377 1690 4363 1754 4339 
C 1702 4326 1568 4281 1568 4121 
C 1568 3955 1696 3904 1786 3904 
C 1875 3904 2003 3955 2003 4121 
C 2003 4353 1773 4480 1517 4480 
C 1152 4480 653 4211 653 3526 
L 653 2752 
L 141 2752 
L 141 2585 
L 653 2585 
L 653 441 
C 653 198 627 166 218 166 
L 218 0 
C 371 12 666 12 832 12 
C 1018 12 1344 12 1517 0 
L 1517 166 
C 1056 166 979 166 979 454 
L 979 2585 
z
" transform="scale(0.015625)"/>
      <path id="CMR17-47" d="M 3974 1258 
C 3974 1503 3994 1536 4390 1536 
L 4390 1702 
C 4237 1689 3891 1689 3718 1689 
C 3539 1689 3040 1696 2797 1702 
L 2797 1536 
L 2989 1536 
C 3539 1536 3552 1464 3552 1232 
L 3552 806 
C 3552 96 2720 38 2522 38 
C 1862 38 781 496 781 2179 
C 781 3862 1843 4313 2464 4313 
C 3187 4313 3712 3681 3834 2785 
C 3846 2708 3846 2695 3904 2695 
C 3974 2695 3974 2708 3974 2824 
L 3974 4351 
C 3974 4467 3968 4473 3930 4473 
C 3904 4473 3898 4467 3853 4390 
L 3571 3849 
C 3258 4249 2874 4480 2381 4480 
C 1286 4480 294 3507 294 2179 
C 294 858 1267 -128 2394 -128 
C 2912 -128 3418 57 3616 425 
C 3725 161 3904 -20 3936 -20 
C 3968 -20 3974 -13 3974 102 
L 3974 1258 
z
" transform="scale(0.015625)"/>
      <path id="CMR17-6c" d="M 979 4416 
L 218 4345 
L 218 4179 
C 595 4179 653 4141 653 3835 
L 653 439 
C 653 198 627 166 218 166 
L 218 0 
C 371 12 653 12 813 12 
C 979 12 1261 12 1414 0 
L 1414 166 
C 1005 166 979 191 979 439 
L 979 4416 
z
" transform="scale(0.015625)"/>
      <path id="CMR17-64" d="M 1869 4345 
L 1869 4179 
C 2246 4179 2304 4141 2304 3843 
L 2304 2371 
C 2278 2403 2016 2816 1498 2816 
C 845 2816 211 2228 211 1376 
C 211 529 806 -64 1434 -64 
C 1978 -64 2259 361 2291 406 
L 2291 -64 
L 3066 -13 
L 3066 154 
C 2688 154 2630 193 2630 503 
L 2630 4416 
L 1869 4345 
z
M 2291 762 
C 2291 568 2176 393 2029 264 
C 1811 70 1594 38 1472 38 
C 1286 38 621 135 621 1369 
C 621 2636 1363 2713 1530 2713 
C 1824 2713 2061 2545 2208 2313 
C 2291 2177 2291 2157 2291 2041 
L 2291 762 
z
" transform="scale(0.015625)"/>
     </defs>
     <use xlink:href="#CMR17-41" transform="scale(0.996264)"/>
     <use xlink:href="#CMR17-62" transform="translate(69.07243 0) scale(0.996264)"/>
     <use xlink:href="#CMR17-73" transform="translate(119.9678 0) scale(0.996264)"/>
     <use xlink:href="#CMR17-6f" transform="translate(155.769137 0) scale(0.996264)"/>
     <use xlink:href="#CMR17-72" transform="translate(201.459614 0) scale(0.996264)"/>
     <use xlink:href="#CMR17-62" transform="translate(236.740382 0) scale(0.996264)"/>
     <use xlink:href="#CMR17-61" transform="translate(287.635752 0) scale(0.996264)"/>
     <use xlink:href="#CMR17-6e" transform="translate(333.326229 0) scale(0.996264)"/>
     <use xlink:href="#CMR17-63" transform="translate(384.221599 0) scale(0.996264)"/>
     <use xlink:href="#CMR17-65" transform="translate(424.707259 0) scale(0.996264)"/>
     <use xlink:href="#CMR17-6f" transform="translate(495.268886 0) scale(0.996264)"/>
     <use xlink:href="#CMR17-66" transform="translate(540.959363 0) scale(0.996264)"/>
     <use xlink:href="#CMR17-47" transform="translate(598.508842 0) scale(0.996264)"/>
     <use xlink:href="#CMR17-6f" transform="translate(670.864188 0) scale(0.996264)"/>
     <use xlink:href="#CMR17-6c" transform="translate(716.554665 0) scale(0.996264)"/>
     <use xlink:href="#CMR17-64" transform="translate(741.425723 0) scale(0.996264)"/>
    </g>
   </g>
   <g id="legend_1"/>
  </g>
 </g>
 <defs>
  <clipPath id="p0f2ca8913d">
   <rect x="39.885756" y="25.10218" width="410.114244" height="283.379503"/>
  </clipPath>
 </defs>
</svg>
