<?xml version="1.0" encoding="utf-8" standalone="no"?>
<!DOCTYPE svg PUBLIC "-//W3C//DTD SVG 1.1//EN"
  "http://www.w3.org/Graphics/SVG/1.1/DTD/svg11.dtd">
<svg xmlns:xlink="http://www.w3.org/1999/xlink" width="460.8pt" height="345.6pt" viewBox="0 0 460.8 345.6" xmlns="http://www.w3.org/2000/svg" version="1.1">
 <metadata>
  <rdf:RDF xmlns:dc="http://purl.org/dc/elements/1.1/" xmlns:cc="http://creativecommons.org/ns#" xmlns:rdf="http://www.w3.org/1999/02/22-rdf-syntax-ns#">
   <cc:Work>
    <dc:type rdf:resource="http://purl.org/dc/dcmitype/StillImage"/>
    <dc:date>2023-07-07T15:20:08.494241</dc:date>
    <dc:format>image/svg+xml</dc:format>
    <dc:creator>
     <cc:Agent>
      <dc:title>Matplotlib v3.7.1, https://matplotlib.org/</dc:title>
     </cc:Agent>
    </dc:creator>
   </cc:Work>
  </rdf:RDF>
 </metadata>
 <defs>
  <style type="text/css">*{stroke-linejoin: round; stroke-linecap: butt}</style>
 </defs>
 <g id="figure_1">
  <g id="patch_1">
   <path d="M 0 345.6 
L 460.8 345.6 
L 460.8 0 
L 0 0 
z
" style="fill: #ffffff"/>
  </g>
  <g id="axes_1">
   <g id="patch_2">
    <path d="M 57.6 307.584 
L 414.72 307.584 
L 414.72 41.472 
L 57.6 41.472 
z
" style="fill: #eaeaf2"/>
   </g>
   <g id="matplotlib.axis_1">
    <g id="xtick_1">
     <g id="line2d_1">
      <path d="M 76.423127 307.584 
L 76.423127 41.472 
" clip-path="url(#p9ef39dff71)" style="fill: none; stroke: #ffffff; stroke-width: 0.8; stroke-linecap: round"/>
     </g>
     <g id="line2d_2"/>
     <g id="text_1">
      <!-- 2 -->
      <g style="fill: #262626" transform="translate(73.241877 318.682437) scale(0.1 -0.1)">
       <defs>
        <path id="DejaVuSans-32" d="M 1228 531 
L 3431 531 
L 3431 0 
L 469 0 
L 469 531 
Q 828 903 1448 1529 
Q 2069 2156 2228 2338 
Q 2531 2678 2651 2914 
Q 2772 3150 2772 3378 
Q 2772 3750 2511 3984 
Q 2250 4219 1831 4219 
Q 1534 4219 1204 4116 
Q 875 4013 500 3803 
L 500 4441 
Q 881 4594 1212 4672 
Q 1544 4750 1819 4750 
Q 2544 4750 2975 4387 
Q 3406 4025 3406 3419 
Q 3406 3131 3298 2873 
Q 3191 2616 2906 2266 
Q 2828 2175 2409 1742 
Q 1991 1309 1228 531 
z
" transform="scale(0.015625)"/>
       </defs>
       <use xlink:href="#DejaVuSans-32"/>
      </g>
     </g>
    </g>
    <g id="xtick_2">
     <g id="line2d_3">
      <path d="M 124.464791 307.584 
L 124.464791 41.472 
" clip-path="url(#p9ef39dff71)" style="fill: none; stroke: #ffffff; stroke-width: 0.8; stroke-linecap: round"/>
     </g>
     <g id="line2d_4"/>
     <g id="text_2">
      <!-- 3 -->
      <g style="fill: #262626" transform="translate(121.283541 318.682437) scale(0.1 -0.1)">
       <defs>
        <path id="DejaVuSans-33" d="M 2597 2516 
Q 3050 2419 3304 2112 
Q 3559 1806 3559 1356 
Q 3559 666 3084 287 
Q 2609 -91 1734 -91 
Q 1441 -91 1130 -33 
Q 819 25 488 141 
L 488 750 
Q 750 597 1062 519 
Q 1375 441 1716 441 
Q 2309 441 2620 675 
Q 2931 909 2931 1356 
Q 2931 1769 2642 2001 
Q 2353 2234 1838 2234 
L 1294 2234 
L 1294 2753 
L 1863 2753 
Q 2328 2753 2575 2939 
Q 2822 3125 2822 3475 
Q 2822 3834 2567 4026 
Q 2313 4219 1838 4219 
Q 1578 4219 1281 4162 
Q 984 4106 628 3988 
L 628 4550 
Q 988 4650 1302 4700 
Q 1616 4750 1894 4750 
Q 2613 4750 3031 4423 
Q 3450 4097 3450 3541 
Q 3450 3153 3228 2886 
Q 3006 2619 2597 2516 
z
" transform="scale(0.015625)"/>
       </defs>
       <use xlink:href="#DejaVuSans-33"/>
      </g>
     </g>
    </g>
    <g id="xtick_3">
     <g id="line2d_5">
      <path d="M 172.506454 307.584 
L 172.506454 41.472 
" clip-path="url(#p9ef39dff71)" style="fill: none; stroke: #ffffff; stroke-width: 0.8; stroke-linecap: round"/>
     </g>
     <g id="line2d_6"/>
     <g id="text_3">
      <!-- 4 -->
      <g style="fill: #262626" transform="translate(169.325204 318.682437) scale(0.1 -0.1)">
       <defs>
        <path id="DejaVuSans-34" d="M 2419 4116 
L 825 1625 
L 2419 1625 
L 2419 4116 
z
M 2253 4666 
L 3047 4666 
L 3047 1625 
L 3713 1625 
L 3713 1100 
L 3047 1100 
L 3047 0 
L 2419 0 
L 2419 1100 
L 313 1100 
L 313 1709 
L 2253 4666 
z
" transform="scale(0.015625)"/>
       </defs>
       <use xlink:href="#DejaVuSans-34"/>
      </g>
     </g>
    </g>
    <g id="xtick_4">
     <g id="line2d_7">
      <path d="M 220.548118 307.584 
L 220.548118 41.472 
" clip-path="url(#p9ef39dff71)" style="fill: none; stroke: #ffffff; stroke-width: 0.8; stroke-linecap: round"/>
     </g>
     <g id="line2d_8"/>
     <g id="text_4">
      <!-- 5 -->
      <g style="fill: #262626" transform="translate(217.366868 318.682437) scale(0.1 -0.1)">
       <defs>
        <path id="DejaVuSans-35" d="M 691 4666 
L 3169 4666 
L 3169 4134 
L 1269 4134 
L 1269 2991 
Q 1406 3038 1543 3061 
Q 1681 3084 1819 3084 
Q 2600 3084 3056 2656 
Q 3513 2228 3513 1497 
Q 3513 744 3044 326 
Q 2575 -91 1722 -91 
Q 1428 -91 1123 -41 
Q 819 9 494 109 
L 494 744 
Q 775 591 1075 516 
Q 1375 441 1709 441 
Q 2250 441 2565 725 
Q 2881 1009 2881 1497 
Q 2881 1984 2565 2268 
Q 2250 2553 1709 2553 
Q 1456 2553 1204 2497 
Q 953 2441 691 2322 
L 691 4666 
z
" transform="scale(0.015625)"/>
       </defs>
       <use xlink:href="#DejaVuSans-35"/>
      </g>
     </g>
    </g>
    <g id="xtick_5">
     <g id="line2d_9">
      <path d="M 268.589781 307.584 
L 268.589781 41.472 
" clip-path="url(#p9ef39dff71)" style="fill: none; stroke: #ffffff; stroke-width: 0.8; stroke-linecap: round"/>
     </g>
     <g id="line2d_10"/>
     <g id="text_5">
      <!-- 6 -->
      <g style="fill: #262626" transform="translate(265.408531 318.682437) scale(0.1 -0.1)">
       <defs>
        <path id="DejaVuSans-36" d="M 2113 2584 
Q 1688 2584 1439 2293 
Q 1191 2003 1191 1497 
Q 1191 994 1439 701 
Q 1688 409 2113 409 
Q 2538 409 2786 701 
Q 3034 994 3034 1497 
Q 3034 2003 2786 2293 
Q 2538 2584 2113 2584 
z
M 3366 4563 
L 3366 3988 
Q 3128 4100 2886 4159 
Q 2644 4219 2406 4219 
Q 1781 4219 1451 3797 
Q 1122 3375 1075 2522 
Q 1259 2794 1537 2939 
Q 1816 3084 2150 3084 
Q 2853 3084 3261 2657 
Q 3669 2231 3669 1497 
Q 3669 778 3244 343 
Q 2819 -91 2113 -91 
Q 1303 -91 875 529 
Q 447 1150 447 2328 
Q 447 3434 972 4092 
Q 1497 4750 2381 4750 
Q 2619 4750 2861 4703 
Q 3103 4656 3366 4563 
z
" transform="scale(0.015625)"/>
       </defs>
       <use xlink:href="#DejaVuSans-36"/>
      </g>
     </g>
    </g>
    <g id="xtick_6">
     <g id="line2d_11">
      <path d="M 316.631444 307.584 
L 316.631444 41.472 
" clip-path="url(#p9ef39dff71)" style="fill: none; stroke: #ffffff; stroke-width: 0.8; stroke-linecap: round"/>
     </g>
     <g id="line2d_12"/>
     <g id="text_6">
      <!-- 7 -->
      <g style="fill: #262626" transform="translate(313.450194 318.682437) scale(0.1 -0.1)">
       <defs>
        <path id="DejaVuSans-37" d="M 525 4666 
L 3525 4666 
L 3525 4397 
L 1831 0 
L 1172 0 
L 2766 4134 
L 525 4134 
L 525 4666 
z
" transform="scale(0.015625)"/>
       </defs>
       <use xlink:href="#DejaVuSans-37"/>
      </g>
     </g>
    </g>
    <g id="xtick_7">
     <g id="line2d_13">
      <path d="M 364.673108 307.584 
L 364.673108 41.472 
" clip-path="url(#p9ef39dff71)" style="fill: none; stroke: #ffffff; stroke-width: 0.8; stroke-linecap: round"/>
     </g>
     <g id="line2d_14"/>
     <g id="text_7">
      <!-- 8 -->
      <g style="fill: #262626" transform="translate(361.491858 318.682437) scale(0.1 -0.1)">
       <defs>
        <path id="DejaVuSans-38" d="M 2034 2216 
Q 1584 2216 1326 1975 
Q 1069 1734 1069 1313 
Q 1069 891 1326 650 
Q 1584 409 2034 409 
Q 2484 409 2743 651 
Q 3003 894 3003 1313 
Q 3003 1734 2745 1975 
Q 2488 2216 2034 2216 
z
M 1403 2484 
Q 997 2584 770 2862 
Q 544 3141 544 3541 
Q 544 4100 942 4425 
Q 1341 4750 2034 4750 
Q 2731 4750 3128 4425 
Q 3525 4100 3525 3541 
Q 3525 3141 3298 2862 
Q 3072 2584 2669 2484 
Q 3125 2378 3379 2068 
Q 3634 1759 3634 1313 
Q 3634 634 3220 271 
Q 2806 -91 2034 -91 
Q 1263 -91 848 271 
Q 434 634 434 1313 
Q 434 1759 690 2068 
Q 947 2378 1403 2484 
z
M 1172 3481 
Q 1172 3119 1398 2916 
Q 1625 2713 2034 2713 
Q 2441 2713 2670 2916 
Q 2900 3119 2900 3481 
Q 2900 3844 2670 4047 
Q 2441 4250 2034 4250 
Q 1625 4250 1398 4047 
Q 1172 3844 1172 3481 
z
" transform="scale(0.015625)"/>
       </defs>
       <use xlink:href="#DejaVuSans-38"/>
      </g>
     </g>
    </g>
    <g id="xtick_8">
     <g id="line2d_15">
      <path d="M 412.714771 307.584 
L 412.714771 41.472 
" clip-path="url(#p9ef39dff71)" style="fill: none; stroke: #ffffff; stroke-width: 0.8; stroke-linecap: round"/>
     </g>
     <g id="line2d_16"/>
     <g id="text_8">
      <!-- 9 -->
      <g style="fill: #262626" transform="translate(409.533521 318.682437) scale(0.1 -0.1)">
       <defs>
        <path id="DejaVuSans-39" d="M 703 97 
L 703 672 
Q 941 559 1184 500 
Q 1428 441 1663 441 
Q 2288 441 2617 861 
Q 2947 1281 2994 2138 
Q 2813 1869 2534 1725 
Q 2256 1581 1919 1581 
Q 1219 1581 811 2004 
Q 403 2428 403 3163 
Q 403 3881 828 4315 
Q 1253 4750 1959 4750 
Q 2769 4750 3195 4129 
Q 3622 3509 3622 2328 
Q 3622 1225 3098 567 
Q 2575 -91 1691 -91 
Q 1453 -91 1209 -44 
Q 966 3 703 97 
z
M 1959 2075 
Q 2384 2075 2632 2365 
Q 2881 2656 2881 3163 
Q 2881 3666 2632 3958 
Q 2384 4250 1959 4250 
Q 1534 4250 1286 3958 
Q 1038 3666 1038 3163 
Q 1038 2656 1286 2365 
Q 1534 2075 1959 2075 
z
" transform="scale(0.015625)"/>
       </defs>
       <use xlink:href="#DejaVuSans-39"/>
      </g>
     </g>
    </g>
    <g id="text_9">
     <!-- Distanza da Origine [cm] -->
     <g style="fill: #262626" transform="translate(173.719375 332.360562) scale(0.1 -0.1)">
      <defs>
       <path id="DejaVuSans-44" d="M 1259 4147 
L 1259 519 
L 2022 519 
Q 2988 519 3436 956 
Q 3884 1394 3884 2338 
Q 3884 3275 3436 3711 
Q 2988 4147 2022 4147 
L 1259 4147 
z
M 628 4666 
L 1925 4666 
Q 3281 4666 3915 4102 
Q 4550 3538 4550 2338 
Q 4550 1131 3912 565 
Q 3275 0 1925 0 
L 628 0 
L 628 4666 
z
" transform="scale(0.015625)"/>
       <path id="DejaVuSans-69" d="M 603 3500 
L 1178 3500 
L 1178 0 
L 603 0 
L 603 3500 
z
M 603 4863 
L 1178 4863 
L 1178 4134 
L 603 4134 
L 603 4863 
z
" transform="scale(0.015625)"/>
       <path id="DejaVuSans-73" d="M 2834 3397 
L 2834 2853 
Q 2591 2978 2328 3040 
Q 2066 3103 1784 3103 
Q 1356 3103 1142 2972 
Q 928 2841 928 2578 
Q 928 2378 1081 2264 
Q 1234 2150 1697 2047 
L 1894 2003 
Q 2506 1872 2764 1633 
Q 3022 1394 3022 966 
Q 3022 478 2636 193 
Q 2250 -91 1575 -91 
Q 1294 -91 989 -36 
Q 684 19 347 128 
L 347 722 
Q 666 556 975 473 
Q 1284 391 1588 391 
Q 1994 391 2212 530 
Q 2431 669 2431 922 
Q 2431 1156 2273 1281 
Q 2116 1406 1581 1522 
L 1381 1569 
Q 847 1681 609 1914 
Q 372 2147 372 2553 
Q 372 3047 722 3315 
Q 1072 3584 1716 3584 
Q 2034 3584 2315 3537 
Q 2597 3491 2834 3397 
z
" transform="scale(0.015625)"/>
       <path id="DejaVuSans-74" d="M 1172 4494 
L 1172 3500 
L 2356 3500 
L 2356 3053 
L 1172 3053 
L 1172 1153 
Q 1172 725 1289 603 
Q 1406 481 1766 481 
L 2356 481 
L 2356 0 
L 1766 0 
Q 1100 0 847 248 
Q 594 497 594 1153 
L 594 3053 
L 172 3053 
L 172 3500 
L 594 3500 
L 594 4494 
L 1172 4494 
z
" transform="scale(0.015625)"/>
       <path id="DejaVuSans-61" d="M 2194 1759 
Q 1497 1759 1228 1600 
Q 959 1441 959 1056 
Q 959 750 1161 570 
Q 1363 391 1709 391 
Q 2188 391 2477 730 
Q 2766 1069 2766 1631 
L 2766 1759 
L 2194 1759 
z
M 3341 1997 
L 3341 0 
L 2766 0 
L 2766 531 
Q 2569 213 2275 61 
Q 1981 -91 1556 -91 
Q 1019 -91 701 211 
Q 384 513 384 1019 
Q 384 1609 779 1909 
Q 1175 2209 1959 2209 
L 2766 2209 
L 2766 2266 
Q 2766 2663 2505 2880 
Q 2244 3097 1772 3097 
Q 1472 3097 1187 3025 
Q 903 2953 641 2809 
L 641 3341 
Q 956 3463 1253 3523 
Q 1550 3584 1831 3584 
Q 2591 3584 2966 3190 
Q 3341 2797 3341 1997 
z
" transform="scale(0.015625)"/>
       <path id="DejaVuSans-6e" d="M 3513 2113 
L 3513 0 
L 2938 0 
L 2938 2094 
Q 2938 2591 2744 2837 
Q 2550 3084 2163 3084 
Q 1697 3084 1428 2787 
Q 1159 2491 1159 1978 
L 1159 0 
L 581 0 
L 581 3500 
L 1159 3500 
L 1159 2956 
Q 1366 3272 1645 3428 
Q 1925 3584 2291 3584 
Q 2894 3584 3203 3211 
Q 3513 2838 3513 2113 
z
" transform="scale(0.015625)"/>
       <path id="DejaVuSans-7a" d="M 353 3500 
L 3084 3500 
L 3084 2975 
L 922 459 
L 3084 459 
L 3084 0 
L 275 0 
L 275 525 
L 2438 3041 
L 353 3041 
L 353 3500 
z
" transform="scale(0.015625)"/>
       <path id="DejaVuSans-20" transform="scale(0.015625)"/>
       <path id="DejaVuSans-64" d="M 2906 2969 
L 2906 4863 
L 3481 4863 
L 3481 0 
L 2906 0 
L 2906 525 
Q 2725 213 2448 61 
Q 2172 -91 1784 -91 
Q 1150 -91 751 415 
Q 353 922 353 1747 
Q 353 2572 751 3078 
Q 1150 3584 1784 3584 
Q 2172 3584 2448 3432 
Q 2725 3281 2906 2969 
z
M 947 1747 
Q 947 1113 1208 752 
Q 1469 391 1925 391 
Q 2381 391 2643 752 
Q 2906 1113 2906 1747 
Q 2906 2381 2643 2742 
Q 2381 3103 1925 3103 
Q 1469 3103 1208 2742 
Q 947 2381 947 1747 
z
" transform="scale(0.015625)"/>
       <path id="DejaVuSans-4f" d="M 2522 4238 
Q 1834 4238 1429 3725 
Q 1025 3213 1025 2328 
Q 1025 1447 1429 934 
Q 1834 422 2522 422 
Q 3209 422 3611 934 
Q 4013 1447 4013 2328 
Q 4013 3213 3611 3725 
Q 3209 4238 2522 4238 
z
M 2522 4750 
Q 3503 4750 4090 4092 
Q 4678 3434 4678 2328 
Q 4678 1225 4090 567 
Q 3503 -91 2522 -91 
Q 1538 -91 948 565 
Q 359 1222 359 2328 
Q 359 3434 948 4092 
Q 1538 4750 2522 4750 
z
" transform="scale(0.015625)"/>
       <path id="DejaVuSans-72" d="M 2631 2963 
Q 2534 3019 2420 3045 
Q 2306 3072 2169 3072 
Q 1681 3072 1420 2755 
Q 1159 2438 1159 1844 
L 1159 0 
L 581 0 
L 581 3500 
L 1159 3500 
L 1159 2956 
Q 1341 3275 1631 3429 
Q 1922 3584 2338 3584 
Q 2397 3584 2469 3576 
Q 2541 3569 2628 3553 
L 2631 2963 
z
" transform="scale(0.015625)"/>
       <path id="DejaVuSans-67" d="M 2906 1791 
Q 2906 2416 2648 2759 
Q 2391 3103 1925 3103 
Q 1463 3103 1205 2759 
Q 947 2416 947 1791 
Q 947 1169 1205 825 
Q 1463 481 1925 481 
Q 2391 481 2648 825 
Q 2906 1169 2906 1791 
z
M 3481 434 
Q 3481 -459 3084 -895 
Q 2688 -1331 1869 -1331 
Q 1566 -1331 1297 -1286 
Q 1028 -1241 775 -1147 
L 775 -588 
Q 1028 -725 1275 -790 
Q 1522 -856 1778 -856 
Q 2344 -856 2625 -561 
Q 2906 -266 2906 331 
L 2906 616 
Q 2728 306 2450 153 
Q 2172 0 1784 0 
Q 1141 0 747 490 
Q 353 981 353 1791 
Q 353 2603 747 3093 
Q 1141 3584 1784 3584 
Q 2172 3584 2450 3431 
Q 2728 3278 2906 2969 
L 2906 3500 
L 3481 3500 
L 3481 434 
z
" transform="scale(0.015625)"/>
       <path id="DejaVuSans-65" d="M 3597 1894 
L 3597 1613 
L 953 1613 
Q 991 1019 1311 708 
Q 1631 397 2203 397 
Q 2534 397 2845 478 
Q 3156 559 3463 722 
L 3463 178 
Q 3153 47 2828 -22 
Q 2503 -91 2169 -91 
Q 1331 -91 842 396 
Q 353 884 353 1716 
Q 353 2575 817 3079 
Q 1281 3584 2069 3584 
Q 2775 3584 3186 3129 
Q 3597 2675 3597 1894 
z
M 3022 2063 
Q 3016 2534 2758 2815 
Q 2500 3097 2075 3097 
Q 1594 3097 1305 2825 
Q 1016 2553 972 2059 
L 3022 2063 
z
" transform="scale(0.015625)"/>
       <path id="DejaVuSans-5b" d="M 550 4863 
L 1875 4863 
L 1875 4416 
L 1125 4416 
L 1125 -397 
L 1875 -397 
L 1875 -844 
L 550 -844 
L 550 4863 
z
" transform="scale(0.015625)"/>
       <path id="DejaVuSans-63" d="M 3122 3366 
L 3122 2828 
Q 2878 2963 2633 3030 
Q 2388 3097 2138 3097 
Q 1578 3097 1268 2742 
Q 959 2388 959 1747 
Q 959 1106 1268 751 
Q 1578 397 2138 397 
Q 2388 397 2633 464 
Q 2878 531 3122 666 
L 3122 134 
Q 2881 22 2623 -34 
Q 2366 -91 2075 -91 
Q 1284 -91 818 406 
Q 353 903 353 1747 
Q 353 2603 823 3093 
Q 1294 3584 2113 3584 
Q 2378 3584 2631 3529 
Q 2884 3475 3122 3366 
z
" transform="scale(0.015625)"/>
       <path id="DejaVuSans-6d" d="M 3328 2828 
Q 3544 3216 3844 3400 
Q 4144 3584 4550 3584 
Q 5097 3584 5394 3201 
Q 5691 2819 5691 2113 
L 5691 0 
L 5113 0 
L 5113 2094 
Q 5113 2597 4934 2840 
Q 4756 3084 4391 3084 
Q 3944 3084 3684 2787 
Q 3425 2491 3425 1978 
L 3425 0 
L 2847 0 
L 2847 2094 
Q 2847 2600 2669 2842 
Q 2491 3084 2119 3084 
Q 1678 3084 1418 2786 
Q 1159 2488 1159 1978 
L 1159 0 
L 581 0 
L 581 3500 
L 1159 3500 
L 1159 2956 
Q 1356 3278 1631 3431 
Q 1906 3584 2284 3584 
Q 2666 3584 2933 3390 
Q 3200 3197 3328 2828 
z
" transform="scale(0.015625)"/>
       <path id="DejaVuSans-5d" d="M 1947 4863 
L 1947 -844 
L 622 -844 
L 622 -397 
L 1369 -397 
L 1369 4416 
L 622 4416 
L 622 4863 
L 1947 4863 
z
" transform="scale(0.015625)"/>
      </defs>
      <use xlink:href="#DejaVuSans-44"/>
      <use xlink:href="#DejaVuSans-69" x="77.001953"/>
      <use xlink:href="#DejaVuSans-73" x="104.785156"/>
      <use xlink:href="#DejaVuSans-74" x="156.884766"/>
      <use xlink:href="#DejaVuSans-61" x="196.09375"/>
      <use xlink:href="#DejaVuSans-6e" x="257.373047"/>
      <use xlink:href="#DejaVuSans-7a" x="320.751953"/>
      <use xlink:href="#DejaVuSans-61" x="373.242188"/>
      <use xlink:href="#DejaVuSans-20" x="434.521484"/>
      <use xlink:href="#DejaVuSans-64" x="466.308594"/>
      <use xlink:href="#DejaVuSans-61" x="529.785156"/>
      <use xlink:href="#DejaVuSans-20" x="591.064453"/>
      <use xlink:href="#DejaVuSans-4f" x="622.851562"/>
      <use xlink:href="#DejaVuSans-72" x="701.5625"/>
      <use xlink:href="#DejaVuSans-69" x="742.675781"/>
      <use xlink:href="#DejaVuSans-67" x="770.458984"/>
      <use xlink:href="#DejaVuSans-69" x="833.935547"/>
      <use xlink:href="#DejaVuSans-6e" x="861.71875"/>
      <use xlink:href="#DejaVuSans-65" x="925.097656"/>
      <use xlink:href="#DejaVuSans-20" x="986.621094"/>
      <use xlink:href="#DejaVuSans-5b" x="1018.408203"/>
      <use xlink:href="#DejaVuSans-63" x="1057.421875"/>
      <use xlink:href="#DejaVuSans-6d" x="1112.402344"/>
      <use xlink:href="#DejaVuSans-5d" x="1209.814453"/>
     </g>
    </g>
   </g>
   <g id="matplotlib.axis_2">
    <g id="ytick_1">
     <g id="line2d_17">
      <path d="M 57.6 286.928181 
L 414.72 286.928181 
" clip-path="url(#p9ef39dff71)" style="fill: none; stroke: #ffffff; stroke-width: 0.8; stroke-linecap: round"/>
     </g>
     <g id="line2d_18"/>
     <g id="text_10">
      <!-- 20 -->
      <g style="fill: #262626" transform="translate(41.375 290.727399) scale(0.1 -0.1)">
       <defs>
        <path id="DejaVuSans-30" d="M 2034 4250 
Q 1547 4250 1301 3770 
Q 1056 3291 1056 2328 
Q 1056 1369 1301 889 
Q 1547 409 2034 409 
Q 2525 409 2770 889 
Q 3016 1369 3016 2328 
Q 3016 3291 2770 3770 
Q 2525 4250 2034 4250 
z
M 2034 4750 
Q 2819 4750 3233 4129 
Q 3647 3509 3647 2328 
Q 3647 1150 3233 529 
Q 2819 -91 2034 -91 
Q 1250 -91 836 529 
Q 422 1150 422 2328 
Q 422 3509 836 4129 
Q 1250 4750 2034 4750 
z
" transform="scale(0.015625)"/>
       </defs>
       <use xlink:href="#DejaVuSans-32"/>
       <use xlink:href="#DejaVuSans-30" x="63.623047"/>
      </g>
     </g>
    </g>
    <g id="ytick_2">
     <g id="line2d_19">
      <path d="M 57.6 231.256064 
L 414.72 231.256064 
" clip-path="url(#p9ef39dff71)" style="fill: none; stroke: #ffffff; stroke-width: 0.8; stroke-linecap: round"/>
     </g>
     <g id="line2d_20"/>
     <g id="text_11">
      <!-- 40 -->
      <g style="fill: #262626" transform="translate(41.375 235.055283) scale(0.1 -0.1)">
       <use xlink:href="#DejaVuSans-34"/>
       <use xlink:href="#DejaVuSans-30" x="63.623047"/>
      </g>
     </g>
    </g>
    <g id="ytick_3">
     <g id="line2d_21">
      <path d="M 57.6 175.583947 
L 414.72 175.583947 
" clip-path="url(#p9ef39dff71)" style="fill: none; stroke: #ffffff; stroke-width: 0.8; stroke-linecap: round"/>
     </g>
     <g id="line2d_22"/>
     <g id="text_12">
      <!-- 60 -->
      <g style="fill: #262626" transform="translate(41.375 179.383166) scale(0.1 -0.1)">
       <use xlink:href="#DejaVuSans-36"/>
       <use xlink:href="#DejaVuSans-30" x="63.623047"/>
      </g>
     </g>
    </g>
    <g id="ytick_4">
     <g id="line2d_23">
      <path d="M 57.6 119.911831 
L 414.72 119.911831 
" clip-path="url(#p9ef39dff71)" style="fill: none; stroke: #ffffff; stroke-width: 0.8; stroke-linecap: round"/>
     </g>
     <g id="line2d_24"/>
     <g id="text_13">
      <!-- 80 -->
      <g style="fill: #262626" transform="translate(41.375 123.711049) scale(0.1 -0.1)">
       <use xlink:href="#DejaVuSans-38"/>
       <use xlink:href="#DejaVuSans-30" x="63.623047"/>
      </g>
     </g>
    </g>
    <g id="ytick_5">
     <g id="line2d_25">
      <path d="M 57.6 64.239714 
L 414.72 64.239714 
" clip-path="url(#p9ef39dff71)" style="fill: none; stroke: #ffffff; stroke-width: 0.8; stroke-linecap: round"/>
     </g>
     <g id="line2d_26"/>
     <g id="text_14">
      <!-- 100 -->
      <g style="fill: #262626" transform="translate(35.0125 68.038933) scale(0.1 -0.1)">
       <defs>
        <path id="DejaVuSans-31" d="M 794 531 
L 1825 531 
L 1825 4091 
L 703 3866 
L 703 4441 
L 1819 4666 
L 2450 4666 
L 2450 531 
L 3481 531 
L 3481 0 
L 794 0 
L 794 531 
z
" transform="scale(0.015625)"/>
       </defs>
       <use xlink:href="#DejaVuSans-31"/>
       <use xlink:href="#DejaVuSans-30" x="63.623047"/>
       <use xlink:href="#DejaVuSans-30" x="127.246094"/>
      </g>
     </g>
    </g>
    <g id="text_15">
     <!-- Spessore Fittato [nm] -->
     <g style="fill: #262626" transform="translate(28.932812 228.266281) rotate(-90) scale(0.1 -0.1)">
      <defs>
       <path id="DejaVuSans-53" d="M 3425 4513 
L 3425 3897 
Q 3066 4069 2747 4153 
Q 2428 4238 2131 4238 
Q 1616 4238 1336 4038 
Q 1056 3838 1056 3469 
Q 1056 3159 1242 3001 
Q 1428 2844 1947 2747 
L 2328 2669 
Q 3034 2534 3370 2195 
Q 3706 1856 3706 1288 
Q 3706 609 3251 259 
Q 2797 -91 1919 -91 
Q 1588 -91 1214 -16 
Q 841 59 441 206 
L 441 856 
Q 825 641 1194 531 
Q 1563 422 1919 422 
Q 2459 422 2753 634 
Q 3047 847 3047 1241 
Q 3047 1584 2836 1778 
Q 2625 1972 2144 2069 
L 1759 2144 
Q 1053 2284 737 2584 
Q 422 2884 422 3419 
Q 422 4038 858 4394 
Q 1294 4750 2059 4750 
Q 2388 4750 2728 4690 
Q 3069 4631 3425 4513 
z
" transform="scale(0.015625)"/>
       <path id="DejaVuSans-70" d="M 1159 525 
L 1159 -1331 
L 581 -1331 
L 581 3500 
L 1159 3500 
L 1159 2969 
Q 1341 3281 1617 3432 
Q 1894 3584 2278 3584 
Q 2916 3584 3314 3078 
Q 3713 2572 3713 1747 
Q 3713 922 3314 415 
Q 2916 -91 2278 -91 
Q 1894 -91 1617 61 
Q 1341 213 1159 525 
z
M 3116 1747 
Q 3116 2381 2855 2742 
Q 2594 3103 2138 3103 
Q 1681 3103 1420 2742 
Q 1159 2381 1159 1747 
Q 1159 1113 1420 752 
Q 1681 391 2138 391 
Q 2594 391 2855 752 
Q 3116 1113 3116 1747 
z
" transform="scale(0.015625)"/>
       <path id="DejaVuSans-6f" d="M 1959 3097 
Q 1497 3097 1228 2736 
Q 959 2375 959 1747 
Q 959 1119 1226 758 
Q 1494 397 1959 397 
Q 2419 397 2687 759 
Q 2956 1122 2956 1747 
Q 2956 2369 2687 2733 
Q 2419 3097 1959 3097 
z
M 1959 3584 
Q 2709 3584 3137 3096 
Q 3566 2609 3566 1747 
Q 3566 888 3137 398 
Q 2709 -91 1959 -91 
Q 1206 -91 779 398 
Q 353 888 353 1747 
Q 353 2609 779 3096 
Q 1206 3584 1959 3584 
z
" transform="scale(0.015625)"/>
       <path id="DejaVuSans-46" d="M 628 4666 
L 3309 4666 
L 3309 4134 
L 1259 4134 
L 1259 2759 
L 3109 2759 
L 3109 2228 
L 1259 2228 
L 1259 0 
L 628 0 
L 628 4666 
z
" transform="scale(0.015625)"/>
      </defs>
      <use xlink:href="#DejaVuSans-53"/>
      <use xlink:href="#DejaVuSans-70" x="63.476562"/>
      <use xlink:href="#DejaVuSans-65" x="126.953125"/>
      <use xlink:href="#DejaVuSans-73" x="188.476562"/>
      <use xlink:href="#DejaVuSans-73" x="240.576172"/>
      <use xlink:href="#DejaVuSans-6f" x="292.675781"/>
      <use xlink:href="#DejaVuSans-72" x="353.857422"/>
      <use xlink:href="#DejaVuSans-65" x="392.720703"/>
      <use xlink:href="#DejaVuSans-20" x="454.244141"/>
      <use xlink:href="#DejaVuSans-46" x="486.03125"/>
      <use xlink:href="#DejaVuSans-69" x="536.300781"/>
      <use xlink:href="#DejaVuSans-74" x="564.083984"/>
      <use xlink:href="#DejaVuSans-74" x="603.292969"/>
      <use xlink:href="#DejaVuSans-61" x="642.501953"/>
      <use xlink:href="#DejaVuSans-74" x="703.78125"/>
      <use xlink:href="#DejaVuSans-6f" x="742.990234"/>
      <use xlink:href="#DejaVuSans-20" x="804.171875"/>
      <use xlink:href="#DejaVuSans-5b" x="835.958984"/>
      <use xlink:href="#DejaVuSans-6e" x="874.972656"/>
      <use xlink:href="#DejaVuSans-6d" x="938.351562"/>
      <use xlink:href="#DejaVuSans-5d" x="1035.763672"/>
     </g>
    </g>
   </g>
   <g id="PolyCollection_1">
    <defs>
     <path id="m980bfcb710" d="M 73.832727 -276.649228 
L 73.832727 -292.032 
L 77.112066 -290.602021 
L 80.391405 -289.132918 
L 83.670744 -287.625627 
L 86.950083 -286.081103 
L 90.229421 -284.500315 
L 93.50876 -282.884246 
L 96.788099 -281.233892 
L 100.067438 -279.550259 
L 103.346777 -277.834366 
L 106.626116 -276.087239 
L 109.905455 -274.309912 
L 113.184793 -272.503427 
L 116.464132 -270.668829 
L 119.743471 -268.807171 
L 123.02281 -266.919505 
L 126.302149 -265.006889 
L 129.581488 -263.070379 
L 132.860826 -261.111033 
L 136.140165 -259.129905 
L 139.419504 -257.12805 
L 142.698843 -255.106517 
L 145.978182 -253.066353 
L 149.257521 -251.008598 
L 152.53686 -248.934286 
L 155.816198 -246.844445 
L 159.095537 -244.740094 
L 162.374876 -242.622243 
L 165.654215 -240.491894 
L 168.933554 -238.350038 
L 172.212893 -236.197653 
L 175.492231 -234.035707 
L 178.77157 -231.865155 
L 182.050909 -229.68694 
L 185.330248 -227.501989 
L 188.609587 -225.311216 
L 191.888926 -223.11552 
L 195.168264 -220.915785 
L 198.447603 -218.712879 
L 201.726942 -216.507652 
L 205.006281 -214.30094 
L 208.28562 -212.093561 
L 211.564959 -209.886314 
L 214.844298 -207.679983 
L 218.123636 -205.475333 
L 221.402975 -203.273109 
L 224.682314 -201.07404 
L 227.961653 -198.878836 
L 231.240992 -196.688188 
L 234.520331 -194.502767 
L 237.799669 -192.323227 
L 241.079008 -190.150202 
L 244.358347 -187.984308 
L 247.637686 -185.826139 
L 250.917025 -183.676274 
L 254.196364 -181.53527 
L 257.475702 -179.403666 
L 260.755041 -177.281984 
L 264.03438 -175.170723 
L 267.313719 -173.070367 
L 270.593058 -170.98138 
L 273.872397 -168.904208 
L 277.151736 -166.839279 
L 280.431074 -164.787002 
L 283.710413 -162.74777 
L 286.989752 -160.721956 
L 290.269091 -158.709918 
L 293.54843 -156.711995 
L 296.827769 -154.72851 
L 300.107107 -152.75977 
L 303.386446 -150.806064 
L 306.665785 -148.867667 
L 309.945124 -146.944836 
L 313.224463 -145.037814 
L 316.503802 -143.146829 
L 319.78314 -141.272093 
L 323.062479 -139.413804 
L 326.341818 -137.572146 
L 329.621157 -135.74729 
L 332.900496 -133.939391 
L 336.179835 -132.148592 
L 339.459174 -130.375024 
L 342.738512 -128.618804 
L 346.017851 -126.880037 
L 349.29719 -125.158818 
L 352.576529 -123.455227 
L 355.855868 -121.769335 
L 359.135207 -120.101202 
L 362.414545 -118.450877 
L 365.693884 -116.818399 
L 368.973223 -115.203795 
L 372.252562 -113.607086 
L 375.531901 -112.028281 
L 378.81124 -110.467382 
L 382.090579 -108.924379 
L 385.369917 -107.399258 
L 388.649256 -105.891993 
L 391.928595 -104.402553 
L 395.207934 -102.930899 
L 398.487273 -101.476983 
L 398.487273 -120.556133 
L 398.487273 -120.556133 
L 395.207934 -121.91596 
L 391.928595 -123.288048 
L 388.649256 -124.67236 
L 385.369917 -126.068855 
L 382.090579 -127.477483 
L 378.81124 -128.89819 
L 375.531901 -130.330916 
L 372.252562 -131.775591 
L 368.973223 -133.232142 
L 365.693884 -134.700486 
L 362.414545 -136.180534 
L 359.135207 -137.672191 
L 355.855868 -139.175351 
L 352.576529 -140.689903 
L 349.29719 -142.215728 
L 346.017851 -143.752696 
L 342.738512 -145.300673 
L 339.459174 -146.859513 
L 336.179835 -148.429063 
L 332.900496 -150.009161 
L 329.621157 -151.599635 
L 326.341818 -153.200306 
L 323.062479 -154.810984 
L 319.78314 -156.431469 
L 316.503802 -158.061552 
L 313.224463 -159.701017 
L 309.945124 -161.349633 
L 306.665785 -163.007162 
L 303.386446 -164.673357 
L 300.107107 -166.347956 
L 296.827769 -168.030693 
L 293.54843 -169.721285 
L 290.269091 -171.419442 
L 286.989752 -173.124863 
L 283.710413 -174.837235 
L 280.431074 -176.556235 
L 277.151736 -178.281528 
L 273.872397 -180.012769 
L 270.593058 -181.7496 
L 267.313719 -183.491654 
L 264.03438 -185.238551 
L 260.755041 -186.989901 
L 257.475702 -188.745301 
L 254.196364 -190.504338 
L 250.917025 -192.266587 
L 247.637686 -194.031612 
L 244.358347 -195.798966 
L 241.079008 -197.56819 
L 237.799669 -199.338814 
L 234.520331 -201.110358 
L 231.240992 -202.882329 
L 227.961653 -204.654225 
L 224.682314 -206.425531 
L 221.402975 -208.195724 
L 218.123636 -209.964268 
L 214.844298 -211.730618 
L 211.564959 -213.494218 
L 208.28562 -215.254504 
L 205.006281 -217.0109 
L 201.726942 -218.762821 
L 198.447603 -220.509673 
L 195.168264 -222.250853 
L 191.888926 -223.985749 
L 188.609587 -225.713742 
L 185.330248 -227.434202 
L 182.050909 -229.146495 
L 178.77157 -230.849976 
L 175.492231 -232.543995 
L 172.212893 -234.227896 
L 168.933554 -235.901015 
L 165.654215 -237.562682 
L 162.374876 -239.212226 
L 159.095537 -240.848965 
L 155.816198 -242.472217 
L 152.53686 -244.081294 
L 149.257521 -245.675506 
L 145.978182 -247.254161 
L 142.698843 -248.816561 
L 139.419504 -250.362011 
L 136.140165 -251.889812 
L 132.860826 -253.399264 
L 129.581488 -254.88967 
L 126.302149 -256.360332 
L 123.02281 -257.810553 
L 119.743471 -259.239639 
L 116.464132 -260.646897 
L 113.184793 -262.03164 
L 109.905455 -263.393182 
L 106.626116 -264.730845 
L 103.346777 -266.043953 
L 100.067438 -267.331838 
L 96.788099 -268.593839 
L 93.50876 -269.8293 
L 90.229421 -271.037577 
L 86.950083 -272.218032 
L 83.670744 -273.370036 
L 80.391405 -274.492973 
L 77.112066 -275.586235 
L 73.832727 -276.649228 
z
" style="stroke: #ff0000; stroke-opacity: 0.3"/>
    </defs>
    <g clip-path="url(#p9ef39dff71)">
     <use xlink:href="#m980bfcb710" x="0" y="345.6" style="fill: #ff0000; fill-opacity: 0.3; stroke: #ff0000; stroke-opacity: 0.3"/>
    </g>
   </g>
   <g id="LineCollection_1">
    <path d="M 86.03146 110.179502 
L 86.03146 108.89249 
" clip-path="url(#p9ef39dff71)" style="fill: none; stroke: #1f77b4; stroke-width: 1.5"/>
    <path d="M 110.052292 116.563415 
L 110.052292 115.463689 
" clip-path="url(#p9ef39dff71)" style="fill: none; stroke: #1f77b4; stroke-width: 1.5"/>
    <path d="M 220.548118 162.09854 
L 220.548118 161.206966 
" clip-path="url(#p9ef39dff71)" style="fill: none; stroke: #1f77b4; stroke-width: 1.5"/>
    <path d="M 258.981448 182.705091 
L 258.981448 181.908606 
" clip-path="url(#p9ef39dff71)" style="fill: none; stroke: #1f77b4; stroke-width: 1.5"/>
    <path d="M 311.827278 208.312604 
L 311.827278 207.600104 
" clip-path="url(#p9ef39dff71)" style="fill: none; stroke: #1f77b4; stroke-width: 1.5"/>
    <path d="M 335.84811 221.785815 
L 335.84811 221.140821 
" clip-path="url(#p9ef39dff71)" style="fill: none; stroke: #1f77b4; stroke-width: 1.5"/>
   </g>
   <g id="LineCollection_2">
    <path d="M 153.289789 138.256105 
L 153.289789 137.391288 
" clip-path="url(#p9ef39dff71)" style="fill: none; stroke: #ff7f0e; stroke-width: 1.5"/>
    <path d="M 201.331452 173.362785 
L 201.331452 172.533455 
" clip-path="url(#p9ef39dff71)" style="fill: none; stroke: #ff7f0e; stroke-width: 1.5"/>
    <path d="M 249.373116 202.858927 
L 249.373116 202.213416 
" clip-path="url(#p9ef39dff71)" style="fill: none; stroke: #ff7f0e; stroke-width: 1.5"/>
    <path d="M 297.414779 236.816418 
L 297.414779 236.237668 
" clip-path="url(#p9ef39dff71)" style="fill: none; stroke: #ff7f0e; stroke-width: 1.5"/>
   </g>
   <g id="LineCollection_3">
    <path d="M 138.87729 138.256105 
L 138.87729 137.391288 
" clip-path="url(#p9ef39dff71)" style="fill: none; stroke: #2ca02c; stroke-width: 1.5"/>
    <path d="M 210.939785 173.362785 
L 210.939785 172.533455 
" clip-path="url(#p9ef39dff71)" style="fill: none; stroke: #2ca02c; stroke-width: 1.5"/>
    <path d="M 268.589781 202.858927 
L 268.589781 202.213416 
" clip-path="url(#p9ef39dff71)" style="fill: none; stroke: #2ca02c; stroke-width: 1.5"/>
    <path d="M 374.28144 236.816418 
L 374.28144 236.237668 
" clip-path="url(#p9ef39dff71)" style="fill: none; stroke: #2ca02c; stroke-width: 1.5"/>
   </g>
   <g id="LineCollection_4">
    <path d="M 350.260609 295.488 
L 350.260609 293.43223 
" clip-path="url(#p9ef39dff71)" style="fill: none; stroke: #d62728; stroke-width: 1.5"/>
    <path d="M 287.806446 261.685203 
L 287.806446 259.675225 
" clip-path="url(#p9ef39dff71)" style="fill: none; stroke: #d62728; stroke-width: 1.5"/>
    <path d="M 143.681456 147.283625 
L 143.681456 146.558395 
" clip-path="url(#p9ef39dff71)" style="fill: none; stroke: #d62728; stroke-width: 1.5"/>
   </g>
   <g id="line2d_27">
    <path d="M 73.832727 61.192972 
L 77.112066 62.435703 
L 80.391405 63.713129 
L 83.670744 65.024493 
L 86.950083 66.369027 
L 90.229421 67.745947 
L 93.50876 69.154458 
L 96.788099 70.593755 
L 100.067438 72.063022 
L 103.346777 73.561433 
L 106.626116 75.088154 
L 109.905455 76.642344 
L 113.184793 78.223156 
L 116.464132 79.829735 
L 119.743471 81.461224 
L 123.02281 83.116761 
L 126.302149 84.79548 
L 129.581488 86.496516 
L 132.860826 88.219 
L 136.140165 89.962063 
L 139.419504 91.724838 
L 142.698843 93.506458 
L 145.978182 95.306058 
L 149.257521 97.122777 
L 152.53686 98.955755 
L 155.816198 100.80414 
L 159.095537 102.667081 
L 162.374876 104.543737 
L 165.654215 106.43327 
L 168.933554 108.334849 
L 172.212893 110.247654 
L 175.492231 112.170869 
L 178.77157 114.103689 
L 182.050909 116.045318 
L 185.330248 117.99497 
L 188.609587 119.951868 
L 191.888926 121.915247 
L 195.168264 123.884353 
L 198.447603 125.858444 
L 201.726942 127.836788 
L 205.006281 129.818668 
L 208.28562 131.803377 
L 211.564959 133.790223 
L 214.844298 135.778527 
L 218.123636 137.767622 
L 221.402975 139.756856 
L 224.682314 141.74559 
L 227.961653 143.733202 
L 231.240992 145.71908 
L 234.520331 147.702629 
L 237.799669 149.683269 
L 241.079008 151.660434 
L 244.358347 153.633571 
L 247.637686 155.602145 
L 250.917025 157.565633 
L 254.196364 159.523528 
L 257.475702 161.47534 
L 260.755041 163.42059 
L 264.03438 165.358817 
L 267.313719 167.289572 
L 270.593058 169.212424 
L 273.872397 171.126955 
L 277.151736 173.03276 
L 280.431074 174.929451 
L 283.710413 176.816653 
L 286.989752 178.694007 
L 290.269091 180.561165 
L 293.54843 182.417796 
L 296.827769 184.26358 
L 300.107107 186.098214 
L 303.386446 187.921406 
L 306.665785 189.732877 
L 309.945124 191.532362 
L 313.224463 193.31961 
L 316.503802 195.094381 
L 319.78314 196.856447 
L 323.062479 198.605594 
L 326.341818 200.341619 
L 329.621157 202.064331 
L 332.900496 203.773549 
L 336.179835 205.469107 
L 339.459174 207.150846 
L 342.738512 208.818621 
L 346.017851 210.472296 
L 349.29719 212.111744 
L 352.576529 213.736852 
L 355.855868 215.347513 
L 359.135207 216.943632 
L 362.414545 218.525121 
L 365.693884 220.091904 
L 368.973223 221.643913 
L 372.252562 223.181086 
L 375.531901 224.703373 
L 378.81124 226.21073 
L 382.090579 227.703122 
L 385.369917 229.18052 
L 388.649256 230.642905 
L 391.928595 232.090262 
L 395.207934 233.522585 
L 398.487273 234.939875 
" clip-path="url(#p9ef39dff71)" style="fill: none; stroke-dasharray: 5.55,2.4; stroke-dashoffset: 0; stroke: #ff0000; stroke-width: 1.5"/>
   </g>
   <g id="line2d_28">
    <path d="M 86.03146 109.535996 
L 110.052292 116.013552 
L 220.548118 161.652753 
L 258.981448 182.306848 
L 311.827278 207.956354 
L 335.84811 221.463318 
" clip-path="url(#p9ef39dff71)" style="fill: none; stroke: #1f77b4; stroke-width: 1.5; stroke-linecap: round"/>
    <defs>
     <path id="m5c6c5d011a" d="M 0 1.5 
C 0.397805 1.5 0.77937 1.341951 1.06066 1.06066 
C 1.341951 0.77937 1.5 0.397805 1.5 0 
C 1.5 -0.397805 1.341951 -0.77937 1.06066 -1.06066 
C 0.77937 -1.341951 0.397805 -1.5 0 -1.5 
C -0.397805 -1.5 -0.77937 -1.341951 -1.06066 -1.06066 
C -1.341951 -0.77937 -1.5 -0.397805 -1.5 0 
C -1.5 0.397805 -1.341951 0.77937 -1.06066 1.06066 
C -0.77937 1.341951 -0.397805 1.5 0 1.5 
z
" style="stroke: #1f77b4"/>
    </defs>
    <g clip-path="url(#p9ef39dff71)">
     <use xlink:href="#m5c6c5d011a" x="86.03146" y="109.535996" style="fill: #1f77b4; stroke: #1f77b4"/>
     <use xlink:href="#m5c6c5d011a" x="110.052292" y="116.013552" style="fill: #1f77b4; stroke: #1f77b4"/>
     <use xlink:href="#m5c6c5d011a" x="220.548118" y="161.652753" style="fill: #1f77b4; stroke: #1f77b4"/>
     <use xlink:href="#m5c6c5d011a" x="258.981448" y="182.306848" style="fill: #1f77b4; stroke: #1f77b4"/>
     <use xlink:href="#m5c6c5d011a" x="311.827278" y="207.956354" style="fill: #1f77b4; stroke: #1f77b4"/>
     <use xlink:href="#m5c6c5d011a" x="335.84811" y="221.463318" style="fill: #1f77b4; stroke: #1f77b4"/>
    </g>
   </g>
   <g id="line2d_29">
    <path d="M 153.289789 137.823696 
L 201.331452 172.94812 
L 249.373116 202.536172 
L 297.414779 236.527043 
" clip-path="url(#p9ef39dff71)" style="fill: none; stroke: #ff7f0e; stroke-width: 1.5; stroke-linecap: round"/>
    <defs>
     <path id="m4ec40dbc7f" d="M 0 1.5 
C 0.397805 1.5 0.77937 1.341951 1.06066 1.06066 
C 1.341951 0.77937 1.5 0.397805 1.5 0 
C 1.5 -0.397805 1.341951 -0.77937 1.06066 -1.06066 
C 0.77937 -1.341951 0.397805 -1.5 0 -1.5 
C -0.397805 -1.5 -0.77937 -1.341951 -1.06066 -1.06066 
C -1.341951 -0.77937 -1.5 -0.397805 -1.5 0 
C -1.5 0.397805 -1.341951 0.77937 -1.06066 1.06066 
C -0.77937 1.341951 -0.397805 1.5 0 1.5 
z
" style="stroke: #ff7f0e"/>
    </defs>
    <g clip-path="url(#p9ef39dff71)">
     <use xlink:href="#m4ec40dbc7f" x="153.289789" y="137.823696" style="fill: #ff7f0e; stroke: #ff7f0e"/>
     <use xlink:href="#m4ec40dbc7f" x="201.331452" y="172.94812" style="fill: #ff7f0e; stroke: #ff7f0e"/>
     <use xlink:href="#m4ec40dbc7f" x="249.373116" y="202.536172" style="fill: #ff7f0e; stroke: #ff7f0e"/>
     <use xlink:href="#m4ec40dbc7f" x="297.414779" y="236.527043" style="fill: #ff7f0e; stroke: #ff7f0e"/>
    </g>
   </g>
   <g id="line2d_30">
    <path d="M 138.87729 137.823696 
L 210.939785 172.94812 
L 268.589781 202.536172 
L 374.28144 236.527043 
" clip-path="url(#p9ef39dff71)" style="fill: none; stroke: #2ca02c; stroke-width: 1.5; stroke-linecap: round"/>
    <defs>
     <path id="mfbba2eb352" d="M 0 1.5 
C 0.397805 1.5 0.77937 1.341951 1.06066 1.06066 
C 1.341951 0.77937 1.5 0.397805 1.5 0 
C 1.5 -0.397805 1.341951 -0.77937 1.06066 -1.06066 
C 0.77937 -1.341951 0.397805 -1.5 0 -1.5 
C -0.397805 -1.5 -0.77937 -1.341951 -1.06066 -1.06066 
C -1.341951 -0.77937 -1.5 -0.397805 -1.5 0 
C -1.5 0.397805 -1.341951 0.77937 -1.06066 1.06066 
C -0.77937 1.341951 -0.397805 1.5 0 1.5 
z
" style="stroke: #2ca02c"/>
    </defs>
    <g clip-path="url(#p9ef39dff71)">
     <use xlink:href="#mfbba2eb352" x="138.87729" y="137.823696" style="fill: #2ca02c; stroke: #2ca02c"/>
     <use xlink:href="#mfbba2eb352" x="210.939785" y="172.94812" style="fill: #2ca02c; stroke: #2ca02c"/>
     <use xlink:href="#mfbba2eb352" x="268.589781" y="202.536172" style="fill: #2ca02c; stroke: #2ca02c"/>
     <use xlink:href="#mfbba2eb352" x="374.28144" y="236.527043" style="fill: #2ca02c; stroke: #2ca02c"/>
    </g>
   </g>
   <g id="line2d_31">
    <path d="M 350.260609 294.460115 
L 287.806446 260.680214 
L 143.681456 146.92101 
" clip-path="url(#p9ef39dff71)" style="fill: none; stroke: #d62728; stroke-width: 1.5; stroke-linecap: round"/>
    <defs>
     <path id="m0a4e13d929" d="M 0 1.5 
C 0.397805 1.5 0.77937 1.341951 1.06066 1.06066 
C 1.341951 0.77937 1.5 0.397805 1.5 0 
C 1.5 -0.397805 1.341951 -0.77937 1.06066 -1.06066 
C 0.77937 -1.341951 0.397805 -1.5 0 -1.5 
C -0.397805 -1.5 -0.77937 -1.341951 -1.06066 -1.06066 
C -1.341951 -0.77937 -1.5 -0.397805 -1.5 0 
C -1.5 0.397805 -1.341951 0.77937 -1.06066 1.06066 
C -0.77937 1.341951 -0.397805 1.5 0 1.5 
z
" style="stroke: #d62728"/>
    </defs>
    <g clip-path="url(#p9ef39dff71)">
     <use xlink:href="#m0a4e13d929" x="350.260609" y="294.460115" style="fill: #d62728; stroke: #d62728"/>
     <use xlink:href="#m0a4e13d929" x="287.806446" y="260.680214" style="fill: #d62728; stroke: #d62728"/>
     <use xlink:href="#m0a4e13d929" x="143.681456" y="146.92101" style="fill: #d62728; stroke: #d62728"/>
    </g>
   </g>
   <g id="patch_3">
    <path d="M 57.6 307.584 
L 57.6 41.472 
" style="fill: none"/>
   </g>
   <g id="patch_4">
    <path d="M 414.72 307.584 
L 414.72 41.472 
" style="fill: none"/>
   </g>
   <g id="patch_5">
    <path d="M 57.6 307.584 
L 414.72 307.584 
" style="fill: none"/>
   </g>
   <g id="patch_6">
    <path d="M 57.6 41.472 
L 414.72 41.472 
" style="fill: none"/>
   </g>
   <g id="text_16">
    <!-- Spessore Fittato da Spettrofotometro -->
    <g style="fill: #262626" transform="translate(124.894688 35.472) scale(0.12 -0.12)">
     <defs>
      <path id="DejaVuSans-66" d="M 2375 4863 
L 2375 4384 
L 1825 4384 
Q 1516 4384 1395 4259 
Q 1275 4134 1275 3809 
L 1275 3500 
L 2222 3500 
L 2222 3053 
L 1275 3053 
L 1275 0 
L 697 0 
L 697 3053 
L 147 3053 
L 147 3500 
L 697 3500 
L 697 3744 
Q 697 4328 969 4595 
Q 1241 4863 1831 4863 
L 2375 4863 
z
" transform="scale(0.015625)"/>
     </defs>
     <use xlink:href="#DejaVuSans-53"/>
     <use xlink:href="#DejaVuSans-70" x="63.476562"/>
     <use xlink:href="#DejaVuSans-65" x="126.953125"/>
     <use xlink:href="#DejaVuSans-73" x="188.476562"/>
     <use xlink:href="#DejaVuSans-73" x="240.576172"/>
     <use xlink:href="#DejaVuSans-6f" x="292.675781"/>
     <use xlink:href="#DejaVuSans-72" x="353.857422"/>
     <use xlink:href="#DejaVuSans-65" x="392.720703"/>
     <use xlink:href="#DejaVuSans-20" x="454.244141"/>
     <use xlink:href="#DejaVuSans-46" x="486.03125"/>
     <use xlink:href="#DejaVuSans-69" x="536.300781"/>
     <use xlink:href="#DejaVuSans-74" x="564.083984"/>
     <use xlink:href="#DejaVuSans-74" x="603.292969"/>
     <use xlink:href="#DejaVuSans-61" x="642.501953"/>
     <use xlink:href="#DejaVuSans-74" x="703.78125"/>
     <use xlink:href="#DejaVuSans-6f" x="742.990234"/>
     <use xlink:href="#DejaVuSans-20" x="804.171875"/>
     <use xlink:href="#DejaVuSans-64" x="835.958984"/>
     <use xlink:href="#DejaVuSans-61" x="899.435547"/>
     <use xlink:href="#DejaVuSans-20" x="960.714844"/>
     <use xlink:href="#DejaVuSans-53" x="992.501953"/>
     <use xlink:href="#DejaVuSans-70" x="1055.978516"/>
     <use xlink:href="#DejaVuSans-65" x="1119.455078"/>
     <use xlink:href="#DejaVuSans-74" x="1180.978516"/>
     <use xlink:href="#DejaVuSans-74" x="1220.1875"/>
     <use xlink:href="#DejaVuSans-72" x="1259.396484"/>
     <use xlink:href="#DejaVuSans-6f" x="1298.259766"/>
     <use xlink:href="#DejaVuSans-66" x="1359.441406"/>
     <use xlink:href="#DejaVuSans-6f" x="1394.646484"/>
     <use xlink:href="#DejaVuSans-74" x="1455.828125"/>
     <use xlink:href="#DejaVuSans-6f" x="1495.037109"/>
     <use xlink:href="#DejaVuSans-6d" x="1556.21875"/>
     <use xlink:href="#DejaVuSans-65" x="1653.630859"/>
     <use xlink:href="#DejaVuSans-74" x="1715.154297"/>
     <use xlink:href="#DejaVuSans-72" x="1754.363281"/>
     <use xlink:href="#DejaVuSans-6f" x="1793.226562"/>
    </g>
   </g>
   <g id="legend_1">
    <g id="line2d_32">
     <path d="M 275.555938 61.209188 
L 285.555938 61.209188 
L 295.555938 61.209188 
" style="fill: none; stroke-dasharray: 5.55,2.4; stroke-dashoffset: 0; stroke: #ff0000; stroke-width: 1.5"/>
    </g>
    <g id="text_17">
     <!-- fit -->
     <g style="fill: #262626" transform="translate(303.555938 58.070438) scale(0.1 -0.1)">
      <use xlink:href="#DejaVuSans-66"/>
      <use xlink:href="#DejaVuSans-69" x="35.205078"/>
      <use xlink:href="#DejaVuSans-74" x="62.988281"/>
     </g>
     <!-- power=4.84 +- 0.58 -->
     <g style="fill: #262626" transform="translate(303.555938 69.26825) scale(0.1 -0.1)">
      <defs>
       <path id="DejaVuSans-77" d="M 269 3500 
L 844 3500 
L 1563 769 
L 2278 3500 
L 2956 3500 
L 3675 769 
L 4391 3500 
L 4966 3500 
L 4050 0 
L 3372 0 
L 2619 2869 
L 1863 0 
L 1184 0 
L 269 3500 
z
" transform="scale(0.015625)"/>
       <path id="DejaVuSans-3d" d="M 678 2906 
L 4684 2906 
L 4684 2381 
L 678 2381 
L 678 2906 
z
M 678 1631 
L 4684 1631 
L 4684 1100 
L 678 1100 
L 678 1631 
z
" transform="scale(0.015625)"/>
       <path id="DejaVuSans-2e" d="M 684 794 
L 1344 794 
L 1344 0 
L 684 0 
L 684 794 
z
" transform="scale(0.015625)"/>
       <path id="DejaVuSans-2b" d="M 2944 4013 
L 2944 2272 
L 4684 2272 
L 4684 1741 
L 2944 1741 
L 2944 0 
L 2419 0 
L 2419 1741 
L 678 1741 
L 678 2272 
L 2419 2272 
L 2419 4013 
L 2944 4013 
z
" transform="scale(0.015625)"/>
       <path id="DejaVuSans-2d" d="M 313 2009 
L 1997 2009 
L 1997 1497 
L 313 1497 
L 313 2009 
z
" transform="scale(0.015625)"/>
      </defs>
      <use xlink:href="#DejaVuSans-70"/>
      <use xlink:href="#DejaVuSans-6f" x="63.476562"/>
      <use xlink:href="#DejaVuSans-77" x="124.658203"/>
      <use xlink:href="#DejaVuSans-65" x="206.445312"/>
      <use xlink:href="#DejaVuSans-72" x="267.96875"/>
      <use xlink:href="#DejaVuSans-3d" x="309.082031"/>
      <use xlink:href="#DejaVuSans-34" x="392.871094"/>
      <use xlink:href="#DejaVuSans-2e" x="456.494141"/>
      <use xlink:href="#DejaVuSans-38" x="488.28125"/>
      <use xlink:href="#DejaVuSans-34" x="551.904297"/>
      <use xlink:href="#DejaVuSans-20" x="615.527344"/>
      <use xlink:href="#DejaVuSans-2b" x="647.314453"/>
      <use xlink:href="#DejaVuSans-2d" x="731.103516"/>
      <use xlink:href="#DejaVuSans-20" x="767.1875"/>
      <use xlink:href="#DejaVuSans-30" x="798.974609"/>
      <use xlink:href="#DejaVuSans-2e" x="862.597656"/>
      <use xlink:href="#DejaVuSans-35" x="894.384766"/>
      <use xlink:href="#DejaVuSans-38" x="958.007812"/>
     </g>
    </g>
    <g id="LineCollection_5">
     <path d="M 285.555938 85.446375 
L 285.555938 75.446375 
" style="fill: none; stroke: #1f77b4; stroke-width: 1.5"/>
    </g>
    <g id="line2d_33">
     <path d="M 275.555938 80.446375 
L 295.555938 80.446375 
" style="fill: none; stroke: #1f77b4; stroke-width: 1.5; stroke-linecap: round"/>
    </g>
    <g id="line2d_34">
     <g>
      <use xlink:href="#m5c6c5d011a" x="285.555938" y="80.446375" style="fill: #1f77b4; stroke: #1f77b4"/>
     </g>
    </g>
    <g id="text_18">
     <!-- 2 Maggio, vetrino I -->
     <g style="fill: #262626" transform="translate(303.555938 83.946375) scale(0.1 -0.1)">
      <defs>
       <path id="DejaVuSans-4d" d="M 628 4666 
L 1569 4666 
L 2759 1491 
L 3956 4666 
L 4897 4666 
L 4897 0 
L 4281 0 
L 4281 4097 
L 3078 897 
L 2444 897 
L 1241 4097 
L 1241 0 
L 628 0 
L 628 4666 
z
" transform="scale(0.015625)"/>
       <path id="DejaVuSans-2c" d="M 750 794 
L 1409 794 
L 1409 256 
L 897 -744 
L 494 -744 
L 750 256 
L 750 794 
z
" transform="scale(0.015625)"/>
       <path id="DejaVuSans-76" d="M 191 3500 
L 800 3500 
L 1894 563 
L 2988 3500 
L 3597 3500 
L 2284 0 
L 1503 0 
L 191 3500 
z
" transform="scale(0.015625)"/>
       <path id="DejaVuSans-49" d="M 628 4666 
L 1259 4666 
L 1259 0 
L 628 0 
L 628 4666 
z
" transform="scale(0.015625)"/>
      </defs>
      <use xlink:href="#DejaVuSans-32"/>
      <use xlink:href="#DejaVuSans-20" x="63.623047"/>
      <use xlink:href="#DejaVuSans-4d" x="95.410156"/>
      <use xlink:href="#DejaVuSans-61" x="181.689453"/>
      <use xlink:href="#DejaVuSans-67" x="242.96875"/>
      <use xlink:href="#DejaVuSans-67" x="306.445312"/>
      <use xlink:href="#DejaVuSans-69" x="369.921875"/>
      <use xlink:href="#DejaVuSans-6f" x="397.705078"/>
      <use xlink:href="#DejaVuSans-2c" x="458.886719"/>
      <use xlink:href="#DejaVuSans-20" x="490.673828"/>
      <use xlink:href="#DejaVuSans-76" x="522.460938"/>
      <use xlink:href="#DejaVuSans-65" x="581.640625"/>
      <use xlink:href="#DejaVuSans-74" x="643.164062"/>
      <use xlink:href="#DejaVuSans-72" x="682.373047"/>
      <use xlink:href="#DejaVuSans-69" x="723.486328"/>
      <use xlink:href="#DejaVuSans-6e" x="751.269531"/>
      <use xlink:href="#DejaVuSans-6f" x="814.648438"/>
      <use xlink:href="#DejaVuSans-20" x="875.830078"/>
      <use xlink:href="#DejaVuSans-49" x="907.617188"/>
     </g>
    </g>
    <g id="LineCollection_6">
     <path d="M 285.555938 100.1245 
L 285.555938 90.1245 
" style="fill: none; stroke: #ff7f0e; stroke-width: 1.5"/>
    </g>
    <g id="line2d_35">
     <path d="M 275.555938 95.1245 
L 295.555938 95.1245 
" style="fill: none; stroke: #ff7f0e; stroke-width: 1.5; stroke-linecap: round"/>
    </g>
    <g id="line2d_36">
     <g>
      <use xlink:href="#m4ec40dbc7f" x="285.555938" y="95.1245" style="fill: #ff7f0e; stroke: #ff7f0e"/>
     </g>
    </g>
    <g id="text_19">
     <!-- 5 Maggio, vetrino I -->
     <g style="fill: #262626" transform="translate(303.555938 98.6245) scale(0.1 -0.1)">
      <use xlink:href="#DejaVuSans-35"/>
      <use xlink:href="#DejaVuSans-20" x="63.623047"/>
      <use xlink:href="#DejaVuSans-4d" x="95.410156"/>
      <use xlink:href="#DejaVuSans-61" x="181.689453"/>
      <use xlink:href="#DejaVuSans-67" x="242.96875"/>
      <use xlink:href="#DejaVuSans-67" x="306.445312"/>
      <use xlink:href="#DejaVuSans-69" x="369.921875"/>
      <use xlink:href="#DejaVuSans-6f" x="397.705078"/>
      <use xlink:href="#DejaVuSans-2c" x="458.886719"/>
      <use xlink:href="#DejaVuSans-20" x="490.673828"/>
      <use xlink:href="#DejaVuSans-76" x="522.460938"/>
      <use xlink:href="#DejaVuSans-65" x="581.640625"/>
      <use xlink:href="#DejaVuSans-74" x="643.164062"/>
      <use xlink:href="#DejaVuSans-72" x="682.373047"/>
      <use xlink:href="#DejaVuSans-69" x="723.486328"/>
      <use xlink:href="#DejaVuSans-6e" x="751.269531"/>
      <use xlink:href="#DejaVuSans-6f" x="814.648438"/>
      <use xlink:href="#DejaVuSans-20" x="875.830078"/>
      <use xlink:href="#DejaVuSans-49" x="907.617188"/>
     </g>
    </g>
    <g id="LineCollection_7">
     <path d="M 285.555938 114.802625 
L 285.555938 104.802625 
" style="fill: none; stroke: #2ca02c; stroke-width: 1.5"/>
    </g>
    <g id="line2d_37">
     <path d="M 275.555938 109.802625 
L 295.555938 109.802625 
" style="fill: none; stroke: #2ca02c; stroke-width: 1.5; stroke-linecap: round"/>
    </g>
    <g id="line2d_38">
     <g>
      <use xlink:href="#mfbba2eb352" x="285.555938" y="109.802625" style="fill: #2ca02c; stroke: #2ca02c"/>
     </g>
    </g>
    <g id="text_20">
     <!-- 5 Maggio, vetrino II -->
     <g style="fill: #262626" transform="translate(303.555938 113.302625) scale(0.1 -0.1)">
      <use xlink:href="#DejaVuSans-35"/>
      <use xlink:href="#DejaVuSans-20" x="63.623047"/>
      <use xlink:href="#DejaVuSans-4d" x="95.410156"/>
      <use xlink:href="#DejaVuSans-61" x="181.689453"/>
      <use xlink:href="#DejaVuSans-67" x="242.96875"/>
      <use xlink:href="#DejaVuSans-67" x="306.445312"/>
      <use xlink:href="#DejaVuSans-69" x="369.921875"/>
      <use xlink:href="#DejaVuSans-6f" x="397.705078"/>
      <use xlink:href="#DejaVuSans-2c" x="458.886719"/>
      <use xlink:href="#DejaVuSans-20" x="490.673828"/>
      <use xlink:href="#DejaVuSans-76" x="522.460938"/>
      <use xlink:href="#DejaVuSans-65" x="581.640625"/>
      <use xlink:href="#DejaVuSans-74" x="643.164062"/>
      <use xlink:href="#DejaVuSans-72" x="682.373047"/>
      <use xlink:href="#DejaVuSans-69" x="723.486328"/>
      <use xlink:href="#DejaVuSans-6e" x="751.269531"/>
      <use xlink:href="#DejaVuSans-6f" x="814.648438"/>
      <use xlink:href="#DejaVuSans-20" x="875.830078"/>
      <use xlink:href="#DejaVuSans-49" x="907.617188"/>
      <use xlink:href="#DejaVuSans-49" x="937.109375"/>
     </g>
    </g>
    <g id="LineCollection_8">
     <path d="M 285.555938 129.48075 
L 285.555938 119.48075 
" style="fill: none; stroke: #d62728; stroke-width: 1.5"/>
    </g>
    <g id="line2d_39">
     <path d="M 275.555938 124.48075 
L 295.555938 124.48075 
" style="fill: none; stroke: #d62728; stroke-width: 1.5; stroke-linecap: round"/>
    </g>
    <g id="line2d_40">
     <g>
      <use xlink:href="#m0a4e13d929" x="285.555938" y="124.48075" style="fill: #d62728; stroke: #d62728"/>
     </g>
    </g>
    <g id="text_21">
     <!-- 5 Maggio, vetrino III -->
     <g style="fill: #262626" transform="translate(303.555938 127.98075) scale(0.1 -0.1)">
      <use xlink:href="#DejaVuSans-35"/>
      <use xlink:href="#DejaVuSans-20" x="63.623047"/>
      <use xlink:href="#DejaVuSans-4d" x="95.410156"/>
      <use xlink:href="#DejaVuSans-61" x="181.689453"/>
      <use xlink:href="#DejaVuSans-67" x="242.96875"/>
      <use xlink:href="#DejaVuSans-67" x="306.445312"/>
      <use xlink:href="#DejaVuSans-69" x="369.921875"/>
      <use xlink:href="#DejaVuSans-6f" x="397.705078"/>
      <use xlink:href="#DejaVuSans-2c" x="458.886719"/>
      <use xlink:href="#DejaVuSans-20" x="490.673828"/>
      <use xlink:href="#DejaVuSans-76" x="522.460938"/>
      <use xlink:href="#DejaVuSans-65" x="581.640625"/>
      <use xlink:href="#DejaVuSans-74" x="643.164062"/>
      <use xlink:href="#DejaVuSans-72" x="682.373047"/>
      <use xlink:href="#DejaVuSans-69" x="723.486328"/>
      <use xlink:href="#DejaVuSans-6e" x="751.269531"/>
      <use xlink:href="#DejaVuSans-6f" x="814.648438"/>
      <use xlink:href="#DejaVuSans-20" x="875.830078"/>
      <use xlink:href="#DejaVuSans-49" x="907.617188"/>
      <use xlink:href="#DejaVuSans-49" x="937.109375"/>
      <use xlink:href="#DejaVuSans-49" x="966.601562"/>
     </g>
    </g>
   </g>
  </g>
 </g>
 <defs>
  <clipPath id="p9ef39dff71">
   <rect x="57.6" y="41.472" width="357.12" height="266.112"/>
  </clipPath>
 </defs>
</svg>
